<?xml version="1.0" encoding="utf-8"?>
<!-- Generator: Adobe Illustrator 27.0.0, SVG Export Plug-In . SVG Version: 6.00 Build 0)  -->
<svg version="1.1" id="Layer_1" xmlns="http://www.w3.org/2000/svg" xmlns:xlink="http://www.w3.org/1999/xlink" x="0px" y="0px"
	 viewBox="0 0 821.17 501.19" style="enable-background:new 0 0 821.17 501.19;" xml:space="preserve">
<style type="text/css">
	.st0{fill:#FFFFFF;}
</style>
<path class="st0" d="M539.46,61.32c-13.28,1.61-25.98,3.13-38.67,4.68c-23.26,2.85-46.51,5.74-69.77,8.6
	c-22.93,2.81-45.86,5.59-68.78,8.42c-16.82,2.07-33.63,4.22-50.45,6.3c-3.22,0.4-5.16-0.88-5.1-4.39c0.1-5.82,0.13-11.65,0.31-17.47
	c0.1-3.3,1.97-5.21,5.24-5.62c21.93-2.7,43.87-5.38,65.81-8.06c23.09-2.82,46.18-5.65,69.27-8.47c23.42-2.86,46.85-5.71,70.27-8.58
	c14.68-1.8,29.36-3.6,44.03-5.47c5.28-0.67,6.74,0.46,6.62,5.65c-0.69,29.6-1.36,59.2-2.09,88.79c-0.63,25.44-1.32,50.87-1.97,76.31
	c-0.19,7.4,1.8,9.23,9.15,8.53c15.95-1.51,16.79-2.47,17.12-18.46c0.73-35.59,1.5-71.19,2.27-106.78c0.04-1.66,0.47-3.32,0.39-4.96
	c-0.53-11.11,1.16-10.21,11.42-11.57c3.29-0.44,6.63-0.6,9.9-1.12c4.29-0.69,5.79,1.31,5.69,5.28c-0.37,14.8-0.68,29.6-1.04,44.4
	c-0.3,12.3-0.62,24.6-0.96,36.91c-0.47,16.79-0.81,33.58-1.5,50.36c-0.78,19.01-11.66,29.74-31.64,31.83
	c-7.44,0.78-14.86,1.66-22.28,2.63c-15.79,2.06-26.45-6.96-26.14-22.95c0.81-42.24,1.96-84.47,2.89-126.7
	C539.63,80.27,539.46,71.15,539.46,61.32z M229.34,413.28c3.78-0.84,5.07,0.61,5.91,4.33c3.24,14.41,7.1,28.68,10.33,43.09
	c0.95,4.22,2.98,4.96,6.67,4.41c5.26-0.78,10.55-1.32,15.83-1.97c5.51-0.68,6.24-1.72,4.94-7.12c-3.62-15.01-7.19-30.03-10.94-45
	c-0.7-2.79-0.34-4.46,2.19-6.24c6.76-4.76,10.83-11.63,11.27-19.73c1.05-19.76,1.68-39.54,1.98-59.33
	c0.25-16.88-10.18-25.6-27.05-23.51c-15.18,1.88-30.36,3.66-45.56,5.4c-9.07,1.04-9.07,0.96-9.42,10.04
	c-0.1,2.49-0.36,4.97-0.42,7.46c-0.72,29.11-1.43,58.21-2.11,87.32c-0.42,18.3-0.74,36.6-1.21,54.9c-0.09,3.35,0.88,5.12,4.52,4.63
	c5.6-0.75,11.19-1.65,16.81-2.09c4.78-0.38,6.46-2.49,6.49-7.33c0.12-15.94,0.68-31.89,1.07-48.01
	C223.81,414.1,226.62,413.88,229.34,413.28z M222.22,348.11c0.02-4.15,0.09-8.31,0.54-12.42c0.13-1.16,1.55-2.93,2.6-3.11
	c5.55-0.95,11.16-1.64,16.77-2.11c5.41-0.45,7.72,1.73,7.62,7.19c-0.23,12.78-0.62,25.55-0.98,38.33c-0.11,4.08-1.98,7.36-6.03,8.12
	c-6.79,1.27-13.7,1.89-20.55,2.77C222.2,373.29,222.17,360.7,222.22,348.11z M361.65,446.37c0.47,2.93,1.19,5.22,4.92,4.7
	c5.92-0.84,11.83-1.81,17.78-2.25c4.75-0.36,5.86-2.58,5.03-6.86c-9.62-49.51-19.21-99.03-28.7-148.57
	c-0.64-3.33-1.88-4.56-5.3-4.08c-7.89,1.11-15.8,2.18-23.74,2.83c-4.42,0.36-6.13,2.32-7.1,6.56
	c-7.96,34.59-16.18,69.11-24.32,103.66c-7.37,31.33-14.72,62.67-22.13,93.99c-0.91,3.86,0.22,5.37,4.22,4.71
	c3.6-0.6,7.23-1.05,10.85-1.51c13.84-1.79,11.01,0.8,14.41-13.53c4.57-19.2,8.81-38.49,13.37-57.69c0.42-1.75,1.99-4.39,3.32-4.59
	c10.81-1.61,21.69-2.74,32.91-4.06C358.7,428.77,360.24,437.56,361.65,446.37z M327.63,399.11c4.59-22.98,9.07-45.4,13.56-67.82
	c0.39,0.01,0.78,0.03,1.17,0.04c3.42,21.43,6.84,42.86,10.33,64.73C344.38,397.07,336.39,398.04,327.63,399.11z M405.37,425.77
	c0,4.99,0.21,9.99-0.07,14.96c-0.23,4.09,1.29,5.28,5.24,4.76c16.31-2.13,32.67-3.84,48.94-6.18c16.17-2.32,26.15-13.61,26.89-29.83
	c0.42-9.13,0.6-18.27,0.84-27.41c0.68-26.59,1.24-53.19,2.02-79.78c0.49-16.9-9.25-27.88-24.42-26.39
	c-16.7,1.65-33.32,4.02-49.99,5.89c-4.38,0.49-5.91,2.63-6,6.82c-0.96,45.72-2.01,91.44-3.04,137.16
	C405.64,425.77,405.5,425.77,405.37,425.77z M436.22,306.7c5.99-0.79,11.53-1.68,17.11-2.21c6.61-0.63,8.56,1.11,8.45,7.68
	c-0.32,19.26-0.75,38.52-1.2,57.78c-0.26,11.29-0.62,22.57-0.96,33.85c-0.17,5.79-2.55,8.68-8.13,9.46
	c-5.74,0.81-11.51,1.35-17.97,2.09C434.42,378.9,435.32,342.94,436.22,306.7z M557.48,387.87c0,5.16-0.13,10.32,0.03,15.47
	c0.3,10.02,5.71,17.89,14.39,19.83c4.61,1.03,9.57,1.1,14.31,0.77c7.28-0.5,14.49-1.85,21.76-2.61
	c17.78-1.88,28.64-12.61,29.56-30.49c0.97-18.75,1.28-37.54,1.73-56.32c0.44-18.28,1-36.57,0.96-54.86
	c-0.03-14.29-8.41-22.48-22.52-22.01c-9.27,0.31-18.5,1.81-27.73,2.86c-19.11,2.17-29.63,13.31-30.18,32.62
	c-0.9,31.57-1.5,63.16-2.22,94.74C557.54,387.87,557.51,387.87,557.48,387.87z M586.68,298.02c0.2-8.57,2.14-10.69,10.74-11.71
	c3.13-0.37,6.26-0.9,9.41-1.04c5.14-0.23,7.38,1.98,7.24,7.14c-0.79,31.1-1.61,62.19-2.49,93.29c-0.17,5.88-2.21,8.44-7.63,9.38
	c-4.24,0.74-8.57,1-12.87,1.41c-4.5,0.44-6.41-2.09-6.65-6.17c-0.16-2.82-0.03-5.65-0.03-8.48c0.1,0,0.19,0,0.29,0
	C585.36,353.9,586.02,325.96,586.68,298.02z M355.6,117.23c0-3.5-0.06-6.99,0.02-10.49c0.09-4.02-1.91-5.31-5.67-4.78
	c-5.1,0.71-10.21,1.37-15.34,1.86c-4.59,0.45-6.72,2.63-6.78,7.41c-0.14,12.31-0.59,24.61-0.89,36.91
	c-0.3,11.97-0.6,23.95-0.87,35.92c-0.44,19.46-1.35,38.92-1.15,58.37c0.17,16.4,10.72,24.51,27.2,22.37
	c7.08-0.92,14.19-1.7,21.3-2.43c20.07-2.05,31.12-13.02,31.98-32.2c0.51-11.3,0.62-22.61,0.89-33.92
	c0.29-11.97,0.56-23.95,0.83-35.92c0.46-20.12,0.9-40.25,1.36-60.37c0.08-3.51-1.68-4.79-5.02-4.37
	c-5.44,0.69-10.87,1.45-16.33,1.97c-3.94,0.38-5.42,2.5-5.51,6.26c-0.54,22.28-1.19,44.56-1.73,66.84
	c-0.45,18.46-0.78,36.92-1.24,55.39c-0.14,5.48-2.58,8.32-7.89,9.27c-3.27,0.58-6.58,0.96-9.89,1.2c-6.17,0.45-8.28-1.42-8.22-7.58
	c0.07-6.65,0.52-13.29,0.67-19.93c0.69-30.6,1.33-61.2,1.99-91.8C355.41,117.23,355.5,117.23,355.6,117.23z M488.56,222.02
	c1.26,7.19,2.57,14.38,3.71,21.59c0.46,2.88,1.79,4.05,4.72,3.62c6.08-0.88,12.17-1.76,18.27-2.4c4.07-0.42,5.29-1.98,4.44-6.23
	c-4.6-23.1-8.9-46.27-13.33-69.41c-5.02-26.24-10.12-52.46-15.06-78.71c-0.76-4.03-2.44-5.61-6.71-4.93
	c-7.38,1.17-14.81,2.16-22.26,2.65c-4.95,0.33-6.69,2.75-7.7,7.23c-8.36,37.05-16.91,74.06-25.42,111.08
	c-3.42,14.87-6.92,29.72-10.34,44.59c-1.11,4.83-0.2,5.74,4.64,5.11c5.76-0.75,11.52-1.57,17.3-2.18c3.5-0.37,5.17-1.95,5.78-5.55
	c1.38-8.17,3.34-16.25,4.79-24.41c0.52-2.92,1.59-4.29,4.69-4.61c10.24-1.04,20.45-2.36,31.26-3.64
	C487.8,218.15,488.22,220.08,488.56,222.02z M458,195.23c4.65-23.32,9.17-45.98,13.68-68.64c0.28-0.02,0.57-0.04,0.85-0.06
	c3.47,21.76,6.93,43.52,10.47,65.73C474.3,193.3,466.62,194.21,458,195.23z M222.82,257.17c0.57,12.45,8.83,20.76,21.29,20.15
	c11.74-0.57,23.53-1.88,35.09-4.02c12.16-2.26,20.64-10.02,22.61-22.38c1.66-10.43,1.37-21.18,1.63-31.79
	c0.02-0.84-2.45-2.56-3.67-2.48c-5.96,0.39-11.88,1.43-17.83,1.89c-3.86,0.3-5.21,2.23-5.17,5.81c0.05,4.66,0.08,9.33-0.1,13.98
	c-0.23,5.85-2.58,8.49-8.24,9.42c-3.11,0.51-6.26,0.79-9.39,1.2c-6.18,0.79-8.47-1.01-8.38-7.12c0.14-10.47,0.54-20.95,0.77-31.42
	c0.45-20.12,0.82-40.25,1.29-60.37c0.14-6.04,2.55-8.7,8.53-9.67c3.28-0.53,6.57-0.98,9.87-1.35c5.05-0.56,7.59,1.59,7.64,6.69
	c0.05,5.15-0.17,10.31-0.29,15.47c-0.07,2.72,0.68,4.65,3.95,4.23c6.1-0.78,12.19-1.58,18.29-2.33c3.15-0.39,4.69-2.03,4.7-5.28
	c0.01-8.99,0.46-17.99,0.11-26.96c-0.45-11.2-7.77-18.89-18.54-19.99c-3.28-0.34-6.67-0.2-9.96,0.15c-6.77,0.72-13.5,1.82-20.27,2.6
	c-21.07,2.42-31.09,13.08-31.69,34.35c-0.86,30.59-1.49,61.19-2.25,92.75C222.78,245.54,222.56,251.36,222.82,257.17z
	 M538.72,290.05c0-5.99-0.12-11.98,0.05-17.97c0.1-3.56-0.88-5.3-4.85-4.72c-6.25,0.92-12.59,1.24-18.77,2.44
	c-1.55,0.3-3.46,2.89-3.75,4.66c-0.68,4.24-0.53,8.61-0.63,12.93c-0.54,24.62-1.01,49.24-1.58,73.86
	c-0.51,22.28-1.1,44.57-1.72,66.85c-0.09,3.27,0.32,5.69,4.52,5.11c5.93-0.82,11.87-1.58,17.81-2.22c3.84-0.42,5.38-2.3,5.43-6.22
	c0.15-11.97,0.65-23.94,0.92-35.92c0.75-32.93,1.45-65.87,2.18-98.8C538.47,290.05,538.59,290.05,538.72,290.05z M647.49,224.6
	c20.04-12.32,40.08-24.65,60.61-37.28c-0.64,13.46-1.24,26.11-1.9,40.12c39.03-33.3,77-65.7,114.97-98.1
	c-0.24-0.33-0.48-0.65-0.71-0.98c-32.51,21.8-65.03,43.6-98.5,66.04c1.83-14.61,3.5-27.84,5.33-42.45
	c-27.45,24.6-53.91,48.31-80.37,72.02C647.11,224.19,647.3,224.39,647.49,224.6z M178.6,283.65
	c-27.37-21.73-54.75-43.46-83.29-66.12c2.74,14.75,5.18,27.9,7.8,42.01c-34.72-20.39-68.6-40.3-102.49-60.2
	c-0.21,0.33-0.41,0.67-0.62,1c40.01,30.21,80.02,60.42,120.83,91.24c-1.47-13.71-2.81-26.28-4.27-39.92
	c21.17,11.34,41.28,22.11,61.39,32.88C178.17,284.25,178.39,283.95,178.6,283.65z M652.79,183.17c0.21,0.19,0.42,0.37,0.63,0.56
	c21.2-21.6,42.41-43.2,64.12-65.33c-9.2-3.12-17.61-5.97-26.73-9.05C729.72,72.85,768.2,36.77,806.67,0.68
	c-0.2-0.23-0.4-0.45-0.6-0.68c-46.58,38.41-93.16,76.81-140.48,115.83c10.77,2.64,20.49,5.02,31.03,7.61
	C681.64,143.86,667.21,163.51,652.79,183.17z M33.74,81.48c-0.22,0.3-0.44,0.59-0.66,0.89c39.71,33.02,79.41,66.05,119.65,99.52
	c-9.03,3.69-17.23,7.04-26.11,10.66c22.47,20.32,44.37,40.12,66.26,59.91c0.27-0.27,0.53-0.54,0.8-0.81
	c-15.18-18.32-30.37-36.64-45.87-55.34c10.52-3.24,20.02-6.15,30.55-9.39C129.58,151.35,81.66,116.42,33.74,81.48z M801.78,306.52
	c-28.3-12.28-56.6-24.55-85.28-36.99c4.7-5.7,8.85-10.73,13.55-16.43c-27.83-3.19-54.55-6.24-81.26-9.3
	c-0.07,0.27-0.14,0.54-0.2,0.81c19.26,6.22,38.51,12.44,58.33,18.85c-4.63,4.97-8.61,9.24-13.05,14.02
	c36.49,10.06,72.08,19.88,107.67,29.69C801.62,306.95,801.7,306.74,801.78,306.52z M29.11,385.49
	c34.55-11.78,69.09-23.56,104.34-35.58c-4.93-4.63-9.25-8.68-14.03-13.16c19.44-7.58,38.36-14.96,57.28-22.35
	c-0.1-0.26-0.2-0.53-0.29-0.79c-26.57,4.67-53.15,9.34-80.58,14.16c5.06,5.48,9.53,10.32,14.42,15.61
	c-27.36,13.85-54.43,27.55-81.5,41.25C28.87,384.92,28.99,385.2,29.11,385.49z"/>
</svg>
