<?xml version="1.0" encoding="utf-8"?>
<!-- Generator: Adobe Illustrator 27.0.0, SVG Export Plug-In . SVG Version: 6.00 Build 0)  -->
<svg version="1.1" id="Layer_1" xmlns="http://www.w3.org/2000/svg" xmlns:xlink="http://www.w3.org/1999/xlink" x="0px" y="0px"
	 viewBox="0 0 359.78 352.97" style="enable-background:new 0 0 359.78 352.97;" xml:space="preserve">
<style type="text/css">
	.st0{fill:#FFFFFF;}
</style>
<g>
	<path class="st0" d="M92.91,292.1v-23.13c0-0.23,0.12-0.35,0.35-0.35h9.22c4.49,0,7.31,1.81,8.48,5.43c0.47,1.47,0.7,3.63,0.7,6.48
		s-0.23,5.01-0.7,6.48c-1.17,3.62-4,5.43-8.48,5.43h-9.22C93.02,292.45,92.91,292.34,92.91,292.1z M99.08,286.77
		c0,0.14,0.07,0.21,0.21,0.21h1.86c1.1,0,1.96-0.17,2.58-0.53s1.07-0.93,1.35-1.75c0.23-0.77,0.35-2.16,0.35-4.17
		s-0.12-3.4-0.35-4.17c-0.28-0.82-0.73-1.4-1.35-1.75c-0.62-0.35-1.48-0.53-2.58-0.53h-1.86c-0.14,0-0.21,0.07-0.21,0.21V286.77z"/>
	<path class="st0" d="M116.78,292.1v-23.13c0-0.23,0.12-0.35,0.35-0.35h15.6c0.23,0,0.35,0.12,0.35,0.35v4.52
		c0,0.23-0.12,0.35-0.35,0.35h-9.57c-0.14,0-0.21,0.07-0.21,0.21v3.61c0,0.14,0.07,0.21,0.21,0.21h7.85c0.23,0,0.35,0.12,0.35,0.35
		v4.42c0,0.23-0.12,0.35-0.35,0.35h-7.85c-0.14,0-0.21,0.07-0.21,0.21v3.82c0,0.14,0.07,0.21,0.21,0.21h9.57
		c0.23,0,0.35,0.12,0.35,0.35v4.52c0,0.23-0.12,0.35-0.35,0.35h-15.6C116.89,292.45,116.78,292.34,116.78,292.1z"/>
	<path class="st0" d="M143.87,292.45h-5.47c-0.23,0-0.35-0.12-0.35-0.35v-23.13c0-0.23,0.12-0.35,0.35-0.35h9.53
		c2.83,0,5.01,0.72,6.54,2.17c1.53,1.45,2.3,3.36,2.3,5.75c0,2.36-0.77,4.28-2.31,5.75s-3.71,2.21-6.52,2.21h-3.5
		c-0.14,0-0.21,0.07-0.21,0.21v7.39C144.22,292.34,144.1,292.45,143.87,292.45z M147.58,279.27c0.96,0,1.7-0.25,2.23-0.74
		c0.53-0.49,0.79-1.16,0.79-2c0-0.84-0.26-1.5-0.79-1.98c-0.53-0.48-1.27-0.72-2.23-0.72h-3.15c-0.14,0-0.21,0.07-0.21,0.21v5.01
		c0,0.14,0.07,0.21,0.21,0.21H147.58z"/>
	<path class="st0" d="M175.97,291.37c-1.59,1-3.47,1.51-5.64,1.51c-2.17,0-4.05-0.5-5.64-1.51c-1.59-1-2.69-2.45-3.29-4.35
		c-0.47-1.52-0.7-3.68-0.7-6.48s0.23-4.96,0.7-6.48c0.61-1.89,1.71-3.34,3.29-4.35c1.59-1,3.47-1.51,5.64-1.51
		c2.17,0,4.05,0.5,5.64,1.51c1.59,1,2.69,2.45,3.29,4.35c0.47,1.43,0.7,3.59,0.7,6.48s-0.23,5.06-0.7,6.48
		C178.66,288.91,177.56,290.36,175.97,291.37z M170.33,287.37c1.59,0,2.61-0.7,3.05-2.1c0.23-0.68,0.35-2.25,0.35-4.73
		s-0.12-4.05-0.35-4.73c-0.44-1.4-1.46-2.1-3.05-2.1c-1.59,0-2.61,0.7-3.05,2.1c-0.23,0.68-0.35,2.25-0.35,4.73s0.12,4.05,0.35,4.73
		C167.72,286.67,168.74,287.37,170.33,287.37z"/>
	<path class="st0" d="M203.87,292.45h-6.06c-0.26,0-0.43-0.12-0.53-0.35l-3.61-8.13h-2.28c-0.14,0-0.21,0.07-0.21,0.21v7.92
		c0,0.23-0.12,0.35-0.35,0.35h-5.47c-0.23,0-0.35-0.12-0.35-0.35v-23.13c0-0.23,0.12-0.35,0.35-0.35h9.71
		c2.69,0,4.79,0.71,6.31,2.12s2.28,3.27,2.28,5.55c0,1.5-0.34,2.82-1.02,3.98c-0.68,1.16-1.65,2.05-2.91,2.68l4.38,9.08
		c0.05,0.09,0.05,0.19,0,0.28C204.07,292.41,203.99,292.45,203.87,292.45z M194.69,278.89c0.86,0,1.55-0.23,2.05-0.68
		c0.5-0.46,0.75-1.07,0.75-1.84c0-0.77-0.25-1.38-0.75-1.84c-0.5-0.46-1.19-0.68-2.05-0.68h-3.29c-0.14,0-0.21,0.07-0.21,0.21v4.63
		c0,0.14,0.07,0.21,0.21,0.21H194.69z"/>
	<path class="st0" d="M219.5,292.45h-5.47h-0.1c-0.05,0-0.11-0.04-0.18-0.11c-0.05-0.05-0.07-0.09-0.07-0.14v-0.11v-17.8
		c0-0.09-0.06-0.16-0.17-0.21h-0.04h-5.85h-0.11c-0.05,0-0.09-0.02-0.14-0.07l-0.04-0.04c0-0.02-0.01-0.03-0.03-0.03
		c-0.02-0.05-0.04-0.12-0.04-0.21v-4.77c0-0.19,0.08-0.3,0.25-0.35h0.11h18.29c0.09,0,0.17,0.04,0.25,0.11
		c0.02,0.02,0.04,0.05,0.04,0.07c0.05,0.05,0.07,0.11,0.07,0.17v4.77c0,0.12-0.04,0.21-0.11,0.28c-0.05,0.05-0.11,0.07-0.18,0.07
		h-0.07h-5.85c-0.07,0-0.12,0.01-0.14,0.04l-0.07,0.07v0.1v17.8v0.11c-0.02,0.07-0.08,0.14-0.18,0.21
		C219.65,292.44,219.59,292.45,219.5,292.45z"/>
	<path class="st0" d="M230.37,292.1v-23.13c0-0.23,0.12-0.35,0.35-0.35h15.6c0.23,0,0.35,0.12,0.35,0.35v4.52
		c0,0.23-0.12,0.35-0.35,0.35h-9.57c-0.14,0-0.21,0.07-0.21,0.21v3.61c0,0.14,0.07,0.21,0.21,0.21h7.85c0.23,0,0.35,0.12,0.35,0.35
		v4.42c0,0.23-0.12,0.35-0.35,0.35h-7.85c-0.14,0-0.21,0.07-0.21,0.21v3.82c0,0.14,0.07,0.21,0.21,0.21h9.57
		c0.23,0,0.35,0.12,0.35,0.35v4.52c0,0.23-0.12,0.35-0.35,0.35h-15.6C230.48,292.45,230.37,292.34,230.37,292.1z"/>
	<path class="st0" d="M260.23,292.87c-1.87,0-3.7-0.33-5.5-1c-1.8-0.67-3.17-1.47-4.1-2.4c-0.21-0.19-0.22-0.37-0.04-0.56l3.15-3.71
		c0.16-0.19,0.33-0.2,0.49-0.04c1.8,1.59,3.82,2.38,6.06,2.38c1.07,0,1.9-0.21,2.49-0.61c0.58-0.41,0.88-0.95,0.88-1.63
		c0-0.54-0.22-0.97-0.67-1.3c-0.44-0.33-1.23-0.56-2.35-0.7l-1.26-0.18c-5.3-0.75-7.96-3.25-7.96-7.5c0-2.24,0.81-4.04,2.42-5.4
		c1.61-1.35,3.76-2.03,6.45-2.03c3.36,0,6.2,0.88,8.52,2.63c0.19,0.14,0.21,0.32,0.07,0.53l-2.63,3.82c-0.14,0.19-0.3,0.22-0.49,0.1
		c-1.8-1.19-3.59-1.79-5.36-1.79c-0.84,0-1.49,0.18-1.95,0.54c-0.46,0.36-0.68,0.85-0.68,1.46c0,0.54,0.23,0.97,0.7,1.3
		s1.25,0.56,2.35,0.7l1.26,0.18c2.64,0.37,4.61,1.17,5.92,2.4s1.96,2.95,1.96,5.17c0,2.29-0.85,4.14-2.54,5.54
		C265.73,292.17,263.33,292.87,260.23,292.87z"/>
</g>
<path class="st0" d="M253.27,323c-4.65,6.35-9.27,12.73-13.9,19.09c-1.34,1.84-3.57,1.94-5.46,2.53c-4.48,1.41-9.01,2.74-13.6,3.74
	c-5.74,1.25-11.56,2.21-17.36,3.16c-3.13,0.51-6.29,0.92-9.46,1.06c-5.97,0.26-11.96,0.43-17.94,0.38
	c-4.55-0.03-9.1-0.32-13.63-0.73c-4.33-0.39-8.61-1.34-12.94-1.59c-4.43-0.26-6.58-3.62-9.31-6.15c-4.2-3.89-8.18-8.02-12.25-12.05
	c-0.38-0.38-0.66-0.85-1.09-1.43c2.3-0.85,4.4-1.6,6.48-2.4c3.76-1.45,7.53-2.88,11.26-4.42c5.32-2.19,10.66-4.37,15.9-6.75
	c5.2-2.36,10.31-4.92,15.41-7.51c2.59-1.32,5.14-2.72,7.7-4.11h13.5c8.36,3.01,16.81,5.73,25.39,8.06c5.67,1.54,11.33,3.1,17.03,4.5
	c4.51,1.1,9.06,2.03,13.62,2.92C254.02,321.59,253.99,322.02,253.27,323z M227.39,32.97c6.87,8.61,13.1,17.73,19.59,26.65
	c0.59,0.82,1.19,1.41,2.27,1.55c2.79,0.37,5.56,0.84,8.33,1.29c4.69,0.77,9.4,1.45,14.06,2.37c5.76,1.13,11.51,2.35,17.22,3.71
	c5.9,1.41,11.76,2.97,17.62,4.5l7.1-5.85c-0.82-5.86-1.64-11.72-2.48-17.58c-0.07-0.47-0.34-1-0.69-1.32
	c-5.08-4.75-10.06-9.61-15.31-14.17c-8.64-7.5-18.14-13.81-28.13-19.37C256.68,9.05,245.9,4.45,234.73,0.74
	c-2.07-0.69-4.06-1.09-6.26-0.33c-5.8,1.98-11.67,3.79-17.49,5.71c-1.73,0.57-3.41,1.28-5.38,2.02c0.61,0.65,1.02,1.07,1.41,1.52
	C213.83,17.4,220.96,24.91,227.39,32.97z M30.72,87.85c-0.02-5.35,0.11-10.7,0.1-16.05c0-1.43,0.21-2.65,1.15-3.82
	c4.28-5.29,8.25-10.85,12.77-15.92c10.38-11.65,22-21.95,35.16-30.38c6.6-4.23,13.55-7.92,20.32-11.89c1.72-1.01,3.5-0.61,5.24-0.35
	c5.05,0.76,10.09,1.6,15.12,2.5c2.6,0.46,5.17,1.11,8.08,1.74c-1.05,1.61-1.9,2.96-2.8,4.28c-10.29,15.16-19.42,31.01-27.76,47.31
	c-0.98,1.91-1.96,3.82-2.85,5.76c-0.53,1.16-1.26,1.75-2.55,2.11c-4.97,1.4-9.9,2.93-14.81,4.53c-5.1,1.66-10.19,3.36-15.23,5.2
	c-4.46,1.63-8.85,3.42-13.24,5.23C45.7,89.64,42,91.23,38.3,92.83l-6.96-5.08L30.72,87.85z M25.85,211.6L25.85,211.6
	c0.05,0.11,0.09,0.23,0.14,0.34C25.94,211.83,25.89,211.72,25.85,211.6z M60.55,288.43c0.1,0.96-0.07,1.36-1.16,1.02
	c-6.32-2.01-12.65-3.97-18.97-5.96c-0.63-0.2-1.24-0.51-1.89-0.62c-3.92-0.68-5.23-4.13-7.18-6.83c-5.16-7.12-9.6-14.7-13.53-22.55
	c-3.75-7.5-7.16-15.17-9.57-23.21c-2.13-7.09-4.07-14.25-5.89-21.43c-0.86-3.41-1.24-6.95-2.01-11.4c-1.27-2.94,1.26-5.86,2.8-8.92
	c2.57-5.11,5.38-10.1,8.1-15.14c1.02-1.89,1.24-1.83,2.57-0.22c6.99,8.42,13.77,17.02,21.1,25.13c0.41,0.46,0.85,0.9,1.27,1.36
	l-13.05,6.61l-2.84,7.63l0.09,0.22l0.05,0.11l7.49,3.4l19.27-6.57c3.27,3.28,6.56,6.55,9.79,9.88c0.49,0.5,0.76,1.44,0.76,2.17
	c0.01,4.66-0.12,9.31-0.14,13.97c-0.02,3.53-0.06,7.07,0.1,10.59c0.44,9.26,0.93,18.53,1.53,27.78
	C59.52,279.78,60.09,284.11,60.55,288.43z M359.78,170.35c-0.15,5.98-0.2,11.98-0.7,17.94c-0.46,5.49-1.32,10.97-2.25,16.41
	c-0.81,4.72-1.69,9.47-3.05,14.06c-2.11,7.13-4.35,14.26-7.09,21.17c-2.54,6.39-5.78,12.49-8.79,18.68c-0.37,0.77-1.13,1.5-1.89,1.9
	c-6.41,3.37-12.87,6.66-19.31,9.97c-0.85,0.44-1.72,0.84-2.91,1.42c-0.19-2.54-0.35-4.72-0.5-6.89c-0.43-6.48-0.86-12.97-1.29-19.46
	c-0.66-9.98-2.02-19.87-3.75-29.71c-0.63-3.58-1.36-7.14-1.92-10.73c-0.11-0.69,0.18-1.61,0.61-2.19c4.44-6,9.09-11.85,13.4-17.94
	l7.29,2.01l7.21-3.66l0.1-0.26l-3.22-7.63l-3.91-1.69c3.23-5.1,6.38-10.25,9.54-15.39c2.01-3.26,3.72-6.7,5.57-10.05
	c0.22-0.39,0.51-0.74,0.96-1.4c1.23,1.54,2.43,2.89,3.48,4.36c3.91,5.42,7.81,10.86,11.63,16.35
	C359.5,168.35,359.8,169.43,359.78,170.35z"/>
<g>
	<path class="st0" d="M226.33,84.68c-5.21,0.63-10.2,1.23-15.18,1.84c-9.13,1.12-18.26,2.25-27.39,3.37c-9,1.1-18,2.19-27,3.3
		c-6.6,0.81-13.2,1.66-19.81,2.47c-1.26,0.16-2.03-0.35-2-1.72c0.04-2.29,0.05-4.57,0.12-6.86c0.04-1.3,0.77-2.05,2.06-2.21
		c8.61-1.06,17.22-2.11,25.83-3.16c9.07-1.11,18.13-2.22,27.2-3.33c9.19-1.12,18.39-2.24,27.58-3.37
		c5.76-0.71,11.53-1.41,17.28-2.15c2.07-0.26,2.65,0.18,2.6,2.22c-0.27,11.62-0.54,23.24-0.82,34.86
		c-0.25,9.99-0.52,19.97-0.77,29.96c-0.07,2.91,0.71,3.62,3.59,3.35c6.26-0.59,6.59-0.97,6.72-7.25
		c0.29-13.97,0.59-27.95,0.89-41.92c0.01-0.65,0.18-1.3,0.15-1.95c-0.21-4.36,0.45-4.01,4.48-4.54c1.29-0.17,2.6-0.23,3.89-0.44
		c1.69-0.27,2.27,0.51,2.23,2.07c-0.14,5.81-0.27,11.62-0.41,17.43c-0.12,4.83-0.24,9.66-0.38,14.49
		c-0.18,6.59-0.32,13.18-0.59,19.77c-0.31,7.46-4.58,11.68-12.42,12.49c-2.92,0.3-5.84,0.65-8.75,1.03
		c-6.2,0.81-10.38-2.73-10.26-9.01c0.32-16.58,0.77-33.16,1.13-49.74C226.4,92.12,226.33,88.54,226.33,84.68z M104.59,222.85
		c1.48-0.33,1.99,0.24,2.32,1.7c1.27,5.66,2.79,11.26,4.05,16.92c0.37,1.66,1.17,1.95,2.62,1.73c2.06-0.31,4.14-0.52,6.21-0.77
		c2.16-0.27,2.45-0.68,1.94-2.8c-1.42-5.89-2.82-11.79-4.29-17.67c-0.27-1.1-0.13-1.75,0.86-2.45c2.65-1.87,4.25-4.57,4.42-7.75
		c0.41-7.76,0.66-15.52,0.78-23.29c0.1-6.63-3.99-10.05-10.62-9.23c-5.96,0.74-11.92,1.44-17.88,2.12c-3.56,0.41-3.56,0.38-3.7,3.94
		c-0.04,0.98-0.14,1.95-0.17,2.93c-0.28,11.43-0.56,22.85-0.83,34.28c-0.17,7.18-0.29,14.37-0.47,21.55
		c-0.03,1.32,0.35,2.01,1.77,1.82c2.2-0.29,4.39-0.65,6.6-0.82c1.88-0.15,2.53-0.98,2.55-2.88c0.05-6.26,0.27-12.52,0.42-18.85
		C102.42,223.17,103.52,223.09,104.59,222.85z M101.8,197.27c0.01-1.63,0.03-3.26,0.21-4.88c0.05-0.46,0.61-1.15,1.02-1.22
		c2.18-0.37,4.38-0.64,6.58-0.83c2.12-0.18,3.03,0.68,2.99,2.82c-0.09,5.02-0.24,10.03-0.38,15.05c-0.05,1.6-0.78,2.89-2.37,3.19
		c-2.66,0.5-5.38,0.74-8.07,1.09C101.79,207.15,101.77,202.21,101.8,197.27z M156.53,235.84c0.18,1.15,0.47,2.05,1.93,1.84
		c2.32-0.33,4.64-0.71,6.98-0.88c1.86-0.14,2.3-1.01,1.97-2.69c-3.78-19.44-7.54-38.88-11.27-58.33c-0.25-1.31-0.74-1.79-2.08-1.6
		c-3.1,0.43-6.2,0.86-9.32,1.11c-1.73,0.14-2.4,0.91-2.79,2.57c-3.13,13.58-6.35,27.13-9.55,40.69c-2.9,12.3-5.78,24.6-8.69,36.9
		c-0.36,1.52,0.09,2.11,1.66,1.85c1.41-0.23,2.84-0.41,4.26-0.59c5.43-0.7,4.32,0.31,5.66-5.31c1.79-7.54,3.46-15.11,5.25-22.65
		c0.16-0.69,0.78-1.72,1.3-1.8c4.24-0.63,8.51-1.08,12.92-1.59C155.37,228.93,155.98,232.38,156.53,235.84z M143.18,217.29
		c1.8-9.02,3.56-17.82,5.32-26.62c0.15,0,0.31,0.01,0.46,0.01c1.34,8.41,2.68,16.83,4.05,25.41
		C149.75,216.49,146.62,216.87,143.18,217.29z M173.69,227.76c0,1.96,0.08,3.92-0.03,5.87c-0.09,1.61,0.51,2.07,2.06,1.87
		c6.4-0.84,12.82-1.51,19.21-2.42c6.35-0.91,10.27-5.34,10.56-11.71c0.16-3.58,0.24-7.17,0.33-10.76
		c0.27-10.44,0.49-20.88,0.79-31.32c0.19-6.63-3.63-10.95-9.59-10.36c-6.55,0.65-13.08,1.58-19.63,2.31
		c-1.72,0.19-2.32,1.03-2.35,2.68c-0.38,17.95-0.79,35.9-1.19,53.85C173.8,227.76,173.75,227.76,173.69,227.76z M185.8,181.01
		c2.35-0.31,4.53-0.66,6.72-0.87c2.6-0.25,3.36,0.44,3.32,3.02c-0.12,7.56-0.29,15.12-0.47,22.68c-0.1,4.43-0.24,8.86-0.38,13.29
		c-0.07,2.27-1,3.41-3.19,3.71c-2.25,0.32-4.52,0.53-7.05,0.82C185.1,209.36,185.45,195.24,185.8,181.01z M233.41,212.88
		c0,2.03-0.05,4.05,0.01,6.07c0.12,3.93,2.24,7.02,5.65,7.79c1.81,0.41,3.76,0.43,5.62,0.3c2.86-0.2,5.69-0.73,8.54-1.03
		c6.98-0.74,11.24-4.95,11.6-11.97c0.38-7.36,0.5-14.74,0.68-22.11c0.17-7.18,0.39-14.36,0.38-21.54c-0.01-5.61-3.3-8.82-8.84-8.64
		c-3.64,0.12-7.26,0.71-10.89,1.12c-7.5,0.85-11.63,5.22-11.85,12.8c-0.35,12.4-0.59,24.79-0.87,37.19
		C233.43,212.88,233.42,212.88,233.41,212.88z M244.87,177.6c0.08-3.36,0.84-4.2,4.22-4.6c1.23-0.15,2.46-0.35,3.69-0.41
		c2.02-0.09,2.9,0.78,2.84,2.8c-0.31,12.21-0.63,24.42-0.98,36.62c-0.07,2.31-0.87,3.31-2.99,3.68c-1.67,0.29-3.37,0.39-5.05,0.56
		c-1.77,0.17-2.52-0.82-2.61-2.42c-0.06-1.11-0.01-2.22-0.01-3.33c0.04,0,0.08,0,0.11,0C244.35,199.54,244.61,188.57,244.87,177.6z
		 M154.15,106.63c0-1.37-0.02-2.75,0.01-4.12c0.04-1.58-0.75-2.08-2.23-1.88c-2,0.28-4.01,0.54-6.02,0.73
		c-1.8,0.18-2.64,1.03-2.66,2.91c-0.05,4.83-0.23,9.66-0.35,14.49c-0.12,4.7-0.23,9.4-0.34,14.1c-0.17,7.64-0.53,15.28-0.45,22.91
		c0.07,6.44,4.21,9.62,10.68,8.78c2.78-0.36,5.57-0.67,8.36-0.95c7.88-0.81,12.22-5.11,12.55-12.64c0.2-4.43,0.24-8.88,0.35-13.31
		c0.11-4.7,0.22-9.4,0.32-14.1c0.18-7.9,0.35-15.8,0.54-23.7c0.03-1.38-0.66-1.88-1.97-1.71c-2.14,0.27-4.27,0.57-6.41,0.77
		c-1.55,0.15-2.13,0.98-2.16,2.46c-0.21,8.75-0.47,17.49-0.68,26.24c-0.18,7.25-0.31,14.5-0.49,21.74c-0.05,2.15-1.01,3.27-3.1,3.64
		c-1.28,0.23-2.58,0.38-3.88,0.47c-2.42,0.18-3.25-0.56-3.23-2.97c0.03-2.61,0.21-5.22,0.26-7.83c0.27-12.01,0.52-24.02,0.78-36.04
		C154.08,106.63,154.12,106.63,154.15,106.63z M206.35,147.77c0.5,2.82,1.01,5.64,1.46,8.48c0.18,1.13,0.7,1.59,1.85,1.42
		c2.39-0.35,4.78-0.69,7.17-0.94c1.6-0.17,2.08-0.78,1.74-2.45c-1.81-9.07-3.5-18.16-5.23-27.25c-1.97-10.3-3.97-20.59-5.91-30.9
		c-0.3-1.58-0.96-2.2-2.64-1.94c-2.9,0.46-5.81,0.85-8.74,1.04c-1.94,0.13-2.63,1.08-3.02,2.84c-3.28,14.55-6.64,29.07-9.98,43.61
		c-1.34,5.84-2.72,11.67-4.06,17.51c-0.43,1.89-0.08,2.25,1.82,2.01c2.26-0.29,4.52-0.62,6.79-0.85c1.37-0.14,2.03-0.77,2.27-2.18
		c0.54-3.21,1.31-6.38,1.88-9.58c0.2-1.15,0.63-1.69,1.84-1.81c4.02-0.41,8.03-0.93,12.27-1.43
		C206.05,146.25,206.22,147.01,206.35,147.77z M194.35,137.25c1.82-9.16,3.6-18.05,5.37-26.94c0.11-0.01,0.22-0.01,0.33-0.02
		c1.36,8.54,2.72,17.09,4.11,25.8C200.75,136.49,197.74,136.85,194.35,137.25z M102.03,161.57c0.22,4.89,3.47,8.15,8.36,7.91
		c4.61-0.22,9.24-0.74,13.77-1.58c4.77-0.89,8.1-3.93,8.88-8.78c0.65-4.09,0.54-8.31,0.64-12.48c0.01-0.33-0.96-1.01-1.44-0.98
		c-2.34,0.15-4.66,0.56-7,0.74c-1.52,0.12-2.05,0.87-2.03,2.28c0.02,1.83,0.03,3.66-0.04,5.49c-0.09,2.3-1.01,3.33-3.23,3.7
		c-1.22,0.2-2.46,0.31-3.69,0.47c-2.43,0.31-3.32-0.4-3.29-2.8c0.06-4.11,0.21-8.22,0.3-12.33c0.17-7.9,0.32-15.8,0.51-23.7
		c0.06-2.37,1-3.42,3.35-3.79c1.29-0.21,2.58-0.39,3.87-0.53c1.98-0.22,2.98,0.63,3,2.63c0.02,2.02-0.07,4.05-0.12,6.07
		c-0.03,1.07,0.27,1.83,1.55,1.66c2.39-0.3,4.79-0.62,7.18-0.91c1.24-0.15,1.84-0.8,1.84-2.07c0-3.53,0.18-7.06,0.04-10.58
		c-0.17-4.4-3.05-7.42-7.28-7.85c-1.29-0.13-2.62-0.08-3.91,0.06c-2.66,0.28-5.3,0.71-7.96,1.02c-8.27,0.95-12.21,5.14-12.44,13.48
		c-0.34,12.01-0.59,24.02-0.88,36.41C102.01,157,101.93,159.29,102.03,161.57z M226.04,174.48c0-2.35-0.05-4.7,0.02-7.05
		c0.04-1.4-0.34-2.08-1.9-1.85c-2.45,0.36-4.94,0.49-7.37,0.96c-0.61,0.12-1.36,1.13-1.47,1.83c-0.27,1.66-0.21,3.38-0.25,5.08
		c-0.21,9.66-0.4,19.33-0.62,28.99c-0.2,8.75-0.43,17.5-0.68,26.24c-0.04,1.29,0.12,2.23,1.78,2.01c2.33-0.32,4.66-0.62,6.99-0.87
		c1.51-0.16,2.11-0.9,2.13-2.44c0.06-4.7,0.25-9.4,0.36-14.1c0.29-12.93,0.57-25.86,0.85-38.79
		C225.94,174.47,225.99,174.48,226.04,174.48z M268.74,148.78c7.87-4.84,15.73-9.68,23.8-14.63c-0.25,5.28-0.49,10.25-0.75,15.75
		c15.32-13.07,30.23-25.79,45.14-38.51c-0.09-0.13-0.19-0.26-0.28-0.38c-12.76,8.56-25.53,17.11-38.67,25.93
		c0.72-5.73,1.37-10.93,2.09-16.66c-10.78,9.66-21.16,18.96-31.55,28.27C268.59,148.62,268.67,148.7,268.74,148.78z M84.67,171.96
		c-10.75-8.53-21.49-17.06-32.7-25.96c1.07,5.79,2.03,10.95,3.06,16.49c-13.63-8.01-26.93-15.82-40.23-23.63
		c-0.08,0.13-0.16,0.26-0.24,0.39c15.71,11.86,31.41,23.72,47.43,35.82c-0.58-5.38-1.1-10.32-1.68-15.67
		c8.31,4.45,16.21,8.68,24.1,12.91C84.5,172.2,84.59,172.08,84.67,171.96z M270.82,132.52c0.08,0.07,0.17,0.15,0.25,0.22
		c8.32-8.48,16.65-16.96,25.17-25.65c-3.61-1.22-6.91-2.34-10.49-3.55c15.28-14.33,30.38-28.49,45.48-42.66
		c-0.08-0.09-0.16-0.18-0.24-0.27c-18.29,15.08-36.57,30.15-55.15,45.47c4.23,1.04,8.05,1.97,12.18,2.99
		C282.15,117.09,276.48,124.8,270.82,132.52z M27.8,92.6c-0.09,0.12-0.17,0.23-0.26,0.35c15.59,12.96,31.17,25.93,46.97,39.07
		c-3.55,1.45-6.76,2.76-10.25,4.18c8.82,7.98,17.42,15.75,26.01,23.52c0.1-0.11,0.21-0.21,0.31-0.32
		c-5.96-7.19-11.92-14.38-18.01-21.73c4.13-1.27,7.86-2.42,11.99-3.69C65.43,120.03,46.62,106.31,27.8,92.6z M329.31,180.94
		c-11.11-4.82-22.22-9.64-33.48-14.52c1.84-2.24,3.47-4.21,5.32-6.45c-10.93-1.25-21.41-2.45-31.9-3.65
		c-0.03,0.11-0.05,0.21-0.08,0.32c7.56,2.44,15.12,4.88,22.9,7.4c-1.82,1.95-3.38,3.63-5.12,5.5c14.33,3.95,28.3,7.8,42.27,11.66
		C329.25,181.11,329.28,181.03,329.31,180.94z M25.98,211.94c13.56-4.62,27.12-9.25,40.96-13.97c-1.94-1.82-3.63-3.41-5.51-5.17
		c7.63-2.98,15.06-5.87,22.49-8.77c-0.04-0.1-0.08-0.21-0.12-0.31c-10.43,1.83-20.86,3.67-31.63,5.56c1.99,2.15,3.74,4.05,5.66,6.13
		c-10.74,5.44-21.37,10.82-31.99,16.19C25.89,211.72,25.94,211.83,25.98,211.94z"/>
</g>
</svg>
