<?xml version="1.0" encoding="utf-8"?>
<!-- Generator: Adobe Illustrator 27.0.0, SVG Export Plug-In . SVG Version: 6.00 Build 0)  -->
<svg version="1.1" id="Layer_1" xmlns="http://www.w3.org/2000/svg" xmlns:xlink="http://www.w3.org/1999/xlink" x="0px" y="0px"
	 viewBox="0 0 359.8 452" style="enable-background:new 0 0 359.8 452;" xml:space="preserve">
<style type="text/css">
	.st0{fill:#FFFFFF;}
	.st1{fill:none;}
</style>
<g>
	<path class="st0" d="M92.9,391.1V368c0-0.2,0.1-0.4,0.3-0.4h9.2c4.5,0,7.3,1.8,8.5,5.4c0.5,1.5,0.7,3.6,0.7,6.5s-0.2,5-0.7,6.5
		c-1.2,3.6-4,5.4-8.5,5.4h-9.2C93,391.4,92.9,391.3,92.9,391.1z M99.1,385.8c0,0.1,0.1,0.2,0.2,0.2h1.9c1.1,0,2-0.2,2.6-0.5
		s1.1-0.9,1.3-1.8c0.2-0.8,0.3-2.2,0.3-4.2s-0.1-3.4-0.3-4.2c-0.3-0.8-0.7-1.4-1.3-1.8c-0.6-0.4-1.5-0.5-2.6-0.5h-1.9
		c-0.1,0-0.2,0.1-0.2,0.2V385.8z"/>
	<path class="st0" d="M116.8,391.1V368c0-0.2,0.1-0.4,0.3-0.4h15.6c0.2,0,0.4,0.1,0.4,0.4v4.5c0,0.2-0.1,0.4-0.4,0.4h-9.6
		c-0.1,0-0.2,0.1-0.2,0.2v3.6c0,0.1,0.1,0.2,0.2,0.2h7.8c0.2,0,0.4,0.1,0.4,0.4v4.4c0,0.2-0.1,0.4-0.4,0.4h-7.8
		c-0.1,0-0.2,0.1-0.2,0.2v3.8c0,0.1,0.1,0.2,0.2,0.2h9.6c0.2,0,0.4,0.1,0.4,0.4v4.5c0,0.2-0.1,0.4-0.4,0.4h-15.6
		C116.9,391.4,116.8,391.3,116.8,391.1z"/>
	<path class="st0" d="M143.9,391.4h-5.5c-0.2,0-0.4-0.1-0.4-0.4V368c0-0.2,0.1-0.4,0.4-0.4h9.5c2.8,0,5,0.7,6.5,2.2s2.3,3.4,2.3,5.8
		c0,2.4-0.8,4.3-2.3,5.8s-3.7,2.2-6.5,2.2h-3.5c-0.1,0-0.2,0.1-0.2,0.2v7.4C144.2,391.3,144.1,391.4,143.9,391.4z M147.6,378.3
		c1,0,1.7-0.2,2.2-0.7s0.8-1.2,0.8-2s-0.3-1.5-0.8-2s-1.3-0.7-2.2-0.7h-3.1c-0.1,0-0.2,0.1-0.2,0.2v5c0,0.1,0.1,0.2,0.2,0.2
		L147.6,378.3L147.6,378.3z"/>
	<path class="st0" d="M176,390.4c-1.6,1-3.5,1.5-5.6,1.5s-4.1-0.5-5.6-1.5c-1.6-1-2.7-2.5-3.3-4.4c-0.5-1.5-0.7-3.7-0.7-6.5
		s0.2-5,0.7-6.5c0.6-1.9,1.7-3.3,3.3-4.4c1.6-1,3.5-1.5,5.6-1.5s4.1,0.5,5.6,1.5c1.6,1,2.7,2.5,3.3,4.4c0.5,1.4,0.7,3.6,0.7,6.5
		s-0.2,5.1-0.7,6.5C178.7,387.9,177.6,389.4,176,390.4z M170.3,386.4c1.6,0,2.6-0.7,3.1-2.1c0.2-0.7,0.4-2.2,0.4-4.7s-0.1-4-0.4-4.7
		c-0.4-1.4-1.5-2.1-3.1-2.1s-2.6,0.7-3.1,2.1c-0.2,0.7-0.4,2.2-0.4,4.7s0.1,4,0.4,4.7C167.7,385.7,168.7,386.4,170.3,386.4z"/>
	<path class="st0" d="M203.9,391.4h-6.1c-0.3,0-0.4-0.1-0.5-0.4l-3.6-8.1h-2.3c-0.1,0-0.2,0.1-0.2,0.2v7.9c0,0.2-0.1,0.4-0.4,0.4
		h-5.5c-0.2,0-0.4-0.1-0.4-0.4V368c0-0.2,0.1-0.4,0.4-0.4h9.7c2.7,0,4.8,0.7,6.3,2.1s2.3,3.3,2.3,5.5c0,1.5-0.3,2.8-1,4
		c-0.7,1.2-1.6,2-2.9,2.7l4.4,9.1c0.1,0.1,0.1,0.2,0,0.3C204.1,391.4,204,391.4,203.9,391.4z M194.7,377.9c0.9,0,1.6-0.2,2.1-0.7
		c0.5-0.5,0.8-1.1,0.8-1.8s-0.2-1.4-0.8-1.8s-1.2-0.7-2.1-0.7h-3.3c-0.1,0-0.2,0.1-0.2,0.2v4.6c0,0.1,0.1,0.2,0.2,0.2L194.7,377.9
		L194.7,377.9z"/>
	<path class="st0" d="M219.5,391.4H214h-0.1c-0.1,0-0.1,0-0.2-0.1c-0.1,0-0.1-0.1-0.1-0.1v-0.1v-17.8c0-0.1-0.1-0.2-0.2-0.2h0h-5.9
		h-0.1c-0.1,0-0.1,0-0.1-0.1l0,0c0,0,0,0,0,0c0,0,0-0.1,0-0.2V368c0-0.2,0.1-0.3,0.2-0.4h0.1h18.3c0.1,0,0.2,0,0.2,0.1
		c0,0,0,0,0,0.1c0.1,0,0.1,0.1,0.1,0.2v4.8c0,0.1,0,0.2-0.1,0.3c-0.1,0-0.1,0.1-0.2,0.1h-0.1h-5.9c-0.1,0-0.1,0-0.1,0l-0.1,0.1v0.1
		v17.8v0.1c0,0.1-0.1,0.1-0.2,0.2C219.6,391.4,219.6,391.4,219.5,391.4z"/>
	<path class="st0" d="M230.4,391.1V368c0-0.2,0.1-0.4,0.4-0.4h15.6c0.2,0,0.4,0.1,0.4,0.4v4.5c0,0.2-0.1,0.4-0.4,0.4h-9.6
		c-0.1,0-0.2,0.1-0.2,0.2v3.6c0,0.1,0.1,0.2,0.2,0.2h7.9c0.2,0,0.4,0.1,0.4,0.4v4.4c0,0.2-0.1,0.4-0.4,0.4h-7.9
		c-0.1,0-0.2,0.1-0.2,0.2v3.8c0,0.1,0.1,0.2,0.2,0.2h9.6c0.2,0,0.4,0.1,0.4,0.4v4.5c0,0.2-0.1,0.4-0.4,0.4h-15.6
		C230.5,391.4,230.4,391.3,230.4,391.1z"/>
	<path class="st0" d="M260.2,391.9c-1.9,0-3.7-0.3-5.5-1c-1.8-0.7-3.2-1.5-4.1-2.4c-0.2-0.2-0.2-0.4,0-0.6l3.1-3.7
		c0.2-0.2,0.3-0.2,0.5,0c1.8,1.6,3.8,2.4,6.1,2.4c1.1,0,1.9-0.2,2.5-0.6c0.6-0.4,0.9-1,0.9-1.6c0-0.5-0.2-1-0.7-1.3
		c-0.4-0.3-1.2-0.6-2.4-0.7l-1.3-0.2c-5.3-0.8-8-3.2-8-7.5c0-2.2,0.8-4,2.4-5.4c1.6-1.4,3.8-2,6.5-2c3.4,0,6.2,0.9,8.5,2.6
		c0.2,0.1,0.2,0.3,0.1,0.5l-2.6,3.8c-0.1,0.2-0.3,0.2-0.5,0.1c-1.8-1.2-3.6-1.8-5.4-1.8c-0.8,0-1.5,0.2-2,0.5
		c-0.5,0.4-0.7,0.9-0.7,1.5c0,0.5,0.2,1,0.7,1.3s1.2,0.6,2.4,0.7l1.3,0.2c2.6,0.4,4.6,1.2,5.9,2.4s2,3,2,5.2c0,2.3-0.9,4.1-2.5,5.5
		C265.7,391.2,263.3,391.9,260.2,391.9z"/>
</g>
<path class="st0" d="M253.3,422c-4.6,6.4-9.3,12.7-13.9,19.1c-1.3,1.8-3.6,1.9-5.5,2.5c-4.5,1.4-9,2.7-13.6,3.7
	c-5.7,1.2-11.6,2.2-17.4,3.2c-3.1,0.5-6.3,0.9-9.5,1.1c-6,0.3-12,0.4-17.9,0.4c-4.6,0-9.1-0.3-13.6-0.7c-4.3-0.4-8.6-1.3-12.9-1.6
	c-4.4-0.3-6.6-3.6-9.3-6.1c-4.2-3.9-8.2-8-12.2-12c-0.4-0.4-0.7-0.9-1.1-1.4c2.3-0.9,4.4-1.6,6.5-2.4c3.8-1.5,7.5-2.9,11.3-4.4
	c5.3-2.2,10.7-4.4,15.9-6.8c5.2-2.4,10.3-4.9,15.4-7.5c2.6-1.3,5.1-2.7,7.7-4.1h13.5c8.4,3,16.8,5.7,25.4,8.1
	c5.7,1.5,11.3,3.1,17,4.5c4.5,1.1,9.1,2,13.6,2.9C254,420.6,254,421,253.3,422z M227.4,132c6.9,8.6,13.1,17.7,19.6,26.7
	c0.6,0.8,1.2,1.4,2.3,1.6c2.8,0.4,5.6,0.8,8.3,1.3c4.7,0.8,9.4,1.4,14.1,2.4c5.8,1.1,11.5,2.4,17.2,3.7c5.9,1.4,11.8,3,17.6,4.5
	l7.1-5.9c-0.8-5.9-1.6-11.7-2.5-17.6c-0.1-0.5-0.3-1-0.7-1.3c-5.1-4.8-10.1-9.6-15.3-14.2c-8.6-7.5-18.1-13.8-28.1-19.4
	c-10.3-5.7-21.1-10.3-32.2-14c-2.1-0.7-4.1-1.1-6.3-0.3c-5.8,2-11.7,3.8-17.5,5.7c-1.7,0.6-3.4,1.3-5.4,2c0.6,0.7,1,1.1,1.4,1.5
	C213.8,116.4,221,123.9,227.4,132z M30.7,186.8c0-5.4,0.1-10.7,0.1-16.1c0-1.4,0.2-2.6,1.1-3.8c4.3-5.3,8.3-10.9,12.8-15.9
	c10.4-11.7,22-21.9,35.2-30.4c6.6-4.2,13.6-7.9,20.3-11.9c1.7-1,3.5-0.6,5.2-0.3c5.1,0.8,10.1,1.6,15.1,2.5c2.6,0.5,5.2,1.1,8.1,1.7
	c-1.1,1.6-1.9,3-2.8,4.3c-10.3,15.2-19.4,31-27.8,47.3c-1,1.9-2,3.8-2.8,5.8c-0.5,1.2-1.3,1.8-2.6,2.1c-5,1.4-9.9,2.9-14.8,4.5
	c-5.1,1.7-10.2,3.4-15.2,5.2c-4.5,1.6-8.9,3.4-13.2,5.2c-3.7,1.5-7.4,3.1-11.1,4.7l-7-5.1L30.7,186.8z M25.9,310.6L25.9,310.6
	c0,0.1,0.1,0.2,0.1,0.3C25.9,310.8,25.9,310.7,25.9,310.6z M60.5,387.4c0.1,1-0.1,1.4-1.2,1c-6.3-2-12.7-4-19-6
	c-0.6-0.2-1.2-0.5-1.9-0.6c-3.9-0.7-5.2-4.1-7.2-6.8c-5.2-7.1-9.6-14.7-13.5-22.5c-3.8-7.5-7.2-15.2-9.6-23.2
	c-2.1-7.1-4.1-14.2-5.9-21.4c-0.9-3.4-1.2-6.9-2-11.4c-1.3-2.9,1.3-5.9,2.8-8.9c2.6-5.1,5.4-10.1,8.1-15.1c1-1.9,1.2-1.8,2.6-0.2
	c7,8.4,13.8,17,21.1,25.1c0.4,0.5,0.8,0.9,1.3,1.4l-13,6.6l-2.8,7.6l0.1,0.2l0,0.1l7.5,3.4l19.3-6.6c3.3,3.3,6.6,6.5,9.8,9.9
	c0.5,0.5,0.8,1.4,0.8,2.2c0,4.7-0.1,9.3-0.1,14c0,3.5-0.1,7.1,0.1,10.6c0.4,9.3,0.9,18.5,1.5,27.8C59.5,378.8,60.1,383.1,60.5,387.4
	z M359.8,269.3c-0.1,6-0.2,12-0.7,17.9c-0.5,5.5-1.3,11-2.2,16.4c-0.8,4.7-1.7,9.5-3,14.1c-2.1,7.1-4.4,14.3-7.1,21.2
	c-2.5,6.4-5.8,12.5-8.8,18.7c-0.4,0.8-1.1,1.5-1.9,1.9c-6.4,3.4-12.9,6.7-19.3,10c-0.9,0.4-1.7,0.8-2.9,1.4
	c-0.2-2.5-0.4-4.7-0.5-6.9c-0.4-6.5-0.9-13-1.3-19.5c-0.7-10-2-19.9-3.8-29.7c-0.6-3.6-1.4-7.1-1.9-10.7c-0.1-0.7,0.2-1.6,0.6-2.2
	c4.4-6,9.1-11.9,13.4-17.9l7.3,2l7.2-3.7l0.1-0.3l-3.2-7.6l-3.9-1.7c3.2-5.1,6.4-10.2,9.5-15.4c2-3.3,3.7-6.7,5.6-10.1
	c0.2-0.4,0.5-0.7,1-1.4c1.2,1.5,2.4,2.9,3.5,4.4c3.9,5.4,7.8,10.9,11.6,16.4C359.5,267.3,359.8,268.4,359.8,269.3z"/>
<g>
	<path class="st0" d="M226.3,183.7c-5.2,0.6-10.2,1.2-15.2,1.8c-9.1,1.1-18.3,2.2-27.4,3.4c-9,1.1-18,2.2-27,3.3
		c-6.6,0.8-13.2,1.7-19.8,2.5c-1.3,0.2-2-0.3-2-1.7c0-2.3,0.1-4.6,0.1-6.9c0-1.3,0.8-2.1,2.1-2.2c8.6-1.1,17.2-2.1,25.8-3.2
		c9.1-1.1,18.1-2.2,27.2-3.3c9.2-1.1,18.4-2.2,27.6-3.4c5.8-0.7,11.5-1.4,17.3-2.1c2.1-0.3,2.6,0.2,2.6,2.2
		c-0.3,11.6-0.5,23.2-0.8,34.9c-0.2,10-0.5,20-0.8,30c-0.1,2.9,0.7,3.6,3.6,3.4c6.3-0.6,6.6-1,6.7-7.2c0.3-14,0.6-27.9,0.9-41.9
		c0-0.6,0.2-1.3,0.1-1.9c-0.2-4.4,0.4-4,4.5-4.5c1.3-0.2,2.6-0.2,3.9-0.4c1.7-0.3,2.3,0.5,2.2,2.1c-0.1,5.8-0.3,11.6-0.4,17.4
		c-0.1,4.8-0.2,9.7-0.4,14.5c-0.2,6.6-0.3,13.2-0.6,19.8c-0.3,7.5-4.6,11.7-12.4,12.5c-2.9,0.3-5.8,0.6-8.8,1
		c-6.2,0.8-10.4-2.7-10.3-9c0.3-16.6,0.8-33.2,1.1-49.7C226.4,191.1,226.3,187.5,226.3,183.7z M104.6,321.8c1.5-0.3,2,0.2,2.3,1.7
		c1.3,5.7,2.8,11.3,4.1,16.9c0.4,1.7,1.2,2,2.6,1.7c2.1-0.3,4.1-0.5,6.2-0.8c2.2-0.3,2.4-0.7,1.9-2.8c-1.4-5.9-2.8-11.8-4.3-17.7
		c-0.3-1.1-0.1-1.8,0.9-2.4c2.7-1.9,4.2-4.6,4.4-7.8c0.4-7.8,0.7-15.5,0.8-23.3c0.1-6.6-4-10-10.6-9.2c-6,0.7-11.9,1.4-17.9,2.1
		c-3.6,0.4-3.6,0.4-3.7,3.9c0,1-0.1,1.9-0.2,2.9c-0.3,11.4-0.6,22.9-0.8,34.3c-0.2,7.2-0.3,14.4-0.5,21.5c0,1.3,0.3,2,1.8,1.8
		c2.2-0.3,4.4-0.6,6.6-0.8c1.9-0.1,2.5-1,2.6-2.9c0.1-6.3,0.3-12.5,0.4-18.9C102.4,322.2,103.5,322.1,104.6,321.8z M101.8,296.3
		c0-1.6,0-3.3,0.2-4.9c0.1-0.5,0.6-1.1,1-1.2c2.2-0.4,4.4-0.6,6.6-0.8c2.1-0.2,3,0.7,3,2.8c-0.1,5-0.2,10-0.4,15.1
		c-0.1,1.6-0.8,2.9-2.4,3.2c-2.7,0.5-5.4,0.7-8.1,1.1C101.8,306.1,101.8,301.2,101.8,296.3z M156.5,334.8c0.2,1.1,0.5,2.1,1.9,1.8
		c2.3-0.3,4.6-0.7,7-0.9c1.9-0.1,2.3-1,2-2.7c-3.8-19.4-7.5-38.9-11.3-58.3c-0.2-1.3-0.7-1.8-2.1-1.6c-3.1,0.4-6.2,0.9-9.3,1.1
		c-1.7,0.1-2.4,0.9-2.8,2.6c-3.1,13.6-6.4,27.1-9.6,40.7c-2.9,12.3-5.8,24.6-8.7,36.9c-0.4,1.5,0.1,2.1,1.7,1.9
		c1.4-0.2,2.8-0.4,4.3-0.6c5.4-0.7,4.3,0.3,5.7-5.3c1.8-7.5,3.5-15.1,5.2-22.6c0.2-0.7,0.8-1.7,1.3-1.8c4.2-0.6,8.5-1.1,12.9-1.6
		C155.4,327.9,156,331.4,156.5,334.8z M143.2,316.3c1.8-9,3.6-17.8,5.3-26.6c0.1,0,0.3,0,0.5,0c1.3,8.4,2.7,16.8,4.1,25.4
		C149.8,315.5,146.6,315.9,143.2,316.3z M173.7,326.8c0,2,0.1,3.9,0,5.9c-0.1,1.6,0.5,2.1,2.1,1.9c6.4-0.8,12.8-1.5,19.2-2.4
		c6.4-0.9,10.3-5.3,10.6-11.7c0.2-3.6,0.2-7.2,0.3-10.8c0.3-10.4,0.5-20.9,0.8-31.3c0.2-6.6-3.6-10.9-9.6-10.4
		c-6.6,0.6-13.1,1.6-19.6,2.3c-1.7,0.2-2.3,1-2.4,2.7c-0.4,17.9-0.8,35.9-1.2,53.8C173.8,326.8,173.8,326.8,173.7,326.8z M185.8,280
		c2.4-0.3,4.5-0.7,6.7-0.9c2.6-0.2,3.4,0.4,3.3,3c-0.1,7.6-0.3,15.1-0.5,22.7c-0.1,4.4-0.2,8.9-0.4,13.3c-0.1,2.3-1,3.4-3.2,3.7
		c-2.2,0.3-4.5,0.5-7.1,0.8C185.1,308.4,185.4,294.2,185.8,280z M233.4,311.9c0,2-0.1,4.1,0,6.1c0.1,3.9,2.2,7,5.6,7.8
		c1.8,0.4,3.8,0.4,5.6,0.3c2.9-0.2,5.7-0.7,8.5-1c7-0.7,11.2-4.9,11.6-12c0.4-7.4,0.5-14.7,0.7-22.1c0.2-7.2,0.4-14.4,0.4-21.5
		c0-5.6-3.3-8.8-8.8-8.6c-3.6,0.1-7.3,0.7-10.9,1.1c-7.5,0.9-11.6,5.2-11.9,12.8C234,287.1,233.7,299.5,233.4,311.9
		C233.4,311.9,233.4,311.9,233.4,311.9z M244.9,276.6c0.1-3.4,0.8-4.2,4.2-4.6c1.2-0.1,2.5-0.4,3.7-0.4c2-0.1,2.9,0.8,2.8,2.8
		c-0.3,12.2-0.6,24.4-1,36.6c-0.1,2.3-0.9,3.3-3,3.7c-1.7,0.3-3.4,0.4-5.1,0.6c-1.8,0.2-2.5-0.8-2.6-2.4c-0.1-1.1,0-2.2,0-3.3
		c0,0,0.1,0,0.1,0C244.4,298.5,244.6,287.6,244.9,276.6z M154.1,205.6c0-1.4,0-2.8,0-4.1c0-1.6-0.8-2.1-2.2-1.9c-2,0.3-4,0.5-6,0.7
		c-1.8,0.2-2.6,1-2.7,2.9c-0.1,4.8-0.2,9.7-0.4,14.5c-0.1,4.7-0.2,9.4-0.3,14.1c-0.2,7.6-0.5,15.3-0.4,22.9
		c0.1,6.4,4.2,9.6,10.7,8.8c2.8-0.4,5.6-0.7,8.4-1c7.9-0.8,12.2-5.1,12.6-12.6c0.2-4.4,0.2-8.9,0.4-13.3c0.1-4.7,0.2-9.4,0.3-14.1
		c0.2-7.9,0.4-15.8,0.5-23.7c0-1.4-0.7-1.9-2-1.7c-2.1,0.3-4.3,0.6-6.4,0.8c-1.6,0.2-2.1,1-2.2,2.5c-0.2,8.8-0.5,17.5-0.7,26.2
		c-0.2,7.2-0.3,14.5-0.5,21.7c-0.1,2.1-1,3.3-3.1,3.6c-1.3,0.2-2.6,0.4-3.9,0.5c-2.4,0.2-3.2-0.6-3.2-3c0-2.6,0.2-5.2,0.3-7.8
		c0.3-12,0.5-24,0.8-36C154.1,205.6,154.1,205.6,154.1,205.6z M206.4,246.8c0.5,2.8,1,5.6,1.5,8.5c0.2,1.1,0.7,1.6,1.9,1.4
		c2.4-0.4,4.8-0.7,7.2-0.9c1.6-0.2,2.1-0.8,1.7-2.4c-1.8-9.1-3.5-18.2-5.2-27.2c-2-10.3-4-20.6-5.9-30.9c-0.3-1.6-1-2.2-2.6-1.9
		c-2.9,0.5-5.8,0.8-8.7,1c-1.9,0.1-2.6,1.1-3,2.8c-3.3,14.6-6.6,29.1-10,43.6c-1.3,5.8-2.7,11.7-4.1,17.5c-0.4,1.9-0.1,2.2,1.8,2
		c2.3-0.3,4.5-0.6,6.8-0.9c1.4-0.1,2-0.8,2.3-2.2c0.5-3.2,1.3-6.4,1.9-9.6c0.2-1.1,0.6-1.7,1.8-1.8c4-0.4,8-0.9,12.3-1.4
		C206.1,245.2,206.2,246,206.4,246.8z M194.4,236.2c1.8-9.2,3.6-18.1,5.4-26.9c0.1,0,0.2,0,0.3,0c1.4,8.5,2.7,17.1,4.1,25.8
		C200.8,235.5,197.7,235.8,194.4,236.2z M102,260.6c0.2,4.9,3.5,8.1,8.4,7.9c4.6-0.2,9.2-0.7,13.8-1.6c4.8-0.9,8.1-3.9,8.9-8.8
		c0.6-4.1,0.5-8.3,0.6-12.5c0-0.3-1-1-1.4-1c-2.3,0.1-4.7,0.6-7,0.7c-1.5,0.1-2.1,0.9-2,2.3c0,1.8,0,3.7,0,5.5
		c-0.1,2.3-1,3.3-3.2,3.7c-1.2,0.2-2.5,0.3-3.7,0.5c-2.4,0.3-3.3-0.4-3.3-2.8c0.1-4.1,0.2-8.2,0.3-12.3c0.2-7.9,0.3-15.8,0.5-23.7
		c0.1-2.4,1-3.4,3.3-3.8c1.3-0.2,2.6-0.4,3.9-0.5c2-0.2,3,0.6,3,2.6c0,2-0.1,4.1-0.1,6.1c0,1.1,0.3,1.8,1.6,1.7
		c2.4-0.3,4.8-0.6,7.2-0.9c1.2-0.2,1.8-0.8,1.8-2.1c0-3.5,0.2-7.1,0-10.6c-0.2-4.4-3.1-7.4-7.3-7.8c-1.3-0.1-2.6-0.1-3.9,0.1
		c-2.7,0.3-5.3,0.7-8,1c-8.3,0.9-12.2,5.1-12.4,13.5c-0.3,12-0.6,24-0.9,36.4C102,256,101.9,258.3,102,260.6z M226,273.5
		c0-2.4-0.1-4.7,0-7.1c0-1.4-0.3-2.1-1.9-1.9c-2.4,0.4-4.9,0.5-7.4,1c-0.6,0.1-1.4,1.1-1.5,1.8c-0.3,1.7-0.2,3.4-0.2,5.1
		c-0.2,9.7-0.4,19.3-0.6,29c-0.2,8.8-0.4,17.5-0.7,26.2c0,1.3,0.1,2.2,1.8,2c2.3-0.3,4.7-0.6,7-0.9c1.5-0.2,2.1-0.9,2.1-2.4
		c0.1-4.7,0.2-9.4,0.4-14.1c0.3-12.9,0.6-25.9,0.9-38.8C225.9,273.5,226,273.5,226,273.5z M268.7,247.8c7.9-4.8,15.7-9.7,23.8-14.6
		c-0.2,5.3-0.5,10.2-0.8,15.8c15.3-13.1,30.2-25.8,45.1-38.5c-0.1-0.1-0.2-0.3-0.3-0.4c-12.8,8.6-25.5,17.1-38.7,25.9
		c0.7-5.7,1.4-10.9,2.1-16.7c-10.8,9.7-21.2,19-31.5,28.3C268.6,247.6,268.7,247.7,268.7,247.8z M84.7,271
		c-10.8-8.5-21.5-17.1-32.7-26c1.1,5.8,2,10.9,3.1,16.5c-13.6-8-26.9-15.8-40.2-23.6c-0.1,0.1-0.2,0.3-0.2,0.4
		C30.3,250.1,46,262,62,274.1c-0.6-5.4-1.1-10.3-1.7-15.7c8.3,4.4,16.2,8.7,24.1,12.9C84.5,271.2,84.6,271.1,84.7,271z M270.8,231.5
		c0.1,0.1,0.2,0.1,0.2,0.2c8.3-8.5,16.6-17,25.2-25.6c-3.6-1.2-6.9-2.3-10.5-3.6c15.3-14.3,30.4-28.5,45.5-42.7
		c-0.1-0.1-0.2-0.2-0.2-0.3c-18.3,15.1-36.6,30.2-55.1,45.5c4.2,1,8,2,12.2,3C282.1,216.1,276.5,223.8,270.8,231.5z M27.8,191.6
		c-0.1,0.1-0.2,0.2-0.3,0.3c15.6,13,31.2,25.9,47,39.1c-3.6,1.4-6.8,2.8-10.2,4.2c8.8,8,17.4,15.8,26,23.5c0.1-0.1,0.2-0.2,0.3-0.3
		c-6-7.2-11.9-14.4-18-21.7c4.1-1.3,7.9-2.4,12-3.7C65.4,219,46.6,205.3,27.8,191.6z M329.3,279.9c-11.1-4.8-22.2-9.6-33.5-14.5
		c1.8-2.2,3.5-4.2,5.3-6.5c-10.9-1.2-21.4-2.4-31.9-3.6c0,0.1,0,0.2-0.1,0.3c7.6,2.4,15.1,4.9,22.9,7.4c-1.8,2-3.4,3.6-5.1,5.5
		c14.3,4,28.3,7.8,42.3,11.7C329.2,280.1,329.3,280,329.3,279.9z M26,310.9c13.6-4.6,27.1-9.2,41-14c-1.9-1.8-3.6-3.4-5.5-5.2
		c7.6-3,15.1-5.9,22.5-8.8c0-0.1-0.1-0.2-0.1-0.3c-10.4,1.8-20.9,3.7-31.6,5.6c2,2.1,3.7,4.1,5.7,6.1c-10.7,5.4-21.4,10.8-32,16.2
		C25.9,310.7,25.9,310.8,26,310.9z"/>
</g>
<rect x="0" class="st1" width="359.8" height="99"/>
</svg>
