<?xml version="1.0" encoding="utf-8"?>
<!-- Generator: Adobe Illustrator 27.0.0, SVG Export Plug-In . SVG Version: 6.00 Build 0)  -->
<svg version="1.1" id="Layer_1" xmlns="http://www.w3.org/2000/svg" xmlns:xlink="http://www.w3.org/1999/xlink" x="0px" y="0px"
	 viewBox="0 0 298.16 235.02" style="enable-background:new 0 0 298.16 235.02;" xml:space="preserve">
<style type="text/css">
	.st0{fill:#999794;}
	.st1{fill:#908C8A;}
	.st2{fill:#F3EEEB;}
	.st3{fill:#F0ECE7;}
	.st4{fill:#EEE9E6;}
	.st5{fill:#DBABB2;}
	.st6{fill:#FCF6F3;}
	.st7{fill:#E1DED9;}
	.st8{fill:#E6E1DD;}
	.st9{fill:#E9E5E1;}
	.st10{fill:#DAD3D1;}
	.st11{fill:#A5A2A0;}
	.st12{fill:#912335;}
	.st13{fill:#BCB8B6;}
	.st14{fill:#CCC8C6;}
	.st15{fill:#FFFFFF;}
</style>
<g>
	<g>
		<path class="st0" d="M38.65,145.69c1.08,4.59,1.75,9.22,1.86,13.95c0.02,1.05-0.1,2.08-0.1,3.12c-0.39,1.73-0.73,3.46-1.34,5.14
			c-0.78,2.16-1.99,4.04-3.48,5.75c-1.42,1.18-2.87,2.33-4.76,2.64c-2.42,0.4-4.71,0.12-6.69-1.5c-0.04-0.2-0.04-0.42-0.13-0.6
			c-1.57-3.14-1.85-6.56-2-9.98c-0.12-2.8,0.06-5.59,0.31-8.38c0.29-3.29,0.72-6.54,1.28-9.79c0.99-5.75,2.33-11.42,4.15-16.96
			c0.65-1.98,1.43-3.91,2.15-5.87c0.64,0.87,0.96,1.91,1.42,2.87c0.81,1.69,1.57,3.4,2.35,5.1c-0.08,0.12-0.18,0.23-0.23,0.37
			c-1.04,2.54-1.86,5.15-2.71,7.76c-1.37,4.17-2.28,8.45-2.61,12.81c-0.29,3.76,0.05,7.5,1.39,11.09c0.37,1.01,0.81,1.98,1.4,2.89
			c0.13,0.2,0.24,0.5,0.52,0.39c0.41-0.16,0.07-0.47,0.02-0.67c-0.1-0.4-0.32-0.77-0.43-1.17c-1.12-4.06-1.09-8.15-0.33-12.26
			c0.79-4.23,2.14-8.3,3.74-12.28c0.44-1.09,0.68-2.29,1.56-3.16C37.16,139.76,37.95,142.71,38.65,145.69z M51.98,96.4
			c-0.06-1.39-0.06-2.73-0.05-3.95c-2.02,4.09-4.04,8.19-6.07,12.28c-0.12,0.24-0.19,0.51-0.44,0.65c1.02,1.79,2.05,3.58,3.07,5.38
			c0.42-0.72,0.88-1.41,1.25-2.15c1.11-2.27,2.2-4.54,3.3-6.81C52.44,100.12,52.07,98.32,51.98,96.4z"/>
		<path class="st1" d="M33.44,131.53c-1.04,2.54-1.86,5.15-2.71,7.76c-1.37,4.17-2.28,8.45-2.61,12.81
			c-0.29,3.76,0.05,7.5,1.39,11.09c0.37,1.01,0.81,1.98,1.4,2.89c0.13,0.2,0.24,0.5,0.52,0.39c0.41-0.16,0.07-0.47,0.02-0.67
			c-0.1-0.4-0.32-0.77-0.43-1.17c-1.12-4.06-1.09-8.15-0.33-12.26c0.79-4.23,2.14-8.3,3.74-12.28c0.44-1.09,0.68-2.29,1.56-3.16
			c-0.58-2-1.4-3.9-2.31-5.76C33.6,131.29,33.5,131.4,33.44,131.53z"/>
		<path class="st2" d="M17.69,23.59C17.69,23.59,17.69,23.59,17.69,23.59C17.7,23.58,17.7,23.58,17.69,23.59L17.69,23.59z
			 M16.8,24.66C16.8,24.66,16.8,24.66,16.8,24.66C16.8,24.66,16.8,24.66,16.8,24.66L16.8,24.66z M27.25,14.66
			c-3.02,1.16-5.87,2.71-8.95,3.73c-0.56,0.19-0.8,0.69-1.01,1.18c-0.63,1.45-0.98,2.98-1.18,4.54c-0.04,0.34-0.41,0.72-0.02,1.08
			c0.12-0.06,0.23-0.12,0.35-0.18c0.06-0.06,0.13-0.12,0.19-0.18c0,0,0,0,0,0c0.06-0.06,0.12-0.12,0.18-0.18
			c0-0.15,0.03-0.28,0.18-0.36l0,0c0.06-0.06,0.12-0.12,0.18-0.18l0,0c0.06-0.06,0.12-0.12,0.18-0.18l0,0
			c0.06-0.06,0.13-0.13,0.19-0.19l-0.01,0.01c0.06-0.06,0.12-0.12,0.18-0.18c0.01-0.26,0.15-0.37,0.4-0.37
			c0.04-0.04,0.08-0.09,0.12-0.13c-0.06-0.49,0.29-0.75,0.57-1.05c2.74-2.92,5.88-5.34,9.29-7.42
			C27.79,14.41,27.54,14.55,27.25,14.66z M59.1,130.27c-1.14-0.15-1.46,0.24-1.13,1.37c0.26,0.87,0.84,1.48,1.54,2.01
			c1.02,0.77,2.02,1.56,2.83,2.56c0.05-0.06,0.09-0.13,0.14-0.19c-0.94-1.96-1.92-3.9-3.03-5.77
			C59.33,130.26,59.21,130.29,59.1,130.27z M43.88,128.23c-0.19,0.24,0.3,0.4,0.26,0.73c-0.46,0.06-0.87,0.26-1.2,0.62
			c-0.47-0.05-0.72-0.42-0.96-0.74c-4.51-5.91-7.92-12.42-10.49-19.39c-0.78-2.12-1.35-4.3-2.14-6.41
			c-0.51-1.98-0.63-4.01-0.73-6.04c-0.01-0.2-0.11-0.39-0.17-0.59c-0.17-1.44-0.34-2.88-0.51-4.31c0.4,0.06,0.38,0.43,0.47,0.69
			c1.6,5.07,3.73,9.92,6.18,14.63c1.77,3.41,3.7,6.72,5.96,9.84c0.24,0.33,0.55,0.65,0.41,1.13c-0.43,0.07-0.3,0.34-0.23,0.6
			c0.23,0.83,0.78,1.46,1.34,2.08c0.13,0.14,0.45,0.2,0.22,0.55c-0.77,1.17,0.59,1.08,0.98,1.53c0.36,0.4,0.91,0.5,1.05-0.32
			c0.01-0.03,0.28-0.01,0.43-0.02c0.2,0.76,0.68,1.28,1.4,1.58c-0.05,0.38,0.14,0.7,0.23,1.05c-0.06,0.07-0.11,0.14-0.17,0.2
			c-0.3-0.33-0.57-0.69-0.9-0.98c-0.29-0.25-0.66-0.7-1.06-0.28c-0.44,0.46,0.06,0.82,0.36,1.1c0.38,0.37,0.85,0.65,1.27,0.97
			c0.16,0.12,0.42,0.25,0.44,0.4c0.16,1.07,1.03,1.46,1.78,1.98c0.29,0.2,0.67,0.33,0.82,0.66c0.53,1.15,1.47,1.46,2.63,1.38
			c0,0.28,0,0.56,0,0.84c-0.72,0.09-1.35-0.22-1.93-0.57c-1.12-0.67-2.19-1.42-3.28-2.13c-0.5-0.32-0.95-0.71-1.54-0.87
			C44.49,128.05,44.1,127.95,43.88,128.23z M44.14,127.34c0.34-0.26,0.72-0.37,1.14-0.42c-0.65-0.41-1.29-0.79-2.06-0.79
			c-0.31,0-0.6,0.07-0.66,0.45c-0.06,0.36,0.04,0.66,0.39,0.81C43.35,127.55,43.77,127.62,44.14,127.34z M58.58,144.68
			c0.44,1.23,0.86,2.41,1.29,3.6c-0.54,1.52-0.88,3.09-0.94,4.71c-0.31,0.27-0.62,0.54-0.93,0.82c-0.33-0.43-0.04-1.16-0.69-1.44
			c0.57-2.33,0.07-4.33-1.84-5.88c-0.96-2.62-2.55-4.88-4.13-7.13c-0.18-0.25-0.36-0.47-0.33-0.79l0,0
			c-0.67-0.07-0.83-0.72-1.17-1.13c-1.25-1.5-2.74-2.76-4.02-4.24c0.52,0,1.05-0.03,1.23-0.65c0.21-0.75-0.1-1.34-0.68-1.8
			c-0.28-0.22-0.69-0.5-0.93-0.13c-0.31,0.5,0.32,0.29,0.49,0.46c0.33,0.33,0.67,0.73,0.37,1.16c-0.32,0.45-0.75,0.14-1.09-0.1
			c-0.38-0.27-0.61-0.65-0.72-1.1c-0.13-0.5-0.03-0.98,0.37-1.29c0.47-0.36,1.01-0.27,1.52-0.03c1.07,0.51,1.8,1.45,2.69,2.18
			c1.29,1.07,1.94,1.07,3.18-0.03c-0.04,0.48,0.33,0.72,0.58,1.05c0.77,1.03,1.83,1.86,2.31,3.1c0.43,0.03,0.64,0.36,0.86,0.66
			c0.13,0.17,0.24,0.25,0.4,0.05c0.78,1.28,1.25,2.73,2.18,3.93c0.34,0.45,0.65,0.91,1.22,1.09c0,0.97-0.01,1.94-0.01,2.92
			C59.38,144.69,58.98,144.55,58.58,144.68z M59.68,143.27c-1.62-0.7-2.36-2.08-2.94-3.58c-0.47-1.23-1.06-2.4-1.73-3.53
			c-0.49-0.6-0.95-1.22-1.56-1.7c-1.17-0.92-2.57-0.45-2.99,0.99c-0.33,1.13,0.08,2.09,0.62,3.04c0.73,0.41,0.39-0.31,0.42-0.47
			c0.21-1.09,0.98-1.42,1.88-0.76c0.5,0.37,0.81,0.86,1.01,1.44c0.37,1.07,0.68,2.16,1.11,3.21
			C56.23,143.67,57.99,144.25,59.68,143.27z M51.01,163.47c-0.33-3.91-0.92-7.76-2.16-11.49c-0.26,0.18-0.53,0.35-0.86,0.57
			c-0.12-0.55,0.4-0.92,0.28-1.46c-0.4,0-0.8,0-1.21,0c-0.03,1.07-0.1,2.14-0.14,3.2c-0.13,3.72-0.94,7.29-2.15,10.78
			c-0.3,0.87-0.45,1.78-0.39,2.72c0.07,1.12,0.59,1.62,1.71,1.6c1.38-0.03,2.46-0.79,3.52-1.56c0.52-0.38,0.93-0.92,1.57-1.12
			c0-0.24,0-0.48,0-0.71C51.07,165.16,50.95,164.32,51.01,163.47z"/>
		<path class="st3" d="M35.07,178.9C35.07,178.9,35.07,178.9,35.07,178.9C35.07,178.9,35.07,178.9,35.07,178.9L35.07,178.9z
			 M39.73,134.42c0-0.06,0-0.12-0.01-0.17c-0.02,0.02-0.07,0.04-0.06,0.05C39.68,134.34,39.71,134.38,39.73,134.42
			C39.73,134.42,39.73,134.42,39.73,134.42C39.73,134.42,39.73,134.42,39.73,134.42z M30.41,115.06c-0.18,0.12-0.17,0.24,0.01,0.35
			C30.41,115.29,30.41,115.18,30.41,115.06z M51.19,166.71c0.01,0.69,0.04,1.39-0.21,2.06c-0.55,0.49-1.69-0.39-1.95,0.82
			c-0.01,0.06-0.28,0.06-0.41,0.12c-0.09,0.05-0.23,0.21-0.22,0.24c0.41,0.65-0.15,1.28-0.04,1.9c0.1,0.54,0.15,1.22,0.97,1.1
			c0.49-0.07,0.73-0.46,0.82-0.95c0.08-0.47,0.28-0.97-0.38-1.35c0,0.32,0.04,0.55-0.01,0.77c-0.06,0.3-0.22,0.6-0.59,0.54
			c-0.33-0.06-0.34-0.38-0.33-0.65c0.03-0.7,0.35-1.27,1.07-1.32c0.77-0.06,0.96,0.54,0.95,1.2c-0.53,0.88-0.57,1.91-0.9,2.85
			c-0.24,0.67-0.5,1.16-1.26,1.23c-0.68,0.21-1.24,0.56-1.66,1.38c0.61-0.21,1.14-0.37,1.4,0.18c0.26,0.56-0.02,1.06-0.43,1.43
			c-0.48,0.44-1,0.83-1.52,1.23c-1.49,1.14-1.64,1.95-0.64,3.54c-0.5,0.01-0.96,0.27-1.47,0.18c0.01-0.5,0.01-0.99-0.28-1.53
			c-0.95,0.82-1.89,1.62-2.82,2.42c-0.64-0.01-1.16,0.37-1.74,0.56c-1.06-0.69-2.2-0.91-3.44-0.59c-0.02,0.36,1.04,0.55,0.12,1.06
			c0.41,0.08,0.73,0.14,1.05,0.21c-0.01,0.06-0.03,0.12-0.04,0.19c-1.59,0.27-3.17,0.66-4.81,0.56c-1.2-0.08-2.37-0.29-3.46-0.84
			c0.09-0.23,0.26-0.4,0.46-0.53c1.57-1,2.88-2.3,4.12-3.66c0.59-0.65,1.26-1.26,1.54-2.14c0.06-0.06,0.12-0.12,0.18-0.18
			c0.76-0.73,1.22-1.67,1.72-2.58c1.83-3.32,2.95-6.88,3.41-10.63c0.11-0.89,0.6-1.84,0.03-2.76c0-1.04,0.12-2.07,0.1-3.12
			c-0.11-4.72-0.78-9.36-1.86-13.95c-0.7-2.98-1.49-5.93-2.66-8.77c-0.58-2-1.4-3.9-2.31-5.76c-0.78-1.7-1.54-3.41-2.35-5.1
			c-0.46-0.96-0.77-2-1.42-2.87c-0.23-0.22-0.23-0.22-0.38,0.18c-1.88,4.89-3.73,9.8-5.3,14.8c-2.22,7.04-4.21,14.12-4.78,21.54
			c-0.26,3.36-0.21,6.67,0.81,9.89c0.68,2.16,1.92,3.96,3.89,5.17c1.98,1.62,4.27,1.9,6.69,1.5c1.89-0.31,3.34-1.45,4.76-2.64
			c-0.01,1.03-0.91,1.43-1.5,1.98c-2.81,2.62-5.88,3.17-9.35,1.85c-3.09-1.17-5.44-3.33-7.33-5.99c-0.25-0.35-0.46-0.7-0.96-0.65
			c0,0-0.01,0.01-0.01,0.01c-0.04-0.06-0.08-0.13-0.12-0.19c-0.6-2.81-0.62-5.65-0.61-8.51c0.02-3.64,0.64-7.19,1.38-10.73
			c2.27-10.89,6.47-21.11,10.9-31.25c0.21-0.48,0.22-0.82-0.06-1.27c-0.59-0.95-1.09-1.96-1.62-2.94c0.26-0.34,0.8-0.5,0.71-1.07
			c0.14-0.08,0.17-0.22,0.18-0.36c0-0.06,0-0.11,0-0.17c0.48-0.55,0.58,0.05,0.71,0.27c1.62,2.75,3.31,5.45,4.79,8.27
			c3.39,6.42,6.32,13.03,8.29,20.04c1.4,4.96,2.4,9.98,2.72,15.14c0.08,1.25,0.06,2.52,0.24,3.77c0.17-4.2,0.15-8.39-0.5-12.55
			c-0.74-4.74-1.94-9.37-3.55-13.9c-0.11-0.31-0.2-0.62-0.16-0.96c0,0,0,0,0,0c0,0,0,0,0,0c0.11,0.1,0.23,0.18,0.32,0.3
			c1.38,1.85,2.54,3.85,3.77,5.8c0.02,0.7,0.39,1.29,0.62,1.96c-0.24,0-0.45-0.02-0.65,0.01c-0.28,0.04-0.63-0.31-0.81,0.01
			c-0.18,0.31-0.05,0.69,0.12,1.02c0.19,0.38,0.41,0.72,0.72,1.01c0.31,0.29,0.65,0.55,1.03,0.87c-1.15,0.59-1.17,0.83-0.37,1.57
			c0.34,0.31,0.73,0.5,1.17,0.61c0.1,0.04,0.22,0.15,0.31,0.13c1.27-0.3,1.7,0.47,1.95,1.49c0.06,0.22,0.15,0.44,0.23,0.66
			c-0.34,0.43-1.06,0.54-1.07,1.25c-0.03,1.07-0.1,2.14-0.14,3.2c-0.13,3.72-0.94,7.29-2.15,10.78c-0.3,0.87-0.45,1.78-0.39,2.72
			c0.07,1.12,0.59,1.62,1.71,1.6c1.38-0.03,2.46-0.79,3.52-1.56C50.14,167.45,50.54,166.91,51.19,166.71z M40.35,182.07
			c1.43-1.42,1.14-4.22-0.57-4.95c-0.56-0.24-1.09-0.56-1.66-0.77c-0.06-0.12-0.15-0.15-0.26-0.08c-0.01,0.01,0.03,0.08,0.05,0.13
			c0.01,0.11,0.02,0.23,0.03,0.34c-0.03,0.42-0.36,0.34-0.63,0.38c-0.28,0.04-0.37,0.16-0.08,0.35
			C39.12,178.4,39.93,180.08,40.35,182.07z M44.8,172.74c-0.82-0.4-0.75-0.85-0.44-1.5c-0.92-0.1-1.35,0.52-1.84,1.03
			c-0.38-0.24-0.11-0.89-0.59-0.86c-0.44,0.02-0.65,0.47-0.84,0.85c-0.05,0.11-0.08,0.23-0.15,0.33c-0.19,0.28-0.08,1.07-0.8,0.45
			c-0.18-0.16-0.29,0.13-0.37,0.27c-0.4,0.7-0.32,1.39,0.12,2.02c0.7,1,1.47,1.96,2.15,2.97c1.27,1.86,0.4,4.11-1.75,4.76
			c-0.38,0.11-1.24-0.11-1.07,0.47c0.15,0.54,0.87,0.01,1.34-0.03c0.11-0.01,0.23-0.07,0.34-0.12c2.83-1.08,3.49-3.09,1.85-5.62
			c-0.52-0.8-1.09-1.57-1.3-2.53c-0.18-0.84,0.23-1.72,0.98-2.11c0.8-0.42,1.76-0.13,2.04,0.62c0.21,0.56-0.21,1.36-0.78,1.5
			c-0.66,0.16-0.65-0.36-0.73-0.78c-0.88,0.67-0.85,1.2,0.07,1.65c0.96,0.47,1.77,0.28,2.26-0.52
			C45.89,174.64,45.74,173.19,44.8,172.74z M52.02,142.15c-0.14,1.37-0.55,1.91-1.82,2.29c1.08-1.7,0.67-3.2-0.37-4.69
			c0.32,0.2,0.65,0.4,0.97,0.61c0.36-0.31-0.01-0.45-0.15-0.64c-1.74-2.27-3.73-4.32-5.77-6.32c-0.51-0.5-1-1.02-1.39-1.62
			c-0.06-0.13-0.13-0.27-0.19-0.4c-0.95-0.34-1.26-1.3-1.83-1.99c-3.85-4.64-6.51-9.96-8.79-15.5c-1.45-3.53-2.75-7.1-3.52-10.85
			c-0.06,0.13-0.17,0.26-0.17,0.39c-0.01,2.76-0.25,5.5-0.82,8.2c-0.04,0.2,0.01,0.33,0.11,0.49c0.47,0.76,0.91,1.53,1.41,2.27
			c0.1,0.14,0.14,0.63,0.55,0.3c-0.12-0.61-0.24-1.22-0.35-1.82c-0.01-0.04,0.04-0.1,0.13-0.3c0.37,1.46,0.92,2.73,1.13,4.1
			c0.07,0.05,0.18,0.09,0.2,0.17c0.92,2.3,2.29,4.36,3.42,6.55c1.29,2.52,2.25,5.19,3.7,7.63c0,0.06,0,0.12,0,0.18
			c2.07,2.63,3.92,5.41,5.57,8.32c0.45,0.02,0.63,0.42,0.88,0.69c0.29,0.3,0.45,0.31,0.79,0.03c1.05-0.86,2.24-0.83,3.24,0
			c0.94,0.78,1.35,2.4,0.85,3.4c-0.3,0.59-0.73,1.1-1.46,0.91c-0.7-0.18-0.9-0.78-0.88-1.55c0.43,0.26,0.82,0.63,1.22,0.16
			c0.37-0.44,0.27-0.94,0.04-1.43c-0.3-0.63-0.79-0.97-1.49-0.91c-0.82,0.06-1.38,0.47-1.62,1.29c0.2,0.84,0.74,1.61,0.55,2.53
			c0.16,0.3,0.43,0.48,0.72,0.63c1.02,0.52,2.13,0.46,3.21,0.36c1.45-0.13,2.89-0.13,4.31,0.26c-0.37-1.3-1.24-2.34-1.86-3.52
			C52.44,142.19,52.24,142.14,52.02,142.15z M38.48,131.19C38.48,131.19,38.48,131.19,38.48,131.19
			C38.48,131.19,38.47,131.19,38.48,131.19C38.47,131.19,38.48,131.19,38.48,131.19z"/>
		<path class="st4" d="M21.93,90.4c-1.28-1.71-2.85-3.14-4.41-4.58c-1.75-6.92-3.68-13.8-4.97-20.82c-0.49-2.65-0.88-5.33-0.97-8.05
			c-0.02-0.62-0.24-1.23-0.15-1.86c0.95,0.78,0.95,0.78,1.85-0.15c1.18-1.22,1.18-1.22-0.04-2.4c-0.02-0.02-0.04-0.04-0.06-0.06
			c-0.89-0.86-0.89-0.86-1.79-0.02c-0.21-1.32-0.31-2.64,0.05-3.96c1.07,0.21,2.15,0.24,3.23,0.02c0.31,0.06,0.33,0.27,0.3,0.54
			c-0.37,3.52-0.19,7.03,0.26,10.52c0.64,4.94,1.92,9.74,3.36,14.5c1.74,5.75,3.48,11.51,4.3,17.48c0.23,2.72,0.48,5.44,0.34,8.17
			c-0.05,0.99-0.05,2-0.34,2.96c-0.65-0.33-0.77-1.04-1.1-1.58c-1.47-2.47-2.88-4.97-4.31-7.47c-0.14-0.25-0.22-0.55-0.33-0.82
			c0.26-0.08,0.59-0.56,0.75-0.26c0.64,1.22,0.74,0.05,0.99-0.2c0.22-0.23,0.45-0.37,0.74-0.44c0.63-0.15,1.25-0.36,1.89-0.46
			C22.33,91.32,22.3,90.88,21.93,90.4z M58.08,109.04c-0.85,2.1-1.63,4.22-2.23,6.42c-0.22,0.81-0.42,1.61-0.37,2.46
			c1.41-2.57,2.82-5.14,4.24-7.71C59.15,109.85,58.6,109.46,58.08,109.04z M25.4,29.3c-0.44,0.2-0.88,0.62-1.45,0.37
			c-0.27,0.15-0.41,0.41-0.59,0.65c-1.88,2.63-3.31,5.49-4.42,8.52c0.18,0.53,0.37,1.07,0.55,1.6c0.16,0.22,0.22,0.46,0.16,0.72
			c0,0.3,0.01,0.59,0.01,0.89c0.09,1.18-0.2,2.26-0.85,3.25c-0.37,0.92-1.14,1.51-1.83,2.17c0.05,1.25-0.16,2.5-0.17,3.75
			c-0.04,6.14,1.01,12.13,2.56,18.05c1.14,4.35,2.45,8.65,3.39,13.05c0.71,3.29,1.4,6.57,1.38,9.96c0.33,1.47,0.17,2.95,0.1,4.43
			c-0.1,2.31-0.51,4.58-0.83,6.86c-0.02,0.31,0.1,0.58,0.25,0.84c0.57,0.97,1.14,1.95,1.72,2.92c0.77,1.28,1.56,2.56,2.37,3.9
			c0.52-1.52,0.35-3.03,0.55-4.47c0.27-1.89-0.13-3.73-0.15-5.59c-0.01-1.65-0.28-3.3-0.44-4.95c-0.66-4.48-1.33-8.97-1.99-13.45
			c-0.46-3.11-0.94-6.21-1.38-9.32c-0.19-1.35-0.28-2.71-0.4-4.07c-0.02-0.25-0.09-0.54,0.16-0.75c-0.17-1.22-0.45-2.43-0.47-3.65
			c-0.01-1-0.52-2.01-0.04-3.01c-0.04-0.25,0.06-0.52-0.14-0.74c-0.01-0.05-0.03-0.09-0.06-0.13c-0.03-0.26-0.03-0.53-0.08-0.79
			c-0.68-3.19-1.24-6.41-1.32-9.68c-0.1-4.17,0.77-8.18,2.4-12.01c0.49-1.16,0.84-2.39,1.68-3.38c-0.06-0.56,0.47-0.89,0.55-1.39
			c0.09-0.92,0.61-1.66,1.06-2.41c1.24-2.09,2.82-3.93,4.45-5.72c0.18-0.2,0.4-0.36,0.4-0.67c-0.14,0.05-0.3,0.07-0.41,0.16
			C30.14,26.94,27.81,28.2,25.4,29.3z M51.19,165.99c0.38-0.01,0.57-0.3,0.79-0.53c1.19-1.29,2.25-2.67,3.1-4.21
			c0.7-1.27,1.56-2.45,1.84-3.92c-0.15-0.12-0.63,0.35-0.45-0.07c0.49-1.1,0.26-2.52,1.43-3.31c0.04-0.03,0.06-0.1,0.09-0.15
			c-0.33-0.43-0.04-1.16-0.69-1.44c-0.14,0.25-0.28,0.51-0.43,0.75c-0.07,0.11-0.1,0.32-0.27,0.26c-0.18-0.07-0.22-0.23-0.14-0.43
			c0.14-0.35,0.32-0.69,0.3-1.08c-0.07-0.54-0.27-1.03-0.57-1.48c-0.26-0.03-0.53-0.08-0.79-0.1c-2.15-0.2-4.21-0.02-6.02,1.34
			c0.85,2.91,1.44,5.87,1.65,8.9c0.07,1,0.34,1.98-0.02,2.97C50.95,164.32,51.07,165.16,51.19,165.99z M59.21,22.77
			c0.98,0.18,1.96,0.05,2.93,0.1c0.05,0.01,0.09,0.01,0.14,0.01c0.12-0.17,0.24-0.2,0.37-0.01c0.07,0.01,0.14,0.02,0.21,0.03
			l-0.02-0.01c0.08-0.16,0.23-0.19,0.39-0.18c0.54-0.1,0.8-0.74,1.4-0.72c0-0.06,0-0.12,0-0.18c0.24-0.43,0.7-0.51,1.08-0.71
			c2.98-1.28,5.48-0.23,7.81,1.63c0.21,0.17,0.41,0.34,0.61,0.51c0.13-0.06,0.26-0.13,0.39-0.19c-0.04-0.13-0.02-0.3-0.2-0.35
			c-0.81-0.15-1.05-0.93-1.49-1.44c-2.51-2.94-5.55-4.64-9.5-4.67c-2.43-0.02-4.78,0.5-7.15,0.81c-2.41,0.31-4.78,0.49-7.15-0.16
			c-0.22-0.06-0.47-0.05-0.7-0.08c1.37,1.14,2.94,1.99,4.46,2.9C54.79,21.24,56.86,22.32,59.21,22.77z M66.04,160.21
			c0.37,2.75,0.43,5.52,0.38,8.29c-0.07,4.02-1.07,7.82-2.69,11.48c-0.25,0.57-0.57,1.12-0.53,1.78c-0.77,0.36-0.69,1.31-1.26,1.81
			c-0.45,0.23-0.89,0.46-1.35,0.67c-0.25,0.11-0.51,0.38-0.8,0.06c-0.33-0.27-0.41-0.48-0.03-0.85c0.64-0.62,1.11-1.38,1.3-2.33
			c-0.29-0.06-0.44,0.17-0.64,0.23c-0.07,0.01-0.14,0.02-0.21,0.03c0.02-0.06,0.05-0.13,0.07-0.19c0.15-0.68,0.65-1.29,0.38-2.04
			c-0.13-0.1-0.18,0.02-0.2,0.08c-0.32,0.7-0.69,0.94-1.56,0.68c-1.63-0.49-2.97,0.61-3.09,2.3c-0.05,0.71,0.18,1.28,0.86,1.49
			c0.72,0.22,1.05-0.33,1.37-0.92c-0.35-0.04-0.61,0.49-0.88,0.1c-0.21-0.31-0.2-0.7-0.02-1.03c0.14-0.25,0.36-0.48,0.58-0.67
			c0.44-0.36,0.98-0.56,1.48-0.2c0.46,0.34,0.32,0.88,0.16,1.32c-0.48,1.28-1.3,2.2-2.75,2.37c-1.75,0.03-3.36-0.59-4.97-1.17
			c-0.18-0.07-0.33-0.23-0.49-0.35c0.46-0.77,0.78-1.6,1.06-2.44c0.16-0.49,0.38-0.94,0.76-1.29c0.67-0.63,1.03-0.56,1.49,0.36
			c0.42-0.62,0.52-1.26,0.47-1.94c0.65-0.09,0.73-0.7,1.02-1.12c0.43-0.6,0.5-1.38,0.99-1.95c0.88,0.11,1.18-0.5,1.43-1.16
			c0.11-0.3,0.12-0.72,0.33-0.89c0.51-0.42,0.53-0.66-0.11-0.89c-0.24-0.09-0.16-0.27-0.07-0.43c0.38-0.64-0.12-0.65-0.52-0.74
			c0.06-0.24,0.12-0.48,0.18-0.72c0-0.18,0-0.36,0-0.54c0.12-0.22,0.2-0.45,0.18-0.71c0-0.12-0.02-0.24,0.01-0.36
			c0.47-1.98,0.36-4.01,0.47-6.02c0.1-1.76-0.2-3.54-0.33-5.32c0.85-2.37,2.81-3.82,4.71-5.5c-1.77-0.12-3.04,0.67-4.3,1.49
			c0.06-1.62,0.4-3.18,0.94-4.71c0.15,0.35,0.27,0.72,0.46,1.06c0.5,0.89,1.58,1.14,2.66,0.53c0.87-0.49-0.11-0.97-0.13-1.47
			c-0.01-0.28-0.21-0.55-0.3-0.83c-0.44-1.43-1.34-2.42-2.78-2.88c0-0.97,0.01-1.94,0.01-2.92c0.52-0.06,0.71,0.3,0.91,0.69
			c1.71,3.2,3.1,6.53,4.28,9.96c0.08,0.22,0.25,0.45,0.13,0.68c-0.59,1.12-0.07,1.99,0.58,2.85c-0.32,0.54,0.03,0.88,0.37,1.22
			c-0.37,0.21-0.18,0.59-0.26,0.88c-0.13,0.55,0.1,1.16-0.18,1.67C65.25,160.37,65.69,160.22,66.04,160.21z M63.18,156.75
			c0.02-0.68,0.39-0.69,0.84-0.73c0.23-0.02,0.47-0.05,0.82-0.1c-0.49-1-0.6-1.95-0.1-3.09c-1.39,1.03-2.58,1.95-3.03,3.5
			c-0.21,0.72,0.1,1.95,0.43,1.83C62.74,157.94,63.16,157.38,63.18,156.75z M65.13,156.47c-1.08,0.67-0.87,2.21-2.06,2.81
			c0.67,0.4,1.23,0.41,1.74-0.04C65.43,158.7,65.56,157.52,65.13,156.47z M55.66,14.62c-2.64-0.24-5.11-1.01-7.47-2.22
			c-1.56-0.8-3.22-1.14-4.97-1.21c-2.46-0.1-4.84,0.38-7.24,0.75c-1.41,0.28-2.82,0.56-4.19,1.04c-1.28,0.44-2.45,1.13-3.71,1.64
			c-0.29-0.21-0.55-0.06-0.83,0.05c-3.02,1.16-5.87,2.71-8.95,3.73c-0.56,0.19-0.8,0.69-1.01,1.18c-0.63,1.45-0.98,2.98-1.18,4.54
			c-0.04,0.34-0.41,0.72-0.02,1.08c-0.34,1.31-0.78,2.6-0.71,3.98c-0.27,0.17-0.53,0.37-0.82,0.51c-0.51,0.24-0.73,0.49-0.3,1.04
			c0.34,0.44,0.6,0.95,0.84,1.46c0.21,0.43,0.4,0.55,0.85,0.25c0.66-0.44,1.38-0.79,2.08-1.18c0.12,0.19,0.28,0.13,0.47,0.09
			c0.98-0.21,1.96-0.4,2.94-0.6c-0.73,1.18-1.52,2.31-2.23,3.5c-0.58,0.96-0.85,2.07-1.54,2.97c-1.49-1.29-3.23-1.85-5.18-1.8
			c0.52-2.95,1.21-5.87,1.91-8.79c-0.53,0.79-0.68,1.71-0.94,2.58c-0.61,2.08-1.31,4.14-1.52,6.32c-0.61,0.18-1.23,0.31-1.78,0.65
			c-0.07,0.04-0.13,0.09-0.2,0.13c-0.06-0.01-0.1,0.01-0.12,0.06c-1.08,0.53-1.88,1.34-2.41,2.42c-0.92,1.47-1.12,3.04-0.69,4.71
			c0.04,0.2,0.05,0.41,0.11,0.61c0.59,1.84,1.86,3.08,3.51,3.99c-0.01,1.8-0.02,3.61-0.03,5.41c-0.12,0.18-0.12,0.35,0.02,0.52
			c-0.12,0.69,0.17,1.36,0.16,2.04c-0.03,2.03,0.29,4.03,0.59,6.03c0.9,5.98,2.44,11.82,4.16,17.61c0.44,1.48,0.97,2.94,1.18,4.48
			c-0.81-0.5-1.36-1.27-1.97-1.97c-1.45-1.66-2.88-3.35-4.31-5.03c-0.46-0.54-0.78-1.16-1.08-1.79c-0.6-1.68-1.28-3.33-1.83-5.03
			c-1.56-4.75-2.38-9.65-2.6-14.61c-0.17-3.74-0.17-7.5,0.28-11.25c0.46-3.87,1.08-7.7,2.15-11.45c0.18-0.61,0.34-1.23,0.52-1.92
			c-0.16,0.08-0.24,0.09-0.26,0.13C7.3,31.42,7.25,31.56,7.2,31.7c-2.04,5.7-3.1,11.6-3.43,17.61c-0.16,2.91-0.14,5.84,0.1,8.76
			c0.3,3.69,0.84,7.32,1.84,10.87c0.48,1.71,0.81,3.48,1.76,5.03C7.46,74.35,7.52,74.7,7.74,75c0.3,0.39,0.51,0.8,0.47,1.31
			c0.03,0.12,0.04,0.24,0.08,0.34c2.76,7.09,6.12,13.9,9.67,20.62c0.83,1.58,1.82,3.08,2.57,4.7c0.75,1.61,2.41,2.9,1.8,5.04
			c0.37-0.2,0.21-0.66,0.57-0.8c1.25,2.11,2.47,4.21,3.75,6.29c0.36,0.58,0.62,1.14,0.53,1.83c0,0.06,0,0.11,0,0.17
			c-0.14,0.08-0.18,0.21-0.18,0.36c0.09,0.58-0.45,0.73-0.71,1.07c-2.99-4.94-5.84-9.97-8.61-15.03
			c-4.83-8.83-9.39-17.8-12.97-27.23c-1.62-4.26-3.05-8.58-3.89-13.06C0.1,56.76-0.16,52.85,0.1,48.89
			c0.41-6.15,1.93-11.97,4.69-17.47c2.14-4.27,4.78-8.17,8.59-11.15c0.56-0.44,1.15-0.88,1.83-1.07c1.26-0.36,2.13-1.2,2.74-2.27
			c1.98-3.49,5.09-4.87,8.94-5.22c3.68-0.33,7.29-1.17,10.92-1.83c2.98-0.54,5.96-1.04,9.01-0.82c1.19,0.09,2.25,0.64,3.36,1.04
			c4.59,1.64,9.14,3.38,13.86,4.62c0.02,0.01,0.04,0.05,0.05,0.07c-0.69,0.56-1.47,0.13-2.2,0.21
			C59.79,15.22,57.7,15.32,55.66,14.62z M7.97,30.07C7.97,30.04,7.97,30.02,7.95,30c-0.01-0.01-0.04,0.01-0.06,0.01
			c0.01,0.02,0.01,0.05,0.02,0.07C7.92,30.09,7.95,30.07,7.97,30.07z M14.76,25.57c-0.19-0.07-0.2,0.22-0.28,0.35
			c0.03,0.07,0.05,0.15,0.08,0.22c0.03-0.08,0.05-0.15,0.08-0.23C14.78,25.82,14.89,25.62,14.76,25.57z"/>
		<path class="st5" d="M38.12,176.34c-0.07,0.02-0.14,0.03-0.21,0.05c-0.02-0.04-0.06-0.12-0.05-0.12
			C37.98,176.19,38.06,176.23,38.12,176.34z M37.32,177.11c-0.28,0.04-0.37,0.16-0.08,0.35c0.09-0.28,0.33-0.17,0.51-0.18
			c0.52-0.02,0.4-0.27,0.2-0.55C37.91,177.15,37.58,177.07,37.32,177.11z M49.46,125.8c-0.09,0.01-0.17,0.01-0.26,0.02
			c0.16,0.25,0.37,0.44,0.73,0.6C49.79,126.1,49.67,125.91,49.46,125.8z M59.11,129.58c-0.08,0-0.15,0.01-0.23,0.01
			c0.09,0.2,0.24,0.33,0.47,0.35C59.23,129.85,59.31,129.62,59.11,129.58z"/>
		<path class="st6" d="M63.22,22.69c-0.09,0.14-0.21,0.21-0.39,0.18C62.92,22.72,63.06,22.69,63.22,22.69z M71.66,83.84L71.66,83.84
			c0,0.04,0,0.08,0,0.12v0C71.66,83.92,71.66,83.88,71.66,83.84z M31.56,21.93c0.26-0.14,0.54-0.22,0.82-0.33
			c0.08-0.14,0.21-0.17,0.36-0.17c0.08-0.14,0.21-0.17,0.36-0.18c0.06-0.04,0.13-0.09,0.19-0.13c0.01,0.02,0.03,0.05,0.04,0.07
			c-0.08,0.02-0.15,0.04-0.23,0.07c-0.08,0.15-0.21,0.18-0.36,0.18c-0.07,0.15-0.2,0.18-0.35,0.19c-1.03,1.03-2.35,1.69-3.41,2.68
			c-1.79,1.68-3.66,3.3-5.03,5.37c0.58,0.25,1.01-0.17,1.45-0.37c2.41-1.1,4.74-2.36,6.76-4.12c0.1-0.09,0.27-0.11,0.41-0.16
			c1.35-0.63,2.2-1.87,3.39-2.71c4-2.83,8.15-2.77,12.41-0.75c1.91,0.9,3.7,2.04,5.7,2.76c1.35,0.48,2.7,0.91,4.16,0.89
			c0.23,0,0.48-0.04,0.67,0.17c1.65-0.3,2.94-1.17,3.97-2.47c-0.07-0.01-0.14-0.02-0.21-0.03c-0.12,0-0.25,0-0.37,0.01
			c-0.05,0-0.09,0-0.14-0.01c-1.67,0.72-3.33,0.33-4.96-0.13c-2.84-0.81-5.35-2.33-7.86-3.82c-3.16-1.86-6.31-3.73-9.73-5.11
			c-2.76-1.12-5.42-0.8-8.06,0.26c-4.19,1.69-7.89,4.18-11.24,7.18c-0.69,0.62-1.38,1.23-2.07,1.84c-0.04,0.04-0.08,0.09-0.12,0.13
			c-0.14,0.12-0.27,0.24-0.4,0.37l0.01-0.01c-0.06,0.06-0.12,0.12-0.19,0.19l0.01-0.01c-0.06,0.06-0.13,0.13-0.19,0.19l0,0
			c-0.06,0.06-0.12,0.12-0.18,0.18l0,0c-0.06,0.06-0.12,0.12-0.18,0.18l0,0c0,0.15-0.04,0.28-0.18,0.36l0,0
			c-0.06,0.06-0.12,0.12-0.18,0.18l0,0c-0.06,0.06-0.13,0.12-0.19,0.18c-0.12,0.06-0.23,0.12-0.35,0.18
			c-0.34,1.31-0.78,2.6-0.71,3.98c1.21-0.56,1.21-0.57,1.92,0.67c0.26,0.46,0.49,0.94,0.74,1.41c0.12,0.19,0.28,0.13,0.47,0.09
			c0.98-0.21,1.96-0.4,2.94-0.6C24.21,27.12,27.49,24.08,31.56,21.93z M47.74,124.6c0.1,0.08,0.19,0.16,0.29,0.24
			c0.14,0.1,0.28,0.2,0.42,0.3c0.06-0.05,0.12-0.11,0.19-0.16c-0.15-0.1-0.29-0.2-0.44-0.3c-0.11-0.09-0.21-0.17-0.32-0.26l0,0
			c-0.07-0.03-0.15-0.07-0.22-0.1c-0.05,0.06-0.09,0.12-0.14,0.18C47.59,124.54,47.67,124.57,47.74,124.6z M70.87,156.63
			c1.48,6.89,1.17,13.66-1.31,20.3c-0.04,0.05-0.08,0.11-0.11,0.16c-0.02,0.14,0.03,0.31-0.15,0.39c-0.32-0.02-0.44,0.22-0.61,0.43
			c-0.71,0.91-1.33,1.9-2.23,2.62c-0.94,0.75-1.81,1.8-3.26,1.22c-0.04-0.66,0.28-1.21,0.53-1.78c1.62-3.66,2.61-7.46,2.69-11.48
			c0.05-2.77,0-5.54-0.38-8.29c0.99-0.63,1.18-1.17,0.77-2.09c-0.17-0.38-0.44-0.68-0.75-0.96c-0.34-0.34-0.69-0.68-0.37-1.22
			c0.43,0.35,0.64,0.93,1.24,1.2c0.05-0.32,0.13-0.6,0.14-0.88c0.07-1.4,0.26-2.83-1.15-3.8c-0.19-0.13-0.29-0.44-0.38-0.69
			c-1.26-3.35-2.67-6.63-4.41-9.76c-0.19-0.35-0.34-0.71-0.2-1.11c0.22-0.63,0.01-1.19-0.28-1.71c-1.43-2.55-3.66-4.3-5.98-5.96
			c0.54,1.2,1.28,2.28,1.73,3.5c-0.16,0.2-0.27,0.12-0.4-0.05c-0.22-0.3-0.43-0.62-0.86-0.66c-0.48-1.25-1.54-2.07-2.31-3.1
			c-0.25-0.33-0.61-0.57-0.58-1.05c-0.17-0.3-0.48-0.06-0.69-0.17c0-0.28,0-0.56,0-0.84c0.96-0.73,1.22-1.98,0.42-2.88
			c-0.72-0.81-1.22-1.75-1.82-2.63c-0.2-0.3-0.39-0.69-0.73-0.76c-0.93-0.21-1.35-0.99-1.95-1.58c-0.23-0.23-0.49-0.43-0.77-0.6
			c-0.21-0.13-0.48-0.32-0.72-0.06c-0.28,0.3-0.02,0.55,0.13,0.79c0.38,0.57,1.03,0.79,1.54,1.19c-0.05,0.06-0.09,0.12-0.14,0.18h0
			c0,0,0,0,0,0c-0.45-0.1-0.87-0.53-1.37-0.13c-0.72-0.3-1.2-0.82-1.4-1.58c0.53-0.69-0.27-1.04-0.39-1.57
			c-0.2-0.86-0.58-1.01-1.14-0.21c-0.68-1-1.2-2.06-2.27-2.64c0.14-0.48-0.18-0.8-0.41-1.13c-2.26-3.11-4.19-6.43-5.96-9.84
			c-2.44-4.71-4.58-9.56-6.18-14.63c-0.08-0.26-0.06-0.63-0.47-0.69c-0.02-0.27-0.02-0.54-0.06-0.8c-0.47-3.02-0.94-6.04-1.42-9.06
			c-0.46-2.9-0.94-5.8-1.4-8.7c-0.26-1.64-0.86-3.22-0.92-4.9c-0.17-1.22-0.45-2.43-0.46-3.65c-0.01-1-0.52-2.01-0.04-3.01
			c0.05,0.1,0.12,0.2,0.15,0.3c0.58,2.65,1.21,5.29,2.24,7.79c3.89,9.46,9.17,18.18,14.42,26.91c0.33,0.59,0.66,1.19,1.01,1.78
			c1.32,2.22,2.66,4.43,3.98,6.64c1.02,1.79,2.05,3.58,3.07,5.38c0.38,0.7,0.72,1.43,1.15,2.1c0.56,0.86,0.9,1.88,1.72,2.55
			c0.69,1.77,1.8,3.29,2.87,4.84c0.65,1.65,1.64,3.13,2.45,4.7c0.8,1.55,1.62,3.09,2.42,4.63c-0.08,0-0.15,0.01-0.23,0.01
			c-0.44-0.3-0.87-0.63-1.38-0.8c-0.66-0.22-1.31-0.24-1.85,0.25c-0.53,0.49-0.6,1.12-0.41,1.81c0.26,0.95,0.82,1.72,1.48,2.41
			c1.34,1.4,2.71,2.77,4.05,4.17c0.81,0.84,1.28,1.85,1.4,3.02c0.02,0.2-0.09,0.48,0.21,0.61c0.76-1.11,0.91-2.31,0.6-3.59
			c0.06-0.06,0.12-0.12,0.18-0.17c1.79,3.44,3.44,6.94,5,10.49c-0.75,0.46-1.23,1.13-1.76,2.05c0.89-0.31,1.55-0.54,2.21-0.77
			c0.28,0.71,0.56,1.42,0.83,2.13c-1.06-0.11-2.04,0.13-3.11,0.7c0.91,0.24,1.31,0.79,1.61,1.48c0.12,0.27-0.04,0.77,0.41,0.78
			c0.37,0.01,0.57-0.39,0.78-0.67c0.08-0.12,0.17-0.23,0.25-0.35c0.3,0.08,0.44,0.44,0.78,0.43c0.18,0.76,0.36,1.51,0.54,2.27
			c-0.41,0.02-0.73-0.2-1.05-0.41c-0.47-0.3-0.96-0.52-1.55-0.32C69.1,157.28,69.64,157.57,70.87,156.63z M47.87,120.51
			c-0.17-0.15-0.39-0.3-0.64-0.11c-0.24,0.18-0.19,0.43-0.11,0.65c0.25,0.67,0.59,1.29,1.12,1.91c0.08-0.33,0.1-0.61,0.21-0.84
			C48.79,121.37,48.35,120.93,47.87,120.51z M54.56,123.48c-0.17-0.17-0.35-0.33-0.5-0.51c-0.18-0.2-0.37-0.41-0.32-0.71
			c0.13-0.8-0.36-0.64-0.71-0.39c-0.42,0.3-0.63,0.28-0.84-0.19c-0.28-0.61-0.63-0.41-0.92,0c-0.15,0.22-0.22,0.48-0.33,0.73
			c-0.34,0.02-0.41-0.51-0.72-0.28c-0.23,0.17-0.14,0.49-0.13,0.76c0.01,0.34,0.17,0.63,0.33,0.91c0.57,1.01,1.14,2.02,1.73,3.02
			c0.68,1.17,1.33,2.35,1.07,3.83c1.34-0.73,1.23-1.95,0.58-2.85c-0.7-0.96-1.58-1.8-2.12-2.87c-0.45-0.91-0.32-1.66,0.3-1.97
			c0.7-0.35,1.71,0.03,2.14,0.8c0.19,0.35,0.35,0.78-0.04,1.05c-0.39,0.27-0.72-0.09-1.01-0.33c-0.1-0.09-0.16-0.25-0.21-0.39
			c-0.06-0.15,0-0.41-0.28-0.33c-0.2,0.06-0.26,0.24-0.21,0.44c0.15,0.71,0.63,1.14,1.29,1.36c0.51,0.17,1.01,0.05,1.24-0.43
			C55.16,124.55,55.03,123.96,54.56,123.48z M66.48,144.86c-0.6-1.54-1.67-2.79-2.53-4.34c-0.4,0.97-0.46,1.83-0.5,2.68
			c-0.09,1.92,1.07,3.42,1.72,5.09c0.14,0.37,0.38,0.07,0.54-0.06C66.69,147.48,66.99,146.16,66.48,144.86z M68.85,160.12
			c-0.2-0.55-0.55-0.97-1.19-1.35c0.01,0.67-0.12,1.23,0.13,1.77c0.14,0.3,0.29,0.54,0.67,0.35C68.77,160.73,69,160.53,68.85,160.12
			z M70.36,158.15c-1.05-0.03-1.39-1.2-2.38-1.39c-0.06,0.88-0.04,1.73,0.76,2.17C69.4,159.3,69.91,158.82,70.36,158.15z
			 M23.42,61.08c0.03,0.04,0.05,0.08,0.06,0.13C23.51,61.15,23.49,61.11,23.42,61.08z M48.95,125.6L48.95,125.6
			c0.06,0.05,0.11,0.1,0.17,0.15l0,0c0.02,0.04,0.04,0.06,0.09,0.07c0.09-0.01,0.17-0.01,0.26-0.02c-0.07-0.06-0.14-0.13-0.21-0.19
			c-0.06-0.06-0.12-0.12-0.18-0.18c-0.15-0.15-0.29-0.29-0.44-0.44c-0.06,0.05-0.12,0.11-0.19,0.16
			C48.61,125.3,48.78,125.45,48.95,125.6z"/>
		<path class="st7" d="M7.91,30.08c-0.01-0.02-0.02-0.05-0.02-0.07c0.02-0.01,0.05-0.02,0.06-0.01c0.01,0.02,0.02,0.05,0.02,0.07
			C7.95,30.07,7.92,30.09,7.91,30.08z M16.8,24.66c0.14-0.08,0.18-0.21,0.18-0.36C16.83,24.38,16.8,24.51,16.8,24.66z M65.15,22.56
			c1.63,1.25,3,2.74,4.32,4.31c1,1.2,1.81,2.55,2.85,3.72c-0.09-2.21-0.72-4.27-1.69-6.25c-0.4-0.82-0.99-1.48-1.72-2.02
			c-1.34-0.97-2.81-0.78-4.29-0.53c0,0.06,0,0.12,0,0.18C64.8,22.17,64.95,22.4,65.15,22.56z M9.1,75.42
			c-0.6-1.68-1.28-3.33-1.83-5.03c-1.56-4.75-2.38-9.65-2.6-14.61c-0.17-3.74-0.17-7.5,0.28-11.25c0.46-3.87,1.08-7.7,2.15-11.45
			c0.18-0.61,0.34-1.23,0.52-1.92c-0.16,0.08-0.24,0.09-0.26,0.13C7.3,31.42,7.25,31.56,7.2,31.7c-2.04,5.7-3.1,11.6-3.43,17.61
			c-0.16,2.91-0.14,5.84,0.1,8.76c0.3,3.69,0.84,7.32,1.84,10.87c0.48,1.71,0.81,3.48,1.76,5.03c0.48,0.11,0.63,0.56,0.89,0.89
			C8.57,75.12,8.73,75.39,9.1,75.42z M51.03,160.51c-0.21-3.03-0.8-5.99-1.65-8.9c-0.22,0.07-0.4,0.18-0.52,0.37
			c1.24,3.73,1.83,7.59,2.16,11.49C51.37,162.48,51.1,161.5,51.03,160.51z M48.2,180.58c0.07-0.05,0.14-0.1,0.22-0.15
			c-0.04-0.04-0.08-0.08-0.13-0.11C48.17,180.37,48.17,180.46,48.2,180.58z M27.19,114.51c-0.14,0.08-0.18,0.21-0.18,0.36
			C27.15,114.79,27.18,114.66,27.19,114.51z M57.41,171.62c-0.47-0.12-0.79,0.18-1.05,0.52c-0.4,0.5-0.54,1.12-0.74,1.71
			c-0.72,2.17-0.81,2.22-3.02,1.85c-0.23-0.04-0.48-0.05-0.71-0.1c-1.08-0.25-1.36-0.66-1.3-1.77c0.05-0.89,0.4-1.74,0.25-2.65
			c-0.53,0.88-0.57,1.91-0.9,2.85c-0.24,0.67-0.5,1.16-1.26,1.23c1.67,0.02,2.14,0.81,1.33,2.28c-0.24,0.44-0.56,0.83-0.87,1.24
			c-0.36,0.47-0.75,0.92-0.85,1.54c0.04,0.04,0.09,0.07,0.13,0.11c0.86-0.87,1.72-1.74,2.58-2.61c0.08-0.13,0.13-0.4,0.34-0.24
			c0.14,0.11,0.02,0.33-0.12,0.46c-0.25,1.1-0.84,2.07-1.31,3.31c0.68-0.67,1.18-1.23,1.55-1.87c0.37-0.64,0.68-1.32,1.22-1.84
			c0.85-0.82,1.59-0.75,2.24,0.21c0.65-0.09,0.73-0.7,1.02-1.12c0.43-0.6,0.5-1.38,0.99-1.95c-0.59-0.52-0.56-1.15-0.27-1.79
			c0.13-0.3,0.25-0.7,0.83-0.46c-0.34,0.28-0.47,0.59-0.39,0.97c0.08,0.39,0.31,0.52,0.63,0.26c0.38-0.3,0.48-0.74,0.42-1.21
			C58.1,172.08,57.85,171.74,57.41,171.62z M39.89,135.38c-0.11-0.31-0.2-0.62-0.16-0.96c-0.02-0.04-0.05-0.08-0.07-0.12
			c0-0.01,0.04-0.03,0.06-0.05c-0.61-0.94-1.07-1.94-1.25-3.06l0,0c-0.02-0.04-0.05-0.08-0.07-0.13c0-0.01,0.04-0.03,0.06-0.05
			c-1.45-2.44-2.41-5.11-3.7-7.63c-1.13-2.19-2.5-4.25-3.42-6.55c-0.03-0.07-0.13-0.11-0.2-0.17c-0.43-0.31-0.41-0.89-0.74-1.26
			c-0.17-0.12-0.18-0.23-0.01-0.35c0-0.15-0.03-0.28-0.17-0.37c-0.41,0.34-0.45-0.15-0.55-0.3c-0.49-0.74-0.94-1.51-1.41-2.27
			c-0.1-0.16-0.15-0.29-0.11-0.49c0.57-2.7,0.81-5.44,0.82-8.2c0-0.13,0.11-0.26,0.17-0.39c0.06,0,0.12,0,0.18,0
			c-0.51-1.98-0.63-4.01-0.73-6.04c-0.01-0.2-0.11-0.39-0.17-0.59c-0.24-0.06-0.47-0.13-0.71-0.19c0.16,1.65,0.43,3.3,0.44,4.95
			c0.02,1.86,0.41,3.7,0.15,5.59c-0.2,1.45-0.03,2.95-0.55,4.47c-0.82-1.34-1.6-2.61-2.37-3.9c-0.58-0.97-1.15-1.95-1.72-2.92
			c-0.15-0.26-0.27-0.53-0.25-0.84c-0.5-0.1-0.51-0.5-0.53-0.89c-0.65-0.33-0.77-1.04-1.1-1.58c-1.47-2.47-2.88-4.97-4.31-7.47
			c-0.14-0.25-0.22-0.55-0.33-0.82c-0.91-1.07-1.42-2.37-2.06-3.6c-0.07-0.13-0.12-0.3,0.02-0.41c0.33-0.27,0.51,0.2,0.79,0.18
			c0.13-1.01,0.55-1.27,1.6-1c-0.23-1.29-0.61-2.54-1.06-3.76c-0.81-0.5-1.36-1.27-1.97-1.97c-1.45-1.66-2.88-3.35-4.31-5.03
			c-0.04,0.42,0.19,0.74,0.37,1.08c1.62,3.25,3.21,6.51,5.03,9.78c-0.55-0.02-0.71-0.37-0.93-0.66c-2.37-3.16-4.11-6.67-5.75-10.24
			c-0.15-0.33-0.2-0.78-0.68-0.86c0.03,0.12,0.04,0.24,0.08,0.34c2.76,7.09,6.12,13.9,9.67,20.62c0.83,1.58,1.82,3.08,2.57,4.7
			c0.75,1.61,2.41,2.9,1.8,5.04c0.37-0.2,0.21-0.66,0.57-0.8c1.25,2.11,2.47,4.21,3.75,6.29c0.36,0.58,0.62,1.14,0.53,1.83
			c0.48-0.55,0.58,0.05,0.71,0.27c1.62,2.75,3.31,5.45,4.79,8.27c3.39,6.42,6.32,13.03,8.29,20.04c1.4,4.96,2.4,9.98,2.72,15.14
			c0.08,1.25,0.06,2.52,0.24,3.77c0.17-4.2,0.15-8.39-0.5-12.55C42.7,144.53,41.5,139.9,39.89,135.38z M39.73,134.42
			C39.73,134.42,39.73,134.42,39.73,134.42C39.73,134.42,39.73,134.42,39.73,134.42L39.73,134.42z"/>
		<path class="st8" d="M43.3,131.37c-0.95-0.34-1.26-1.3-1.83-1.99c-3.85-4.64-6.51-9.96-8.79-15.5c-1.45-3.53-2.75-7.1-3.52-10.85
			c0.06,0,0.12,0,0.18,0c0.8,2.11,1.36,4.3,2.14,6.41c2.57,6.97,5.98,13.48,10.49,19.39c0.24,0.32,0.49,0.69,0.96,0.74
			c0.03,0.11,0.03,0.29,0.1,0.32C43.82,130.27,43.73,130.79,43.3,131.37z M17.52,85.82c0.08,1.27,0.56,2.48,0.53,3.77
			c0.27,0.27,0.19,0.58,0.11,0.94c-0.21-0.31-0.3-0.61-0.29-0.94c-0.12-0.54-0.24-1.07-0.36-1.61c-1.06-0.27-1.47-0.01-1.6,1
			c-0.28,0.03-0.47-0.45-0.79-0.18c-0.13,0.11-0.09,0.28-0.02,0.41c0.64,1.23,1.14,2.53,2.06,3.6c0.26-0.08,0.59-0.56,0.75-0.26
			c0.64,1.22,0.74,0.05,0.99-0.2c0.22-0.23,0.45-0.37,0.74-0.44c0.63-0.15,1.25-0.36,1.89-0.46c0.8-0.13,0.76-0.57,0.4-1.05
			C20.65,88.69,19.08,87.26,17.52,85.82z M12.72,46.42c-0.01,0.09-0.01,0.17-0.02,0.26c1.1,0.19,2.09-0.06,3-0.74
			C14.6,44.87,13.58,45.05,12.72,46.42z M9.05,43.12c-0.41,0-0.53,0.14-0.38,0.51c0.29,0.69,0.69,1.3,1.21,1.84
			c0.44,0.46,0.61,0.22,0.78-0.2C10.69,43.95,10.07,43.13,9.05,43.12z M58.15,158.14c-0.01-0.14-0.1-0.28-0.15-0.42
			c-0.09-0.86-0.45-0.98-1.08-0.4c-0.28,1.46-1.15,2.65-1.84,3.92c-0.85,1.54-1.91,2.93-3.1,4.21c-0.22,0.23-0.41,0.52-0.79,0.53
			c0,0.24,0,0.48,0,0.71c0.01,0.69,0.04,1.39-0.21,2.06c0.53,0.64,0.67,1.49,1.19,2.38c0.08-0.71,0.3-1.16,0.7-1.47
			c0.37-0.29,0.41-0.62,0.32-1.03c-0.16-0.67-0.14-1.17,0.79-0.65c0.1-1-0.09-1.93,0.24-2.81c0.07-0.19,0.12-0.44,0.37-0.45
			c0.26,0,0.29,0.27,0.34,0.45c0.17,0.58,0.13,1.17,0.05,1.77c-0.06,0.43-0.41,0.98,0.4,1.15c0.24,0.05,0.19,0.35,0.09,0.54
			c-0.32,0.6-0.49,1.17-0.02,1.82c0.14,0.19,0.02,0.58,0.01,0.87c0.04,0.03,0.07,0.06,0.11,0.09c0.33-0.28,0.63-0.62,1.01-0.82
			c0.29-0.16,0.8-0.97,0.97,0.15c0.02,0.12,0.3-0.03,0.45-0.11c0.06-0.24,0.12-0.48,0.18-0.72c-0.23-0.18-0.22-0.36,0-0.54
			c0.12-0.22,0.2-0.45,0.18-0.71c-0.32-0.33-0.2-0.74-0.16-1.11C58.54,164.43,58.35,161.29,58.15,158.14z M52.02,142.15
			c0.22-0.01,0.42,0.04,0.53,0.24c0.62,1.17,1.49,2.21,1.86,3.52c0.35,0.19,0.71,0.38,1.06,0.57c-0.96-2.62-2.55-4.88-4.13-7.13
			c-0.18-0.25-0.36-0.47-0.33-0.79c-0.67-0.07-0.83-0.72-1.17-1.13c-1.25-1.5-2.74-2.76-4.02-4.24c-0.48-0.2-0.86-0.51-1.18-0.92
			c-0.29-0.37-0.63-0.65-1.14-0.49c0.38,0.61,0.87,1.12,1.39,1.62c2.05,1.99,4.03,4.04,5.77,6.32c0.14,0.18,0.52,0.33,0.15,0.64
			C51.3,140.89,51.82,141.41,52.02,142.15z M55.38,171.61c0.12,0.08,0.13-0.11,0.19-0.17c-0.04-0.03-0.07-0.06-0.11-0.09
			C55.33,171.41,55.29,171.56,55.38,171.61z"/>
		<path class="st9" d="M48.31,17.13c-1.08-0.32-1.93-1.05-2.86-1.63c1.02,0.21,2.02,0.49,3.05,0.62c2.55,0.33,4.97-0.07,7.16-1.51
			c2.04,0.7,4.13,0.61,6.23,0.38c0.73-0.08,1.51,0.34,2.2-0.21c1.17,0.16,2.34,0.35,3.52,0.42c1.24,0.07,2.22,0.79,2.99,1.74
			c1.45,1.77,2.68,3.69,3.7,5.74c-0.81-0.15-1.05-0.93-1.49-1.44c-2.51-2.94-5.55-4.64-9.5-4.67c-2.43-0.02-4.78,0.5-7.15,0.81
			c-2.41,0.31-4.78,0.49-7.15-0.16C48.78,17.15,48.54,17.16,48.31,17.13z M75.08,23.99c-0.16-0.34-0.28-0.7-0.57-0.96
			c-0.13,0.06-0.26,0.13-0.39,0.19C74.35,23.59,74.62,23.92,75.08,23.99z M77.93,29.31c-0.06-0.14-0.04-0.32-0.23-0.39
			C77.71,29.1,77.74,29.25,77.93,29.31z M79.04,52.49L79.04,52.49c-0.3,0.03-0.59,0.08-0.89,0.12l0,0
			C78.45,52.57,78.74,52.52,79.04,52.49z M71.66,83.96c-0.01,0.2-0.01,0.39-0.02,0.59C71.65,84.35,71.65,84.15,71.66,83.96
			L71.66,83.96z M71.66,83.84L71.66,83.84c0.05-1.69,0.1-3.38,0.13-5.07c0-0.06,0-0.12,0-0.18c0,0,0,0,0,0c0,0.06,0,0.12,0,0.18
			C71.76,80.45,71.71,82.15,71.66,83.84z M78.1,30.43c0.24,0.9,0.4,1.8,0.46,2.69c0.41-0.05,0.83-0.1,1.25-0.15
			c-0.51-1.13-1.07-2.24-1.7-3.33C77.72,29.9,78.03,30.19,78.1,30.43z M58.89,25.37c-0.18-0.21-0.43-0.17-0.67-0.17
			c-1.45,0.02-2.81-0.4-4.16-0.89c-2-0.72-3.8-1.85-5.7-2.76c-4.26-2.02-8.41-2.07-12.41,0.75c-1.19,0.84-2.05,2.08-3.39,2.71
			c0,0.3-0.22,0.47-0.4,0.67c-1.62,1.8-3.21,3.63-4.45,5.72c-0.45,0.75-0.97,1.49-1.06,2.41c0.95-1.25,1.83-2.56,2.86-3.74
			c2.63-3.03,5.54-5.74,9.25-7.45c0.13-0.06,0.28-0.09,0.42-0.13c1.53-0.75,3.09-1.3,4.83-0.93c1-0.03,1.84,0.45,2.7,0.85
			c2.54,1.18,5.13,2.24,7.88,2.87C56.01,25.6,57.45,25.76,58.89,25.37z M39.07,167.89c-0.78,2.16-1.99,4.04-3.48,5.75
			c-0.01,1.03-0.91,1.43-1.5,1.98c-2.81,2.62-5.88,3.17-9.35,1.85c-3.09-1.17-5.44-3.33-7.33-5.99c-0.25-0.35-0.46-0.7-0.96-0.65
			c0.01,0.12,0.02,0.24,0.03,0.36c0.41,0.08,0.41,0.45,0.54,0.75c1.16,2.74,2.81,5.15,5.34,6.77c4.06,2.61,8.25,2.92,12.48,0.32
			c0.08-0.05,0.16-0.08,0.24-0.12c0,0-0.01,0.01-0.01,0.01c0.06-0.06,0.12-0.12,0.19-0.18c0.76-0.73,1.22-1.67,1.72-2.58
			c1.83-3.32,2.95-6.88,3.41-10.63c0.11-0.89,0.6-1.84,0.03-2.76C40.02,164.48,39.68,166.22,39.07,167.89z M55.51,147.64
			c-0.86-0.99-1.99-1.27-3.2-1.1c-1.4,0.21-2.78,0.55-4.16,0.84c-0.03,0.56,0,1.1,0.57,1.42c3.28-1.62,4.54-1.48,7.11,0.74
			C56,148.86,55.33,148.32,55.51,147.64z M10.4,38.23c-0.51,0.37-0.9,0.85-1.3,1.32c-0.04,0.29-0.43,0.57-0.24,0.79
			c0.23,0.27,0.65,0.14,1,0.09c0.17-0.03,0.33-0.11,0.5-0.17c0.5-0.47,0.83-0.99,0.72-1.72C11.01,38.06,10.85,37.9,10.4,38.23z
			 M11.77,41.12c-0.04,0.04-0.09,0.07-0.14,0.1c-0.41,0.6-0.04,2.18,0.62,2.65c0.47,0.33,2.22-0.17,2.59-0.74
			c0.05-0.47,0.11-0.93,0.15-1.4c0.03-0.3,0.02-0.55-0.27-0.77C13.44,40,12.89,40.02,11.77,41.12z M15.26,37.88
			c-0.53-0.29-1.09-0.44-1.68-0.52c-0.23,0.03-0.47,0.07-0.7,0.1c0.05,0.22,0.11,0.44,0.16,0.65c0.43,0.64,1.01,0.99,1.8,0.94
			c0.14-0.04,0.29-0.07,0.42-0.14c0.25-0.13,0.62-0.24,0.6-0.56C15.84,38.09,15.49,38,15.26,37.88z"/>
		<path class="st10" d="M55.83,149.54c0.17-0.68-0.5-1.22-0.32-1.9c1.11,1.2,1.65,2.57,1.25,4.21c-0.07-0.54-0.27-1.03-0.57-1.48
			C56.26,150.01,55.91,149.83,55.83,149.54z M55.49,117.92c-0.05-0.85,0.15-1.65,0.37-2.46c0.59-2.19,1.38-4.32,2.23-6.42
			c-0.64-0.52-1.22-1.1-1.78-1.71c-1.51,2.47-3.09,4.9-4.63,7.35c-0.14,0.22-0.31,0.44-0.3,0.73c0.69,1.77,1.8,3.29,2.87,4.84
			C54.73,119.52,55.16,118.75,55.49,117.92z M47.99,127.49c-0.54-0.69-1.08-1.38-1.62-2.07c-0.06,0.07-0.11,0.14-0.17,0.2
			C46.62,126.42,47.2,127.05,47.99,127.49z M47.91,149.18c0.06,0.22,0.15,0.44,0.23,0.66c0.51-0.17,0.8-0.47,0.58-1.04
			c-0.57-0.32-0.6-0.86-0.57-1.42c-0.83,0.14-1.66,0.24-2.5,0.18c0.1,0.04,0.22,0.15,0.31,0.13
			C47.22,147.39,47.66,148.16,47.91,149.18z M58.84,162.31c0.1-1.76-0.2-3.54-0.33-5.32c-0.26,0.18-0.12,0.65-0.51,0.74
			c0.05,0.14,0.14,0.28,0.15,0.42c0.2,3.14,0.39,6.28,0.05,9.43c-0.04,0.36-0.16,0.78,0.16,1.11c0-0.12-0.02-0.24,0.01-0.36
			C58.83,166.34,58.72,164.31,58.84,162.31z M58.17,169.93c0-0.18,0-0.36,0-0.54C57.95,169.57,57.95,169.75,58.17,169.93z
			 M62.28,22.87c0.12,0,0.25,0,0.37-0.01C62.52,22.67,62.4,22.7,62.28,22.87z M59.79,184.29c-0.96,1.46-2.31,1.97-4.01,1.67
			c-0.38-0.07-0.78-0.03-1.16-0.1c-2.55-0.53-4.45,0.58-6.1,2.36c0.41,0,0.83,0,1.24-0.01c0.18-0.1,0.37-0.2,0.55-0.31
			c1.26-0.59,2.52-1.17,3.96-1.14c0.57,0.01,1.12,0.1,1.53,0.55c1.85-0.37,3.56-1.11,5.23-1.98c0.3-0.59,0.6-1.18,0.9-1.77
			c-0.45,0.23-0.89,0.46-1.35,0.67C60.34,184.35,60.08,184.62,59.79,184.29z M45.81,183.72c-0.38-0.25-0.6,0.08-0.84,0.26
			c-0.57,0.42-1.13,0.86-1.68,1.32c-0.23,0.19-0.45,0.27-0.74,0.2l0,0c-0.12,0.69-0.51,1.08-1.22,1.13
			c0.01,0.12,0.02,0.24,0.02,0.36c0.06,0.06,0.11,0.11,0.17,0.17c0.17,0.28,0.52,0.1,0.72,0.28c-0.03-0.45,0.38-0.55,0.63-0.76
			C43.9,185.74,44.95,184.83,45.81,183.72z M51.43,185.14c0.9-0.49,1.82-0.65,2.83-0.38c0.78,0.21,1.58,0.2,2.35-0.09
			c-1.75,0.03-3.36-0.59-4.97-1.17c-0.18-0.07-0.33-0.23-0.49-0.35c-0.97,1.09-2.16,1.4-3.54,0.95c-0.31-0.1-0.53-0.1-0.79,0.15
			c-1.16,1.15-2.34,2.27-3.51,3.41c0.49,0.11,0.99,0.23,1.48,0.34c1.15-1.61,2.56-2.77,4.78-2.78c-0.82,1.02-1.46,2.08-2.5,2.82
			c-0.02,0.05-0.02,0.11-0.01,0.16c0.28,0,0.57-0.01,0.85-0.01C48.79,186.84,50.03,185.9,51.43,185.14z M33.1,21.25
			C33.1,21.25,33.1,21.25,33.1,21.25c0.08-0.02,0.16-0.04,0.23-0.06c-0.01-0.02-0.03-0.05-0.04-0.07
			C33.22,21.16,33.16,21.2,33.1,21.25z M22.9,91.55c0.23,2.72,0.48,5.44,0.34,8.17c-0.05,0.99-0.05,2-0.34,2.96
			c0.02,0.39,0.03,0.78,0.53,0.89c0.32-2.28,0.72-4.56,0.83-6.86c0.07-1.48,0.23-2.96-0.1-4.43C23.59,92.27,23.45,91.57,22.9,91.55z
			 M10.17,77.21c-0.46-0.54-0.78-1.16-1.08-1.79c-0.37-0.02-0.53-0.29-0.73-0.55c-0.26-0.33-0.41-0.78-0.89-0.89
			C7.46,74.35,7.52,74.7,7.74,75c0.3,0.39,0.51,0.8,0.47,1.31c0.48,0.08,0.53,0.53,0.68,0.86c1.64,3.57,3.38,7.08,5.75,10.24
			c0.22,0.29,0.38,0.64,0.93,0.66c-1.82-3.27-3.41-6.53-5.03-9.78C10.37,77.95,10.13,77.62,10.17,77.21z M17.88,89.58
			c-0.02,0.33,0.08,0.63,0.29,0.94c0.08-0.36,0.16-0.67-0.11-0.94C18,89.58,17.94,89.58,17.88,89.58z M14.76,25.57
			c-0.19-0.07-0.2,0.22-0.28,0.35c0.05,0,0.11,0,0.16-0.01C14.78,25.82,14.89,25.62,14.76,25.57z"/>
		<path class="st11" d="M56.72,34.23c-0.19-0.18-0.35-0.4-0.52-0.61c0.48,0.01,0.94,0.27,1.43,0.18c0.29,0.13,0.58,0.26,0.88,0.38
			c0.43,0.94,1.24,1.58,1.86,2.37c0.35,0.45,0.68,0.9,0.98,1.36c-0.35,0.24-0.68,0.5-1.01,0.76C59.37,37.06,58.17,35.57,56.72,34.23
			z M45.29,28.41c-2.82-0.26-5.63-0.24-8.43,0.2c0,0.06,0,0.11,0,0.17c0.84,0.12,1.65-0.16,2.48-0.19c2.36-0.08,4.68,0.22,7.01,0.54
			c-0.06-0.17-0.12-0.34-0.18-0.51C45.87,28.56,45.58,28.48,45.29,28.41z"/>
		<path class="st12" d="M47.99,127.49c-0.54-0.69-1.08-1.38-1.62-2.07c-0.09-0.34-0.28-0.67-0.23-1.05c0.5-0.4,0.92,0.03,1.37,0.13
			c0.07,0.03,0.15,0.06,0.22,0.09c0.1,0.08,0.19,0.16,0.29,0.24c0.14,0.1,0.28,0.2,0.42,0.3c0.17,0.15,0.33,0.3,0.5,0.45
			c0.06,0.05,0.11,0.1,0.17,0.15c0.02,0.04,0.04,0.06,0.09,0.07c0.16,0.25,0.37,0.44,0.73,0.6c-0.14-0.32-0.26-0.51-0.47-0.62
			c-0.07-0.06-0.14-0.13-0.21-0.19c-0.06-0.06-0.12-0.12-0.18-0.18c-0.15-0.15-0.29-0.29-0.44-0.44c-0.15-0.1-0.29-0.2-0.44-0.3
			c-0.11-0.09-0.21-0.17-0.32-0.26c-0.07-0.03-0.15-0.07-0.22-0.1c-0.51-0.4-1.16-0.62-1.54-1.19c-0.16-0.24-0.41-0.49-0.13-0.79
			c0.24-0.27,0.51-0.07,0.72,0.06c0.28,0.17,0.54,0.37,0.77,0.6c0.6,0.59,1.01,1.37,1.95,1.58c0.33,0.08,0.53,0.47,0.73,0.76
			c0.6,0.88,1.1,1.82,1.82,2.63c0.8,0.9,0.54,2.15-0.42,2.88c-1.16,0.08-2.1-0.23-2.63-1.38c-0.15-0.33-0.53-0.46-0.82-0.66
			c-0.74-0.52-1.62-0.91-1.78-1.98c-0.02-0.15-0.28-0.28-0.44-0.4c-0.42-0.32-0.89-0.6-1.27-0.97c-0.29-0.28-0.8-0.64-0.36-1.1
			c0.4-0.42,0.77,0.03,1.06,0.28c0.34,0.29,0.61,0.65,0.9,0.98C46.62,126.42,47.2,127.05,47.99,127.49z M48.24,122.95
			c0.08-0.33,0.1-0.61,0.21-0.84c0.34-0.74-0.1-1.18-0.58-1.6c-0.17-0.15-0.39-0.3-0.64-0.11c-0.24,0.18-0.19,0.43-0.11,0.65
			C47.37,121.71,47.71,122.33,48.24,122.95z M42.06,121.06c0.13,0.14,0.45,0.2,0.22,0.55c-0.77,1.17,0.59,1.08,0.98,1.53
			c0.36,0.4,0.91,0.5,1.05-0.32c0.01-0.03,0.28-0.01,0.43-0.02c0.53-0.69-0.27-1.04-0.39-1.57c-0.2-0.86-0.58-1.01-1.14-0.21
			c-0.68-1-1.2-2.06-2.27-2.64c-0.43,0.07-0.3,0.34-0.23,0.6C40.95,119.81,41.49,120.44,42.06,121.06z M56.74,139.69
			c-0.47-1.23-1.06-2.4-1.73-3.53c-0.49-0.6-0.95-1.22-1.56-1.7c-1.17-0.92-2.57-0.45-2.99,0.99c-0.33,1.13,0.08,2.09,0.62,3.04
			c0.73,0.41,0.39-0.31,0.42-0.47c0.21-1.09,0.98-1.42,1.88-0.76c0.5,0.37,0.81,0.86,1.01,1.44c0.37,1.07,0.68,2.16,1.11,3.21
			c0.73,1.76,2.49,2.34,4.17,1.37C58.06,142.57,57.32,141.2,56.74,139.69z M62.85,148.39c-0.01-0.28-0.21-0.55-0.3-0.83
			c-0.44-1.43-1.34-2.42-2.78-2.88c-0.39,0.01-0.79-0.13-1.2,0c0.44,1.23,0.86,2.41,1.29,3.6c0.15,0.35,0.27,0.72,0.46,1.06
			c0.5,0.89,1.58,1.14,2.66,0.53C63.85,149.37,62.87,148.89,62.85,148.39z M48,152.55c0.33-0.22,0.59-0.4,0.86-0.57
			c0.13-0.19,0.31-0.31,0.52-0.37c1.8-1.35,3.87-1.54,6.02-1.34c0.27,0.03,0.53,0.07,0.79,0.1c0.07-0.36-0.28-0.54-0.36-0.83
			c-2.57-2.23-3.84-2.36-7.11-0.74c0.22,0.58-0.07,0.87-0.58,1.04c-0.34,0.43-1.06,0.54-1.07,1.25c0.41,0,0.81,0,1.21,0
			C48.39,151.63,47.88,152,48,152.55z M57.5,172.51c-0.58-0.24-0.7,0.16-0.83,0.46c-0.29,0.64-0.32,1.27,0.27,1.79
			c0.88,0.11,1.18-0.5,1.43-1.16c0.11-0.3,0.12-0.72,0.33-0.89c0.51-0.42,0.53-0.66-0.11-0.89c-0.24-0.09-0.16-0.27-0.07-0.43
			c0.38-0.64-0.12-0.65-0.52-0.74c-0.15,0.08-0.43,0.23-0.45,0.11c-0.17-1.11-0.68-0.3-0.97-0.15c-0.37,0.2-0.67,0.54-1.01,0.82
			c-0.06,0.06-0.07,0.25-0.19,0.17c-0.08-0.05-0.04-0.2,0.08-0.27c0-0.3,0.13-0.68-0.01-0.87c-0.47-0.64-0.3-1.21,0.02-1.82
			c0.1-0.19,0.14-0.49-0.09-0.54c-0.81-0.17-0.46-0.72-0.4-1.15c0.08-0.6,0.12-1.19-0.05-1.77c-0.05-0.18-0.07-0.46-0.34-0.45
			c-0.25,0-0.3,0.25-0.37,0.45c-0.33,0.88-0.15,1.81-0.24,2.81c-0.93-0.52-0.95-0.02-0.79,0.65c0.09,0.4,0.05,0.74-0.32,1.03
			c-0.39,0.31-0.62,0.76-0.7,1.47c-0.53-0.88-0.66-1.74-1.19-2.38c-0.55,0.49-1.69-0.39-1.95,0.82c-0.01,0.06-0.28,0.06-0.41,0.12
			c-0.09,0.05-0.23,0.21-0.22,0.24c0.41,0.65-0.15,1.28-0.04,1.9c0.1,0.54,0.15,1.22,0.97,1.1c0.49-0.07,0.73-0.46,0.82-0.95
			c0.08-0.47,0.28-0.97-0.38-1.35c0,0.32,0.04,0.55-0.01,0.77c-0.06,0.3-0.22,0.6-0.59,0.54c-0.33-0.06-0.34-0.38-0.33-0.65
			c0.03-0.7,0.35-1.27,1.07-1.32c0.77-0.06,0.96,0.54,0.95,1.2c0.15,0.9-0.21,1.76-0.25,2.65c-0.06,1.11,0.22,1.51,1.3,1.77
			c0.23,0.05,0.47,0.06,0.71,0.1c2.21,0.37,2.29,0.32,3.02-1.85c0.2-0.59,0.34-1.21,0.74-1.71c0.27-0.34,0.59-0.64,1.05-0.52
			c0.44,0.12,0.69,0.46,0.75,0.91c0.06,0.47-0.04,0.91-0.42,1.21c-0.33,0.26-0.55,0.13-0.63-0.26
			C57.03,173.1,57.16,172.79,57.5,172.51z M62.38,141.06c0.76-1.11,0.91-2.31,0.6-3.59c-0.21-0.42-0.43-0.84-0.64-1.26
			c-0.81-1-1.81-1.79-2.83-2.56c-0.7-0.53-1.28-1.14-1.54-2.01c-0.33-1.12-0.01-1.52,1.13-1.37c0.11,0.01,0.23-0.01,0.35-0.02
			c0.02-0.12,0.04-0.24-0.1-0.31c-0.23-0.02-0.38-0.15-0.47-0.35c-0.44-0.3-0.87-0.63-1.38-0.8c-0.66-0.22-1.31-0.24-1.85,0.25
			c-0.53,0.49-0.6,1.12-0.41,1.81c0.26,0.95,0.82,1.72,1.48,2.41c1.34,1.4,2.71,2.77,4.05,4.17c0.81,0.84,1.28,1.85,1.4,3.02
			C62.19,140.65,62.08,140.93,62.38,141.06z M50.41,123.8c0.57,1.01,1.14,2.02,1.73,3.02c0.68,1.17,1.33,2.35,1.07,3.83
			c1.34-0.73,1.23-1.95,0.58-2.85c-0.7-0.96-1.58-1.8-2.12-2.87c-0.45-0.91-0.32-1.66,0.3-1.97c0.7-0.35,1.71,0.03,2.14,0.8
			c0.19,0.35,0.35,0.78-0.04,1.05c-0.39,0.27-0.72-0.09-1.01-0.33c-0.1-0.09-0.16-0.25-0.21-0.39c-0.06-0.15,0-0.41-0.28-0.33
			c-0.2,0.06-0.26,0.24-0.21,0.44c0.15,0.71,0.63,1.14,1.29,1.36c0.51,0.17,1.01,0.05,1.24-0.43c0.28-0.58,0.14-1.17-0.32-1.65
			c-0.17-0.17-0.35-0.33-0.5-0.51c-0.18-0.2-0.37-0.41-0.32-0.71c0.13-0.8-0.36-0.64-0.71-0.39c-0.42,0.3-0.63,0.28-0.84-0.19
			c-0.28-0.61-0.63-0.41-0.92,0c-0.15,0.22-0.22,0.48-0.33,0.73c-0.34,0.02-0.41-0.51-0.72-0.28c-0.23,0.17-0.14,0.49-0.13,0.76
			C50.09,123.23,50.25,123.52,50.41,123.8z M63.95,140.52c-0.4,0.97-0.46,1.83-0.5,2.68c-0.09,1.92,1.07,3.42,1.72,5.09
			c0.14,0.37,0.38,0.07,0.54-0.06c0.99-0.76,1.28-2.08,0.78-3.38C65.88,143.32,64.81,142.07,63.95,140.52z M68.16,147.79
			c-0.75,0.46-1.23,1.13-1.76,2.05c0.89-0.31,1.55-0.54,2.21-0.77C68.58,148.6,68.33,148.21,68.16,147.79z M63.23,151.49
			c-1.77-0.12-3.04,0.67-4.3,1.49c-0.31,0.27-0.62,0.54-0.93,0.82c-0.03,0.05-0.05,0.12-0.09,0.15c-1.18,0.79-0.94,2.22-1.43,3.31
			c-0.19,0.42,0.3-0.05,0.45,0.07c0.62-0.58,0.98-0.46,1.08,0.4c0.4-0.09,0.26-0.55,0.51-0.74
			C59.37,154.62,61.32,153.17,63.23,151.49z M42.57,126.57c-0.06,0.36,0.04,0.66,0.39,0.81c0.4,0.17,0.81,0.24,1.18-0.05
			c0.34-0.26,0.72-0.37,1.14-0.42c-0.65-0.41-1.29-0.79-2.06-0.79C42.92,126.12,42.63,126.19,42.57,126.57z M42.04,178.29
			c1.27,1.86,0.4,4.11-1.75,4.76c-0.38,0.11-1.24-0.11-1.07,0.47c0.15,0.54,0.87,0.01,1.34-0.03c0.11-0.01,0.23-0.07,0.34-0.12
			c2.83-1.08,3.49-3.09,1.85-5.62c-0.52-0.8-1.09-1.57-1.3-2.53c-0.18-0.84,0.23-1.72,0.98-2.11c0.8-0.42,1.76-0.13,2.04,0.62
			c0.21,0.56-0.21,1.36-0.78,1.5c-0.66,0.16-0.65-0.36-0.73-0.78c-0.88,0.67-0.85,1.2,0.07,1.65c0.96,0.47,1.77,0.28,2.26-0.52
			c0.6-0.96,0.44-2.41-0.49-2.86c-0.82-0.4-0.75-0.85-0.44-1.5c-0.92-0.1-1.35,0.52-1.84,1.03c-0.38-0.24-0.11-0.89-0.59-0.86
			c-0.44,0.02-0.65,0.47-0.84,0.85c-0.05,0.11-0.08,0.23-0.15,0.33c-0.19,0.28-0.08,1.07-0.8,0.45c-0.18-0.16-0.29,0.13-0.37,0.27
			c-0.4,0.7-0.32,1.39,0.12,2.02C40.59,176.33,41.36,177.29,42.04,178.29z M52.02,142.15c-0.2-0.74-0.72-1.26-1.22-1.8
			c-0.32-0.2-0.65-0.4-0.97-0.61c1.04,1.5,1.44,3,0.37,4.69C51.47,144.06,51.88,143.52,52.02,142.15z M44.48,146.96
			c0.34,0.31,0.73,0.5,1.17,0.61c0.84,0.05,1.67-0.04,2.5-0.18c1.39-0.28,2.77-0.63,4.16-0.84c1.22-0.18,2.35,0.11,3.2,1.1
			c1.11,1.2,1.65,2.57,1.25,4.21c0.02,0.39-0.15,0.74-0.3,1.08c-0.08,0.2-0.04,0.37,0.14,0.43c0.18,0.07,0.21-0.15,0.27-0.26
			c0.15-0.24,0.29-0.5,0.43-0.75c0.57-2.33,0.07-4.33-1.84-5.88c-0.35-0.19-0.71-0.38-1.06-0.57c-1.42-0.39-2.85-0.39-4.31-0.26
			c-1.09,0.1-2.19,0.17-3.21-0.36c-0.29-0.15-0.56-0.33-0.72-0.63c-0.73-0.73-0.91-1.57-0.55-2.53c0.23-0.82,0.8-1.23,1.62-1.29
			c0.7-0.05,1.2,0.29,1.49,0.91c0.23,0.48,0.32,0.99-0.04,1.43c-0.4,0.47-0.79,0.09-1.22-0.16c-0.01,0.77,0.19,1.37,0.88,1.55
			c0.72,0.18,1.16-0.32,1.46-0.91c0.51-1.01,0.1-2.62-0.85-3.4c-1-0.83-2.19-0.86-3.24,0c-0.34,0.28-0.5,0.27-0.79-0.03
			c-0.25-0.27-0.43-0.67-0.88-0.69c-0.08,0.34-0.15,0.67-0.23,1.01c0.02,0.7,0.39,1.29,0.62,1.96c-0.24,0-0.45-0.02-0.65,0.01
			c-0.28,0.04-0.63-0.31-0.81,0.01c-0.18,0.31-0.05,0.69,0.12,1.02c0.19,0.38,0.41,0.72,0.72,1.01c0.31,0.29,0.65,0.55,1.03,0.87
			C43.7,145.98,43.67,146.22,44.48,146.96z M46.37,129.72c1.07,0.51,1.8,1.45,2.69,2.18c1.29,1.07,1.94,1.07,3.18-0.03
			c-0.17-0.3-0.48-0.06-0.69-0.17c-0.72,0.09-1.35-0.22-1.93-0.57c-1.12-0.67-2.19-1.42-3.28-2.13c-0.5-0.32-0.95-0.71-1.54-0.87
			c-0.31-0.09-0.7-0.18-0.92,0.09c-0.19,0.24,0.3,0.4,0.26,0.73c-0.46,0.06-0.87,0.26-1.2,0.62c0.03,0.11,0.03,0.29,0.1,0.32
			c0.78,0.38,0.7,0.89,0.26,1.47c0.06,0.13,0.13,0.27,0.19,0.4c0.52-0.16,0.85,0.12,1.14,0.49c0.32,0.41,0.7,0.72,1.18,0.92
			c0.52,0,1.05-0.03,1.23-0.65c0.21-0.75-0.1-1.34-0.68-1.8c-0.28-0.22-0.69-0.5-0.93-0.13c-0.31,0.5,0.32,0.29,0.49,0.46
			c0.33,0.33,0.67,0.73,0.37,1.16c-0.32,0.45-0.75,0.14-1.09-0.1c-0.38-0.27-0.61-0.65-0.72-1.1c-0.13-0.5-0.03-0.98,0.37-1.29
			C45.32,129.39,45.87,129.48,46.37,129.72z M69.64,155.42c-0.47-0.3-0.96-0.52-1.55-0.32c1.01,2.17,1.56,2.47,2.78,1.52
			c0.12-0.31-0.15-0.52-0.18-0.8C70.28,155.85,69.97,155.63,69.64,155.42z M65.91,152.46c-0.19-0.13-0.29-0.44-0.38-0.69
			c-1.26-3.35-2.67-6.63-4.41-9.76c-0.19-0.35-0.34-0.71-0.2-1.11c0.22-0.63,0.01-1.19-0.28-1.71c-1.43-2.55-3.66-4.3-5.98-5.96
			c0.54,1.2,1.28,2.28,1.73,3.5c0.78,1.28,1.25,2.73,2.18,3.93c0.34,0.45,0.65,0.91,1.22,1.09c0.52-0.06,0.71,0.3,0.91,0.69
			c1.71,3.2,3.1,6.53,4.28,9.96c0.08,0.22,0.25,0.45,0.13,0.68c-0.59,1.12-0.07,1.99,0.58,2.85c0.43,0.35,0.64,0.93,1.24,1.2
			c0.05-0.32,0.13-0.6,0.14-0.88C67.13,154.86,67.32,153.43,65.91,152.46z M66.05,157.16c-0.37,0.21-0.18,0.59-0.26,0.88
			c-0.13,0.55,0.1,1.16-0.18,1.67c-0.36,0.66,0.08,0.51,0.42,0.5c0.99-0.63,1.18-1.17,0.77-2.09
			C66.63,157.74,66.36,157.44,66.05,157.16z M63.07,159.28c0.67,0.4,1.23,0.41,1.74-0.04c0.61-0.54,0.74-1.72,0.32-2.77
			C64.05,157.13,64.26,158.67,63.07,159.28z M64.02,156.02c0.23-0.02,0.47-0.05,0.82-0.1c-0.49-1-0.6-1.95-0.1-3.09
			c-1.39,1.03-2.58,1.95-3.03,3.5c-0.21,0.72,0.1,1.95,0.43,1.83c0.6-0.22,1.03-0.79,1.05-1.42
			C63.19,156.07,63.56,156.06,64.02,156.02z M67.66,158.77c0.01,0.67-0.12,1.23,0.13,1.77c0.14,0.3,0.29,0.54,0.67,0.35
			c0.32-0.16,0.55-0.36,0.4-0.77C68.66,159.57,68.31,159.15,67.66,158.77z M68.73,158.93c0.67,0.37,1.17-0.11,1.62-0.78
			c-1.05-0.03-1.39-1.2-2.38-1.39C67.91,157.63,67.93,158.48,68.73,158.93z M68.34,154.16c0.37,0.01,0.57-0.39,0.78-0.67
			c0.08-0.12,0.17-0.23,0.25-0.35c0.3,0.08,0.44,0.44,0.78,0.43c-0.24-0.79-0.48-1.58-0.71-2.37c-1.06-0.11-2.04,0.13-3.11,0.7
			c0.91,0.24,1.31,0.79,1.61,1.48C68.05,153.65,67.89,154.15,68.34,154.16z M61.06,181.12c-0.29-0.06-0.44,0.17-0.64,0.23
			c-0.07,0.01-0.14,0.02-0.21,0.03c0.02-0.06,0.05-0.13,0.07-0.19c0.15-0.68,0.65-1.29,0.38-2.04c-0.13-0.1-0.18,0.02-0.2,0.08
			c-0.32,0.7-0.69,0.94-1.56,0.68c-1.63-0.49-2.97,0.61-3.09,2.3c-0.05,0.71,0.18,1.28,0.86,1.49c0.72,0.22,1.05-0.33,1.37-0.92
			c-0.35-0.04-0.61,0.49-0.88,0.1c-0.21-0.31-0.2-0.7-0.02-1.03c0.14-0.25,0.36-0.48,0.58-0.67c0.44-0.36,0.98-0.56,1.48-0.2
			c0.46,0.34,0.32,0.88,0.16,1.32c-0.48,1.28-1.3,2.2-2.75,2.37c-0.77,0.3-1.57,0.31-2.35,0.09c-1.01-0.28-1.93-0.11-2.83,0.38
			c-1.4,0.76-2.64,1.7-3.52,3.06c0.21,0.01,0.41,0.01,0.62,0.02c1.65-1.78,3.55-2.89,6.1-2.36c0.38,0.08,0.78,0.04,1.16,0.1
			c1.7,0.3,3.05-0.2,4.01-1.67c-0.33-0.27-0.41-0.48-0.03-0.85C60.4,182.82,60.86,182.07,61.06,181.12z M15.11,32.19
			c0.21,0.43,0.4,0.55,0.85,0.25c0.66-0.44,1.38-0.79,2.08-1.18c-0.25-0.47-0.48-0.95-0.74-1.41c-0.71-1.24-0.71-1.24-1.92-0.67
			c-0.27,0.17-0.53,0.37-0.82,0.51c-0.51,0.24-0.73,0.49-0.3,1.04C14.61,31.17,14.86,31.68,15.11,32.19z M19.66,42.05
			c-0.34-0.05-0.63-0.21-0.92-0.37c-0.29-0.16-0.59-0.32-0.93-0.35c-0.13-0.24-0.1-0.68-0.59-0.5c-1.09,0.99-1.22,2.02-0.38,2.8
			c0.38,0.35,0.64,0.38,0.79-0.2c0.18-0.69,0.27-1.39,0.18-2.1h0c0,0,0,0,0,0c0.34,0.03,0.64,0.19,0.93,0.35
			S19.32,42.01,19.66,42.05c0.09,1.18-0.2,2.26-0.85,3.25c-0.37,0.92-1.14,1.51-1.83,2.17c-0.6,0.28-1.13,0.71-1.8,0.83l0,0
			c-0.17,0.07-0.34,0.14-0.51,0.21c-1.08,0.21-2.15,0.18-3.23-0.02c-0.36-0.12-0.72-0.25-1.07-0.37c-1.64-0.91-2.92-2.15-3.51-3.99
			c-0.06-0.2-0.08-0.41-0.11-0.61c-0.43-1.67-0.23-3.24,0.69-4.71c0.53-1.08,1.33-1.89,2.41-2.42c0.02-0.06,0.06-0.08,0.12-0.06
			c0.07-0.05,0.13-0.09,0.2-0.13c0.55-0.34,1.18-0.47,1.78-0.65c0.18-0.04,0.36-0.07,0.55-0.11c1.95-0.04,3.69,0.52,5.18,1.8
			c0.42,0.54,0.84,1.08,1.26,1.61c0.18,0.53,0.37,1.07,0.55,1.6c0.16,0.22,0.22,0.46,0.16,0.72C19.65,41.46,19.66,41.75,19.66,42.05
			z M13.04,38.11c0.43,0.64,1.01,0.99,1.8,0.94v0h0c0.02,0.18,0.09,0.32,0.2,0.43c-0.11-0.11-0.18-0.24-0.2-0.43
			c0.14-0.04,0.29-0.07,0.42-0.14c0.25-0.13,0.62-0.24,0.6-0.56c-0.02-0.26-0.37-0.34-0.6-0.47c-0.53-0.29-1.09-0.44-1.68-0.52
			c-0.23,0.03-0.47,0.07-0.7,0.1c0.09-0.18,0.2-0.25,0.32-0.25c-0.12,0-0.23,0.07-0.32,0.25h0c0,0,0,0,0,0
			C12.93,37.67,12.98,37.89,13.04,38.11z M9.1,39.54c-0.04,0.29-0.43,0.57-0.24,0.79c0.23,0.27,0.65,0.14,1,0.09
			c0.17-0.03,0.33-0.11,0.5-0.17l0,0c0.5-0.47,0.83-0.99,0.72-1.72c-0.07-0.48-0.22-0.63-0.67-0.31C9.89,38.6,9.51,39.08,9.1,39.54z
			 M10.66,45.28c0.04-1.33-0.59-2.15-1.61-2.16c-0.41,0-0.53,0.14-0.38,0.51l0,0c0.29,0.69,0.69,1.3,1.21,1.84
			C10.31,45.94,10.49,45.7,10.66,45.28z M15.69,45.95c-1.09-1.08-2.12-0.9-2.98,0.47c-0.01,0.09-0.01,0.17-0.02,0.26
			C13.8,46.88,14.79,46.63,15.69,45.95z M14.85,43.13c0.05-0.47,0.11-0.93,0.15-1.4c0.03-0.3,0.02-0.55-0.27-0.77
			c-1.29-0.96-1.84-0.94-2.96,0.16c-0.04,0.04-0.09,0.07-0.14,0.1c-0.41,0.6-0.04,2.18,0.62,2.65C12.72,44.2,14.48,43.7,14.85,43.13
			z M13.25,52.53c-0.02-0.02-0.04-0.04-0.06-0.06c-0.89-0.86-0.89-0.86-1.79-0.02c-0.35,0.36-0.7,0.72-1.05,1.08
			c-0.12,0.18-0.12,0.35,0.02,0.52c0.36,0.35,0.72,0.69,1.08,1.04c0.95,0.78,0.95,0.78,1.85-0.15
			C14.47,53.71,14.47,53.71,13.25,52.53z M40.35,182.07c1.43-1.42,1.14-4.22-0.57-4.95c-0.56-0.24-1.09-0.56-1.66-0.77
			c-0.07,0.02-0.14,0.03-0.21,0.05c0.01,0.11,0.02,0.23,0.03,0.34c0.21,0.28,0.33,0.52-0.2,0.55c-0.18,0.01-0.42-0.1-0.51,0.18
			C39.12,178.4,39.93,180.08,40.35,182.07z M39.53,184.65c-1.06-0.69-2.2-0.91-3.44-0.59c-0.02,0.36,1.04,0.55,0.12,1.06
			c0.41,0.08,0.73,0.14,1.05,0.21c1.41,0.16,2.66,0.71,3.73,1.65c0.12,0,0.24,0,0.37-0.01c-0.01-0.12-0.02-0.24-0.02-0.36
			C40.85,185.85,40.24,185.2,39.53,184.65z M44.79,188.01c0.29,0.01,0.59,0.03,0.88,0.04c0.43,0.34,0.93,0.12,1.4,0.16
			c-0.01-0.05-0.01-0.11,0.01-0.16c1.03-0.73,1.68-1.8,2.5-2.82C47.35,185.24,45.93,186.39,44.79,188.01z M50.32,187.9
			c-0.18,0.1-0.37,0.2-0.55,0.31c0.65-0.09,1.33,0.24,1.95-0.16c0.14-0.01,0.28-0.02,0.41-0.03c0.32,0,0.67,0.18,0.94-0.14
			c0.1-0.01,0.2-0.02,0.31-0.03c0.24,0.01,0.51,0.15,0.68-0.15c0.12-0.01,0.24-0.01,0.36-0.02c0.2,0.02,0.41,0.09,0.53-0.16
			c0.07-0.01,0.14-0.02,0.21-0.02c0.23,0.06,0.43,0.02,0.6-0.16c0,0,0.06-0.01,0.06-0.01c-0.41-0.45-0.96-0.54-1.53-0.55
			C52.84,186.74,51.58,187.31,50.32,187.9z M42.55,185.49c0.68-0.71,1.54-1.26,1.82-2.29c0.01-0.5,0.01-0.99-0.28-1.53
			c-0.95,0.82-1.89,1.62-2.82,2.42c-0.12,0.34-0.14,0.67,0.02,1.02C41.57,185.73,41.91,186.09,42.55,185.49
			C42.55,185.49,42.55,185.49,42.55,185.49z M47.6,184.1c1.38,0.45,2.57,0.13,3.54-0.95c0.46-0.77,0.78-1.6,1.06-2.44
			c0.16-0.49,0.38-0.94,0.76-1.29c0.67-0.63,1.03-0.56,1.49,0.36c0.42-0.62,0.52-1.26,0.47-1.94c-0.66-0.96-1.4-1.03-2.24-0.21
			c-0.54,0.53-0.86,1.2-1.22,1.84c-0.37,0.65-0.86,1.2-1.55,1.87c0.47-1.24,1.05-2.21,1.31-3.31c0.14-0.13,0.26-0.35,0.12-0.46
			c-0.2-0.16-0.25,0.11-0.34,0.24c-0.86,0.87-1.72,1.74-2.58,2.61c-0.07,0.05-0.14,0.1-0.22,0.15c-0.04-0.11-0.03-0.21,0.09-0.26
			c0.1-0.61,0.49-1.06,0.85-1.54c0.31-0.4,0.63-0.8,0.87-1.24c0.82-1.47,0.35-2.26-1.33-2.28c-0.68,0.21-1.24,0.56-1.66,1.38
			c0.61-0.21,1.14-0.37,1.4,0.18c0.26,0.56-0.02,1.06-0.43,1.43c-0.48,0.44-1,0.83-1.52,1.23c-1.49,1.14-1.64,1.95-0.64,3.54
			c0.49,0.26,0.24,0.48-0.03,0.7c-0.85,1.11-1.9,2.02-2.94,2.95c-0.24,0.21-0.65,0.32-0.63,0.76c0.36,0.06,0.67,0.35,1.07,0.24
			c1.17-1.13,2.36-2.26,3.51-3.41C47.08,184,47.3,184,47.6,184.1z"/>
		<path class="st13" d="M54.59,25.28c1.42,0.32,2.85,0.48,4.29,0.08c1.65-0.3,2.94-1.17,3.97-2.47c0,0-0.02-0.01-0.02-0.01
			c0.17,0.03,0.29-0.05,0.39-0.18c0.54-0.1,0.8-0.74,1.4-0.72c0.18,0.2,0.33,0.43,0.53,0.59c1.63,1.25,3,2.74,4.32,4.31
			c1,1.2,1.81,2.55,2.85,3.72c0.59,1.04,1.19,2.08,1.76,3.13c-0.47,0.06-0.94,0.12-1.4,0.17c-0.54,0.06-1.06,0.15-1.58,0.24
			c-2.6-1.71-5.53-2.85-8.61-3.74c-3.88-1.11-7.87-1.84-11.62-3.42c-2.59-1.09-4.91-2.55-6.61-4.85c-0.13-0.17-0.24-0.34-0.25-0.56
			c1-0.03,1.84,0.45,2.7,0.85C49.26,23.6,51.85,24.66,54.59,25.28z M66.18,21.23c2.73-0.56,4.91,0.46,6.89,2.27
			c2.86,2.63,4.36,5.93,4.91,9.69c0.19-0.02,0.39-0.05,0.58-0.07c-0.07-0.9-0.22-1.79-0.46-2.69c-0.07-0.24-0.38-0.54,0.01-0.79
			c-0.03-0.13-0.01-0.28-0.18-0.34c-0.19-0.06-0.22-0.21-0.23-0.39c-0.74-1.72-1.68-3.32-2.62-4.93c-0.47-0.07-0.73-0.4-0.96-0.77
			c-0.2-0.17-0.4-0.35-0.61-0.51c-2.33-1.86-4.83-2.91-7.81-1.63C65.83,21.25,66,21.27,66.18,21.23z M76.52,52.83L76.52,52.83
			c-0.37,0.05-0.74,0.09-1.11,0.15C75.78,52.93,76.15,52.89,76.52,52.83z M58.51,34.19c0.43,0.94,1.24,1.58,1.86,2.37
			c0.35,0.45,0.68,0.9,0.98,1.36c0.97-0.68,2-1.28,3.12-1.8C62.59,35.23,60.6,34.6,58.51,34.19z M71.97,70.37L71.97,70.37
			c0.1-4.61,0.19-9.22,0.3-13.83C72.16,61.15,72.07,65.76,71.97,70.37z M45.45,15.5c1.02,0.21,2.02,0.49,3.05,0.62
			c2.55,0.33,4.97-0.07,7.16-1.51c-2.64-0.24-5.11-1.01-7.47-2.22c-1.56-0.8-3.22-1.14-4.97-1.21c-2.46-0.1-4.84,0.38-7.24,0.75
			c1.11,0.27,2.26,0.29,3.35,0.7C41.45,13.43,43.42,14.53,45.45,15.5z M40.98,186.98l0-0.01c-0.01,0-0.02-0.01-0.03-0.01
			C40.96,186.97,40.97,186.97,40.98,186.98z M17.22,40.83c-1.09,0.99-1.22,2.02-0.38,2.8c0.38,0.35,0.64,0.38,0.79-0.2
			c0.18-0.69,0.27-1.39,0.18-2.1C17.68,41.09,17.71,40.66,17.22,40.83z M51.94,91.48c0.01-0.55,0.01-1.08,0.01-1.57V89.8l0-0.11
			c0.08-3.5,0.16-6.96,0.24-10.41c0.11-4.75,0.22-9.35,0.33-13.92c-0.17,0.7-0.35,1.4-0.54,2.1c-2.1,7.75-5.01,15.22-8.27,22.54
			c-1.04,2.34-2.01,4.72-3.29,6.96c0.33,0.59,0.66,1.19,1.01,1.78c1.32,2.22,2.66,4.43,3.98,6.64c0.26-0.14,0.33-0.42,0.44-0.65
			c2.02-4.09,4.05-8.19,6.07-12.28C51.93,92.12,51.94,91.79,51.94,91.48z M37.21,185.51c0.36-0.01,0.67,0.1,0.98,0.27
			c0.88,0.48,1.76,0.97,2.75,1.17c-1.06-0.93-2.3-1.47-3.7-1.63C37.24,185.39,37.22,185.45,37.21,185.51z M39.84,33.62
			c-1.4-0.3-2.83-0.34-4.23-0.56c-3.33,0.01-6.51,0.66-9.5,2.15c-0.06-0.56,0.47-0.89,0.55-1.39c0.95-1.25,1.83-2.56,2.86-3.74
			c2.63-3.03,5.54-5.74,9.25-7.45c0.13-0.06,0.28-0.09,0.42-0.13c1.77,2.01,3.7,3.84,5.8,5.5c0.14,0.11,0.28,0.21,0.3,0.41
			c-2.82-0.26-5.63-0.24-8.43,0.2c0,0.06,0,0.11,0,0.17c0.84,0.12,1.65-0.16,2.48-0.19c2.36-0.08,4.68,0.22,7.01,0.54
			c-0.06-0.17-0.12-0.34-0.18-0.51c2.75,0.3,5.33,1.15,7.75,2.47c1.35,0.74,2.72,1.47,3.72,2.71c-0.5,0.09-0.95-0.17-1.43-0.18
			c0.17,0.2,0.33,0.43,0.52,0.61c1.45,1.34,2.64,2.83,3.63,4.45c-3.01,2.41-5.17,5.63-6.4,9.57c-0.52-2.92-1.63-5.65-3.51-8.13
			C47.76,36.58,44.14,34.55,39.84,33.62z M55.29,33.26c0.09,0.15,0.23,0.18,0.39,0.19C55.59,33.29,55.45,33.26,55.29,33.26z
			 M55.22,33.26c0,0-0.02,0-0.04,0L55.22,33.26z M47.25,29.47c2.31,1.95,4.99,3.11,7.91,3.79c-0.27-0.85-1.09-1.04-1.73-1.42
			C51.5,30.71,49.48,29.81,47.25,29.47z M29.52,123.38c-1.88,4.89-3.73,9.8-5.3,14.8c-2.22,7.04-4.21,14.12-4.78,21.54
			c-0.26,3.36-0.21,6.67,0.81,9.89c0.68,2.16,1.92,3.96,3.89,5.17c-0.04-0.2-0.04-0.42-0.13-0.6c-1.57-3.14-1.85-6.56-2-9.98
			c-0.12-2.8,0.06-5.59,0.31-8.38c0.29-3.29,0.72-6.54,1.28-9.79c0.99-5.75,2.33-11.42,4.15-16.96c0.65-1.98,1.43-3.91,2.15-5.87
			C29.68,122.98,29.68,122.98,29.52,123.38z M53.03,101.79c-1.1,2.27-2.19,4.55-3.3,6.81c-0.36,0.74-0.83,1.44-1.25,2.15
			c0.38,0.7,0.72,1.43,1.15,2.1c0.56,0.86,0.9,1.88,1.72,2.55c-0.01-0.29,0.16-0.5,0.3-0.73c1.55-2.45,3.12-4.88,4.63-7.35
			C54.89,105.75,53.78,103.89,53.03,101.79z"/>
		<path class="st14" d="M33.1,21.25c-0.08,0.15-0.21,0.18-0.36,0.18l0,0c-0.07,0.15-0.2,0.18-0.35,0.19c0,0-0.01-0.02-0.01-0.02
			c0.08-0.14,0.21-0.17,0.36-0.17C32.82,21.28,32.95,21.25,33.1,21.25L33.1,21.25z M17.69,23.59c0.14-0.12,0.27-0.24,0.4-0.37
			C17.85,23.21,17.7,23.33,17.69,23.59z M21.45,30.75c-0.73,1.18-1.52,2.31-2.23,3.5c-0.58,0.96-0.85,2.07-1.54,2.97
			c0.42,0.54,0.84,1.08,1.26,1.61c1.11-3.03,2.54-5.89,4.42-8.52c0.17-0.24,0.32-0.5,0.59-0.65c1.38-2.07,3.24-3.69,5.03-5.37
			c1.06-0.99,2.38-1.65,3.41-2.68l-0.01-0.02c-0.27,0.11-0.56,0.2-0.82,0.33C27.49,24.08,24.21,27.12,21.45,30.75z M14.64,25.91
			c-0.05,0-0.11,0-0.16,0.01c0.03,0.07,0.05,0.15,0.08,0.22C14.59,26.07,14.62,25.99,14.64,25.91z M26.46,82.22
			c-0.46-2.9-0.94-5.8-1.4-8.7c-0.26-1.64-0.86-3.22-0.92-4.9c-0.25,0.21-0.18,0.5-0.16,0.75c0.12,1.36,0.21,2.72,0.4,4.07
			c0.43,3.11,0.92,6.21,1.38,9.32c0.66,4.48,1.33,8.97,1.99,13.45c0.24,0.06,0.47,0.13,0.71,0.19c-0.17-1.44-0.34-2.88-0.51-4.31
			c-0.02-0.27-0.02-0.54-0.06-0.8C27.41,88.26,26.94,85.24,26.46,82.22z M14.41,26.64c-0.53,0.79-0.68,1.71-0.94,2.58
			c-0.61,2.08-1.31,4.14-1.52,6.32c0.18-0.04,0.36-0.07,0.55-0.11C13.02,32.47,13.71,29.55,14.41,26.64z M14.97,49.06
			c-0.37,3.52-0.19,7.03,0.26,10.52c0.64,4.94,1.92,9.74,3.36,14.5c1.74,5.75,3.48,11.51,4.3,17.48c0.55,0.01,0.7,0.72,1.25,0.73
			c0.02-3.39-0.67-6.67-1.38-9.96c-0.94-4.4-2.25-8.7-3.39-13.05c-1.55-5.92-2.6-11.91-2.56-18.05c0.01-1.25,0.22-2.49,0.17-3.75
			c-0.6,0.28-1.13,0.71-1.8,0.83c-0.17,0.07-0.34,0.14-0.51,0.21C14.98,48.58,15,48.79,14.97,49.06z M55.68,33.45
			c-0.09-0.15-0.23-0.18-0.39-0.19C55.38,33.4,55.52,33.44,55.68,33.45z M71.97,70.37c-0.06,2.74-0.12,5.47-0.18,8.21c0,0,0,0,0,0
			C71.86,75.84,71.92,73.11,71.97,70.37L71.97,70.37z M62.98,137.47c0.06-0.06,0.12-0.12,0.18-0.17c-0.18-0.45-0.36-0.9-0.68-1.28
			c-0.05,0.06-0.09,0.13-0.14,0.19C62.55,136.63,62.77,137.05,62.98,137.47z M68.91,22.32c0.74,0.53,1.33,1.2,1.72,2.02
			c0.96,1.97,1.59,4.04,1.69,6.25c0.59,1.04,1.19,2.08,1.76,3.13c0.59-0.08,1.19-0.16,1.81-0.24c0.68-0.09,1.38-0.19,2.09-0.28
			c-0.55-3.76-2.06-7.06-4.91-9.69c-1.97-1.82-4.15-2.84-6.89-2.27c-0.18,0.04-0.36,0.02-0.48-0.15c-0.38,0.21-0.85,0.29-1.08,0.71
			C66.1,21.54,67.58,21.35,68.91,22.32z M76.52,52.83c0.54-0.08,1.08-0.15,1.63-0.22l0,0C77.61,52.68,77.06,52.75,76.52,52.83
			L76.52,52.83z M44.27,22.13c-0.13-0.17-0.24-0.34-0.25-0.56c-1.74-0.37-3.31,0.18-4.83,0.93c1.77,2.01,3.7,3.84,5.8,5.5
			c0.14,0.11,0.28,0.21,0.3,0.41c0.29,0.07,0.59,0.15,0.88,0.22c2.75,0.3,5.33,1.15,7.75,2.47c1.35,0.74,2.72,1.47,3.72,2.71
			c0.29,0.13,0.58,0.26,0.88,0.38c2.09,0.41,4.08,1.04,5.96,1.93c1.98-0.92,4.2-1.58,6.63-1.99c-2.6-1.71-5.53-2.85-8.61-3.74
			c-3.88-1.11-7.87-1.84-11.62-3.42C48.29,25.89,45.97,24.43,44.27,22.13z M30.24,114.69c0.13,0.09,0.17,0.22,0.17,0.37
			c0,0.12,0,0.24,0.01,0.35c0.33,0.37,0.3,0.95,0.74,1.26c-0.21-1.38-0.76-2.65-1.13-4.1c-0.09,0.2-0.14,0.26-0.13,0.3
			C30,113.47,30.12,114.08,30.24,114.69z M41.29,185.11c-0.16-0.35-0.13-0.68-0.02-1.02c-0.64-0.01-1.16,0.37-1.74,0.56
			c0.71,0.55,1.32,1.2,1.79,1.97c0.71-0.05,1.1-0.44,1.22-1.13C41.91,186.09,41.57,185.73,41.29,185.11z M45.84,183.02
			c-0.5,0.01-0.96,0.27-1.47,0.18c-0.28,1.03-1.14,1.58-1.82,2.29c0.28,0.08,0.51-0.01,0.74-0.2c0.55-0.46,1.11-0.89,1.68-1.32
			c0.24-0.18,0.46-0.51,0.84-0.26C46.08,183.5,46.33,183.28,45.84,183.02z M40.99,186.98c0.13,0.18,0.34,0.15,0.53,0.16
			c-0.06-0.06-0.11-0.11-0.17-0.17C41.23,186.98,41.11,186.98,40.99,186.98z M68.69,177.91c-0.71,0.91-1.33,1.9-2.23,2.62
			c-0.94,0.75-1.81,1.8-3.26,1.22c-0.77,0.36-0.69,1.31-1.26,1.81c-0.3,0.59-0.6,1.18-0.9,1.77c0.92-0.21,1.77-0.63,2.59-1.08
			c2.77-1.51,4.68-3.76,5.67-6.78C68.97,177.45,68.86,177.7,68.69,177.91z M40.98,186.98c0,0,0.01,0,0.01,0
			c0-0.01-0.01-0.01-0.01-0.01C40.98,186.97,40.98,186.98,40.98,186.98z M53.43,31.85c-1.92-1.13-3.94-2.04-6.18-2.38
			c2.31,1.95,4.99,3.11,7.91,3.8C54.89,32.41,54.06,32.22,53.43,31.85z M46.17,144.65c0.19-0.93-0.35-1.69-0.55-2.53
			C45.26,143.08,45.44,143.93,46.17,144.65z M17.88,89.58c0.06,0,0.12,0,0.18,0c0.02-1.28-0.45-2.5-0.53-3.77
			c-1.75-6.92-3.68-13.8-4.97-20.82c-0.49-2.65-0.88-5.33-0.97-8.05c-0.02-0.62-0.24-1.23-0.15-1.86c-0.36-0.35-0.72-0.69-1.08-1.04
			c-0.12,0.69,0.17,1.36,0.16,2.04c-0.03,2.03,0.29,4.03,0.59,6.03c0.9,5.98,2.44,11.82,4.16,17.61c0.44,1.48,0.97,2.94,1.18,4.48
			c0.45,1.23,0.83,2.47,1.06,3.76C17.64,88.51,17.76,89.04,17.88,89.58z M39.72,134.24c0,0.06,0.01,0.12,0.01,0.17
			c0.11,0.1,0.23,0.18,0.32,0.3c1.38,1.85,2.54,3.85,3.77,5.8c0.08-0.34,0.15-0.67,0.23-1.01c-1.65-2.91-3.5-5.69-5.57-8.32
			c0-0.06,0-0.12,0-0.18c-0.02,0.02-0.07,0.04-0.06,0.05c0.02,0.04,0.04,0.08,0.07,0.13c0,0,0,0,0,0
			C38.65,132.31,39.11,133.31,39.72,134.24z M35.07,178.9c-0.08,0.04-0.16,0.07-0.24,0.12c-4.23,2.6-8.42,2.29-12.48-0.32
			c-2.53-1.62-4.18-4.03-5.34-6.77c-0.12-0.29-0.13-0.66-0.54-0.75c0.23,1.33,0.68,2.59,1.21,3.83c2.2,5.12,5.89,8.6,11.26,10.22
			c0.09-0.23,0.26-0.4,0.46-0.53c1.57-1,2.88-2.3,4.12-3.66C34.12,180.4,34.79,179.78,35.07,178.9z M16.44,170.83
			c-0.04-0.06-0.08-0.13-0.12-0.19C16.28,170.76,16.34,170.81,16.44,170.83z M11.45,48.49c-0.36-0.12-0.72-0.25-1.07-0.37
			c-0.01,1.8-0.02,3.61-0.03,5.41c0.35-0.36,0.7-0.72,1.05-1.08C11.19,51.13,11.09,49.8,11.45,48.49z M39.73,134.42
			C39.73,134.42,39.73,134.42,39.73,134.42C39.73,134.42,39.73,134.42,39.73,134.42L39.73,134.42z M49.31,18.91
			c2.51,1.48,5.02,3.01,7.86,3.82c1.64,0.46,3.29,0.85,4.96,0.13c-0.98-0.05-1.96,0.09-2.93-0.1c-2.35-0.44-4.42-1.53-6.44-2.73
			c-1.52-0.91-3.09-1.76-4.46-2.9c-1.08-0.32-1.93-1.05-2.85-1.63c-2.03-0.97-4-2.07-6.12-2.86c-1.1-0.41-2.25-0.43-3.35-0.7
			c-1.41,0.28-2.82,0.56-4.19,1.04c-1.28,0.44-2.45,1.13-3.71,1.64c-3.41,2.08-6.55,4.5-9.29,7.42c-0.28,0.3-0.64,0.56-0.57,1.05
			c0.69-0.61,1.38-1.23,2.07-1.84c3.36-3.01,7.05-5.49,11.24-7.18c2.64-1.07,5.3-1.38,8.06-0.26
			C43.01,15.18,46.16,17.05,49.31,18.91z"/>
	</g>
	<g>
		<path class="st15" d="M146.94,144.61c1.39-0.31,1.87,0.22,2.17,1.59c1.19,5.3,2.61,10.56,3.8,15.86c0.35,1.55,1.1,1.83,2.46,1.62
			c1.93-0.29,3.88-0.48,5.82-0.73c2.03-0.25,2.3-0.63,1.82-2.62c-1.33-5.52-2.65-11.05-4.03-16.56c-0.26-1.03-0.12-1.64,0.81-2.3
			c2.49-1.75,3.99-4.28,4.15-7.26c0.39-7.27,0.62-14.55,0.73-21.83c0.09-6.21-3.75-9.42-9.96-8.65c-5.59,0.69-11.18,1.35-16.77,1.99
			c-3.34,0.38-3.34,0.35-3.47,3.7c-0.04,0.92-0.13,1.83-0.16,2.75c-0.26,10.71-0.53,21.43-0.78,32.14
			c-0.16,6.73-0.27,13.47-0.44,20.21c-0.03,1.23,0.32,1.88,1.66,1.71c2.06-0.27,4.12-0.61,6.19-0.77c1.76-0.14,2.38-0.92,2.39-2.7
			c0.04-5.87,0.25-11.74,0.39-17.67C144.9,144.91,145.94,144.84,146.94,144.61z M144.32,120.63c0.01-1.53,0.03-3.06,0.2-4.57
			c0.05-0.43,0.57-1.08,0.96-1.15c2.04-0.35,4.11-0.6,6.17-0.78c1.99-0.17,2.84,0.64,2.8,2.65c-0.09,4.7-0.23,9.4-0.36,14.11
			c-0.04,1.5-0.73,2.71-2.22,2.99c-2.5,0.47-5.04,0.69-7.56,1.02C144.31,129.9,144.3,125.26,144.32,120.63z M195.63,156.79
			c0.17,1.08,0.44,1.92,1.81,1.73c2.18-0.31,4.35-0.67,6.54-0.83c1.75-0.13,2.16-0.95,1.85-2.53c-3.54-18.22-7.07-36.45-10.56-54.68
			c-0.23-1.23-0.69-1.68-1.95-1.5c-2.91,0.41-5.82,0.8-8.74,1.04c-1.63,0.13-2.25,0.85-2.61,2.41c-2.93,12.73-5.96,25.44-8.95,38.15
			c-2.71,11.53-5.42,23.07-8.15,34.59c-0.34,1.42,0.08,1.98,1.55,1.73c1.33-0.22,2.66-0.39,3.99-0.56c5.09-0.66,4.05,0.29,5.31-4.98
			c1.68-7.07,3.24-14.17,4.92-21.23c0.15-0.65,0.73-1.61,1.22-1.69c3.98-0.59,7.98-1.01,12.11-1.49
			C194.55,150.31,195.12,153.55,195.63,156.79z M183.11,139.4c1.69-8.46,3.34-16.71,4.99-24.96c0.14,0,0.29,0.01,0.43,0.01
			c1.26,7.89,2.52,15.78,3.8,23.83C189.28,138.65,186.34,139.01,183.11,139.4z M211.72,149.21c0,1.84,0.08,3.68-0.02,5.51
			c-0.08,1.51,0.47,1.94,1.93,1.75c6-0.78,12.02-1.42,18.01-2.27c5.95-0.85,9.62-5.01,9.9-10.98c0.15-3.36,0.22-6.73,0.31-10.09
			c0.25-9.79,0.46-19.58,0.74-29.36c0.18-6.22-3.4-10.26-8.99-9.71c-6.14,0.61-12.26,1.48-18.4,2.17c-1.61,0.18-2.18,0.97-2.21,2.51
			c-0.35,16.83-0.74,33.65-1.12,50.48C211.83,149.21,211.78,149.21,211.72,149.21z M223.08,105.39c2.21-0.29,4.24-0.62,6.3-0.81
			c2.43-0.23,3.15,0.41,3.11,2.83c-0.12,7.09-0.28,14.18-0.44,21.27c-0.1,4.15-0.23,8.31-0.35,12.46c-0.06,2.13-0.94,3.19-2.99,3.48
			c-2.11,0.3-4.24,0.5-6.61,0.77C222.42,131.96,222.75,118.73,223.08,105.39z M267.71,135.26c0,1.9-0.05,3.8,0.01,5.7
			c0.11,3.69,2.1,6.58,5.29,7.3c1.7,0.38,3.52,0.4,5.27,0.28c2.68-0.19,5.33-0.68,8.01-0.96c6.55-0.69,10.54-4.64,10.88-11.22
			c0.36-6.9,0.47-13.82,0.64-20.73c0.16-6.73,0.37-13.46,0.35-20.19c-0.01-5.26-3.09-8.27-8.29-8.1c-3.41,0.11-6.81,0.67-10.21,1.05
			c-7.03,0.8-10.9,4.9-11.11,12c-0.33,11.62-0.55,23.25-0.82,34.87C267.73,135.26,267.72,135.26,267.71,135.26z M278.46,102.19
			c0.07-3.15,0.79-3.93,3.95-4.31c1.15-0.14,2.31-0.33,3.46-0.38c1.89-0.08,2.71,0.73,2.67,2.63c-0.29,11.45-0.59,22.89-0.91,34.33
			c-0.06,2.16-0.81,3.11-2.81,3.45c-1.56,0.27-3.16,0.37-4.74,0.52c-1.66,0.16-2.36-0.77-2.45-2.27c-0.06-1.04-0.01-2.08-0.01-3.12
			c0.04,0,0.07,0,0.11,0C277.97,122.76,278.21,112.48,278.46,102.19z M260.81,99.26c0-2.2-0.04-4.41,0.02-6.61
			c0.04-1.31-0.32-1.95-1.78-1.74c-2.3,0.34-4.63,0.45-6.91,0.9c-0.57,0.11-1.27,1.06-1.38,1.71c-0.25,1.56-0.2,3.17-0.23,4.76
			c-0.2,9.06-0.37,18.12-0.58,27.18c-0.19,8.2-0.41,16.4-0.63,24.6c-0.03,1.2,0.12,2.09,1.66,1.88c2.18-0.3,4.37-0.58,6.56-0.82
			c1.41-0.15,1.98-0.85,2-2.29c0.06-4.41,0.24-8.81,0.34-13.22c0.28-12.12,0.53-24.24,0.8-36.36
			C260.71,99.26,260.76,99.26,260.81,99.26z M116.63,128.08c-4.29,3.93-8.59,7.86-12.99,11.89c-0.47-3.3-0.92-6.4-1.41-9.84
			c-7.93,9.92-15.64,19.56-23.35,29.21c0.07,0.07,0.15,0.14,0.22,0.2c6.88-6.82,13.76-13.63,20.85-20.65
			c0.24,3.63,0.45,6.93,0.69,10.56c5.52-7.26,10.84-14.26,16.16-21.25C116.74,128.16,116.69,128.12,116.63,128.08z M117.28,138.39
			c-0.06-0.04-0.12-0.07-0.18-0.11c-4.14,6.24-8.28,12.48-12.53,18.87c2.38,0.33,4.56,0.63,6.92,0.95
			c-7.75,10.68-15.41,21.25-23.07,31.82c0.06,0.05,0.12,0.09,0.18,0.14c9.52-11.51,19.04-23.02,28.72-34.71
			c-2.74-0.14-5.21-0.26-7.9-0.4C112.11,149.29,114.69,143.84,117.28,138.39z M75.32,115.38c7.45,1.66,14.9,3.32,22.45,5
			c-0.87,1.6-1.65,3.02-2.52,4.63c6.91-0.53,13.55-1.03,20.18-1.54c0-0.07,0.01-0.14,0.01-0.21c-4.97-0.61-9.94-1.22-15.05-1.85
			c0.89-1.42,1.66-2.65,2.52-4.02c-9.34-0.74-18.44-1.46-27.55-2.18C75.34,115.27,75.33,115.33,75.32,115.38z"/>
	</g>
	<g>
		<path class="st15" d="M177.81,23.89c-4.89,0.59-9.56,1.15-14.23,1.72c-8.56,1.05-17.12,2.11-25.68,3.16
			c-8.44,1.04-16.88,2.06-25.31,3.1c-6.19,0.76-12.38,1.55-18.57,2.32c-1.18,0.15-1.9-0.33-1.88-1.62c0.04-2.14,0.05-4.29,0.12-6.43
			c0.04-1.22,0.72-1.92,1.93-2.07c8.07-0.99,16.15-1.98,24.22-2.97c8.5-1.04,17-2.08,25.5-3.12c8.62-1.05,17.24-2.1,25.86-3.16
			c5.4-0.66,10.81-1.32,16.2-2.01c1.94-0.25,2.48,0.17,2.44,2.08c-0.25,10.89-0.5,21.79-0.77,32.68
			c-0.23,9.36-0.49,18.72-0.73,28.09c-0.07,2.72,0.66,3.4,3.37,3.14c5.87-0.56,6.18-0.91,6.3-6.79c0.27-13.1,0.55-26.2,0.84-39.3
			c0.01-0.61,0.17-1.22,0.14-1.83c-0.2-4.09,0.43-3.76,4.2-4.26c1.21-0.16,2.44-0.22,3.64-0.41c1.58-0.25,2.13,0.48,2.09,1.94
			c-0.14,5.45-0.25,10.89-0.38,16.34c-0.11,4.53-0.23,9.06-0.35,13.58c-0.17,6.18-0.3,12.36-0.55,18.53
			c-0.29,6.99-4.29,10.95-11.64,11.71c-2.74,0.29-5.47,0.61-8.2,0.97c-5.81,0.76-9.73-2.56-9.62-8.45
			c0.3-15.55,0.72-31.09,1.06-46.63C177.87,30.87,177.81,27.51,177.81,23.89z M110.14,44.47c0-1.29-0.02-2.57,0.01-3.86
			c0.03-1.48-0.7-1.95-2.09-1.76c-1.88,0.26-3.76,0.5-5.65,0.69c-1.69,0.16-2.47,0.97-2.49,2.73c-0.05,4.53-0.22,9.06-0.33,13.59
			c-0.11,4.41-0.22,8.81-0.32,13.22c-0.16,7.16-0.5,14.32-0.42,21.48c0.06,6.04,3.95,9.02,10.01,8.23c2.61-0.34,5.22-0.63,7.84-0.89
			c7.39-0.76,11.45-4.79,11.77-11.85c0.19-4.16,0.23-8.32,0.33-12.48c0.11-4.41,0.2-8.81,0.3-13.22c0.17-7.41,0.33-14.81,0.5-22.22
			c0.03-1.29-0.62-1.76-1.85-1.61c-2,0.25-4,0.53-6.01,0.73c-1.45,0.14-1.99,0.92-2.03,2.3c-0.2,8.2-0.44,16.4-0.64,24.6
			c-0.17,6.79-0.29,13.59-0.46,20.38c-0.05,2.02-0.95,3.06-2.9,3.41c-1.2,0.21-2.42,0.35-3.64,0.44c-2.27,0.17-3.05-0.52-3.03-2.79
			c0.02-2.45,0.19-4.89,0.25-7.34c0.25-11.26,0.49-22.52,0.73-33.79C110.07,44.47,110.1,44.47,110.14,44.47z M159.08,83.04
			c0.47,2.65,0.95,5.29,1.37,7.95c0.17,1.06,0.66,1.49,1.74,1.33c2.24-0.33,4.48-0.65,6.73-0.88c1.5-0.16,1.95-0.73,1.63-2.29
			c-1.69-8.5-3.28-17.03-4.91-25.54c-1.85-9.66-3.72-19.31-5.54-28.97c-0.28-1.48-0.9-2.06-2.47-1.82
			c-2.72,0.43-5.45,0.79-8.19,0.97c-1.82,0.12-2.46,1.01-2.83,2.66c-3.08,13.64-6.22,27.26-9.36,40.88
			c-1.26,5.47-2.55,10.94-3.81,16.41c-0.41,1.78-0.08,2.11,1.71,1.88c2.12-0.28,4.24-0.58,6.37-0.8c1.29-0.13,1.9-0.72,2.13-2.04
			c0.51-3.01,1.23-5.98,1.76-8.98c0.19-1.08,0.59-1.58,1.72-1.7c3.77-0.38,7.53-0.87,11.5-1.34
			C158.79,81.62,158.95,82.33,159.08,83.04z M147.83,73.18c1.71-8.58,3.37-16.92,5.04-25.26c0.1-0.01,0.21-0.01,0.31-0.02
			c1.28,8.01,2.55,16.02,3.85,24.19C153.83,72.47,151,72.8,147.83,73.18z M61.27,95.98c0.21,4.58,3.25,7.64,7.84,7.42
			c4.32-0.21,8.66-0.69,12.91-1.48c4.48-0.83,7.6-3.69,8.32-8.24c0.61-3.84,0.5-7.79,0.6-11.7c0.01-0.31-0.9-0.94-1.35-0.91
			c-2.19,0.14-4.37,0.53-6.56,0.7c-1.42,0.11-1.92,0.82-1.9,2.14c0.02,1.72,0.03,3.43-0.04,5.15c-0.08,2.15-0.95,3.12-3.03,3.47
			c-1.15,0.19-2.3,0.29-3.46,0.44c-2.28,0.29-3.12-0.37-3.09-2.62c0.05-3.86,0.2-7.71,0.28-11.56c0.16-7.41,0.3-14.81,0.48-22.22
			c0.05-2.22,0.94-3.2,3.14-3.56c1.21-0.19,2.42-0.36,3.63-0.5c1.86-0.2,2.79,0.59,2.81,2.46c0.02,1.9-0.06,3.79-0.11,5.69
			c-0.02,1,0.25,1.71,1.45,1.56c2.24-0.29,4.49-0.58,6.73-0.86c1.16-0.14,1.73-0.75,1.73-1.94c0-3.31,0.17-6.62,0.04-9.92
			c-0.16-4.12-2.86-6.95-6.82-7.36c-1.21-0.12-2.45-0.07-3.67,0.05c-2.49,0.26-4.97,0.67-7.46,0.96
			c-7.75,0.89-11.44,4.82-11.66,12.64c-0.32,11.26-0.55,22.52-0.83,34.13C61.25,91.69,61.17,93.84,61.27,95.98z M226.14,55.57
			c4.96-3.05,9.92-6.1,15-9.22c-0.16,3.33-0.31,6.46-0.47,9.93c9.66-8.24,19.05-16.26,28.45-24.27c-0.06-0.08-0.12-0.16-0.18-0.24
			c-8.04,5.39-16.09,10.79-24.37,16.34c0.45-3.61,0.87-6.89,1.32-10.5c-6.79,6.09-13.34,11.95-19.88,17.82
			C226.04,55.47,226.09,55.52,226.14,55.57z M227.45,45.32c0.05,0.05,0.1,0.09,0.16,0.14c5.25-5.34,10.49-10.69,15.87-16.16
			c-2.28-0.77-4.36-1.48-6.61-2.24C246.48,18.02,256,9.1,265.52,0.17c-0.05-0.06-0.1-0.11-0.15-0.17
			c-11.52,9.5-23.05,19-34.76,28.66c2.66,0.65,5.07,1.24,7.68,1.88C234.59,35.59,231.02,40.46,227.45,45.32z M264.31,75.84
			c-7-3.04-14-6.07-21.1-9.15c1.16-1.41,2.19-2.65,3.35-4.07c-6.89-0.79-13.5-1.54-20.11-2.3c-0.02,0.07-0.03,0.13-0.05,0.2
			c4.76,1.54,9.53,3.08,14.43,4.66c-1.15,1.23-2.13,2.29-3.23,3.47c9.03,2.49,17.83,4.92,26.64,7.35
			C264.27,75.95,264.29,75.89,264.31,75.84z"/>
	</g>
	<path class="st15" d="M138.71,215.47c-0.24,0.5-0.43,1.03-0.71,1.51c-1.16,1.95-2.21,3.98-3.56,5.78c-1.43,1.92-3.5,2.73-5.96,2.72
		c-10.41-0.05-20.83-0.02-31.24-0.03c-0.81,0-1.63,0-2.42-0.14c-3.81-0.65-6.09-3.09-6.33-7c-0.17-2.88-0.12-5.78-0.11-8.67
		c0-0.83-0.2-1.2-1.09-1.13c-0.99,0.07-1.99,0.02-3.16,0.02c0.12-1.74,0.24-3.37,0.36-5.11c1.3,0,2.48,0,3.88,0
		c0-0.75,0.05-1.39-0.01-2.02c-0.09-0.86,0.27-1.44,0.9-1.99c1.68-1.47,3.61-2.46,5.87-3.22c-0.13,2.43-0.25,4.73-0.38,7.19
		c2.93,0,5.73,0,8.79,0c-0.42,1.71-0.77,3.23-1.21,4.73c-0.06,0.21-0.59,0.4-0.91,0.41c-1.89,0.04-3.78,0.05-5.67,0.01
		c-0.74-0.02-1.03,0.2-1.01,0.97c0.04,2.35-0.01,4.71,0.02,7.06c0.03,2.18,1.01,3.27,3.14,3.58c0.68,0.1,1.38,0.18,2.07,0.18
		c7.56,0.01,15.12,0.01,22.68,0.01c0.26,0,0.53-0.02,0.89-0.04c-0.11-1.12-0.32-2.17-0.29-3.23c0.06-1.8,0.1-3.64,0.46-5.39
		c0.82-3.99,3.25-6.65,7.18-7.85c4.74-1.45,9.54-0.69,14.38-0.45c0,7.42,0,14.69,0,22.03c-2.1,0-4.12,0-6.3,0c0-3.3,0-6.58,0-9.86
		C138.88,215.51,138.8,215.49,138.71,215.47z M139.05,208.09c-0.11-0.13-0.22-0.27-0.33-0.4c-2.03,0.11-4.07,0.11-6.08,0.37
		c-1.89,0.24-2.73,1.31-2.78,3.24c-0.04,1.46-0.04,2.93,0.09,4.39c0.1,1.1,0.3,2.22,0.66,3.26c0.52,1.49,1.81,1.84,3.02,0.82
		c0.66-0.56,1.32-1.26,1.64-2.04C136.6,214.53,137.8,211.3,139.05,208.09z M45.75,220.25c0.44,0.26,0.75,0.46,1.08,0.64
		c2.75,1.47,5.5,2.94,8.25,4.41c4.31,2.3,5.55,4.63,5.1,9.72c-0.37-0.18-0.71-0.32-1.03-0.49c-6.38-3.33-12.77-6.65-19.15-9.99
		c-3.4-1.78-6.65-3.77-9.09-6.82c-3.59-4.47-4.22-9.47-1.95-14.65c2.26-5.15,6.7-7.32,12.1-7.71c3.04-0.22,6,0.26,8.76,1.64
		c6.92,3.47,8.51,12.98,2.96,18.66c-1.57,1.61-3.73,2.66-5.63,3.94C46.78,219.86,46.33,219.99,45.75,220.25z M49.44,208.93
		c-0.33-1.42-0.51-2.89-1.02-4.24c-1.1-2.89-3.71-4.4-6.89-4.18c-3.52,0.24-5.96,2.08-6.72,5.16c-0.72,2.94-0.24,5.66,1.62,8.09
		c1.86,2.42,4.42,3.92,7.04,5.33c0.2,0.11,0.64,0.06,0.8-0.09C47.2,216.29,49.32,213.17,49.44,208.93z M74.65,215.47
		c-0.23,0.5-0.43,1.03-0.71,1.51c-1.09,1.9-2.08,3.88-3.36,5.64c-0.76,1.05-1.9,1.95-3.05,2.57c-2.92,1.58-5.86,0.64-7.09-2.41
		c-1.95-4.82-1.92-9.72,0.5-14.41c1.37-2.66,3.81-4.07,6.65-4.77c4.5-1.12,9.03-0.47,13.62-0.23c0,7.38,0,14.65,0,22.01
		c-2.07,0-4.13,0-6.33,0c0-3.29,0-6.57,0-9.85C74.81,215.5,74.73,215.48,74.65,215.47z M75.08,207.66
		c-2.42,0.13-4.47,0.13-6.48,0.38c-1.93,0.25-2.78,1.36-2.82,3.34c-0.03,1.23-0.05,2.48,0.07,3.7c0.13,1.29,0.31,2.61,0.7,3.85
		c0.49,1.5,1.84,1.88,3.01,0.81c0.83-0.75,1.6-1.72,2.03-2.75C72.81,214.05,73.84,211.03,75.08,207.66z M156.99,211.71
		c-0.15-2.5-0.3-5-0.5-7.49c-0.02-0.27-0.29-0.75-0.46-0.76c-1.91-0.05-3.82-0.03-5.52-0.03c0,7.43,0,14.66,0,21.95
		c2.28,0,4.34,0,6.43,0c0.03-0.43,0.05-0.77,0.07-1.11c0.19-3.24,0.57-6.45,1.87-9.47c1.37-3.19,3.4-5.53,7.46-5.29
		c-0.2-2.22-0.39-4.33-0.6-6.78c-1.36,0.56-2.54,0.85-3.5,1.48c-3.09,2.01-4.02,5.38-5.24,8.61
		C156.99,212.43,157.01,212.07,156.99,211.71z"/>
	<path class="st15" d="M210.18,188.81c4.7,0.1,8.64,1.14,11.52,4.52c3.61,4.23,3.76,9.08,1.77,14c-2,4.93-5.68,8.29-10.72,9.99
		c-1.2,0.4-2.7,0.43-3.94,0.13c-6.57-1.61-12.12-8.67-12.3-15.43c-0.18-6.76,4.1-11.86,10.88-12.92
		C208.44,188.94,209.52,188.88,210.18,188.81z M218,202.42c0-0.58,0.04-1.16-0.01-1.73c-0.3-3.91-2.91-6.4-6.96-6.67
		c-3.94-0.26-6.97,1.89-7.68,5.67c-0.66,3.54-0.1,6.98,1.37,10.26c0.87,1.93,2.14,3.55,3.92,4.75c1.3,0.88,2.64,0.96,3.84-0.03
		c1.06-0.87,2.11-1.83,2.9-2.94C217.35,208.96,217.97,205.75,218,202.42z M253.35,195.21c2.77-0.96,5.6-1.41,8.53-1.09
		c2.46,0.27,3.9,1.76,4.12,4.21c0.16,1.82-0.26,3.53-1.53,4.81c-1.51,1.53-3.11,3.01-4.86,4.24c-2.61,1.84-5.4,3.42-8.09,5.15
		c-0.34,0.22-0.76,0.66-0.76,0.99c0.02,1.25,0.21,2.5,0.34,3.82c7.02,0,13.88,0,20.74-0.02c0.25,0,0.66-0.2,0.71-0.39
		c0.42-1.5,0.78-3.02,1.2-4.72c-3.2,0-6.12,0-9.05,0c-2.88,0-5.76,0-8.63,0c0.42-0.41,0.86-0.55,1.28-0.73
		c2.86-1.23,5.77-2.38,8.56-3.75c2.09-1.03,3.86-2.55,5.15-4.54c3.71-5.75,1.06-12.67-5.51-13.96c-2.19-0.43-4.56-0.45-6.77-0.12
		c-5.71,0.86-5.4,0.89-6.89,6.13c-0.03,0.11-0.02,0.22-0.04,0.5C252.41,195.54,252.88,195.37,253.35,195.21z M173.96,195.2
		c2.73-0.94,5.53-1.39,8.41-1.1c2.67,0.27,4.15,1.91,4.23,4.59c0.05,1.7-0.38,3.28-1.56,4.46c-1.49,1.5-3.05,2.97-4.77,4.17
		c-2.65,1.85-5.46,3.46-8.19,5.21c-0.32,0.2-0.75,0.59-0.74,0.88c0.03,1.29,0.2,2.58,0.32,3.93c7.05,0,13.91,0,20.77-0.02
		c0.25,0,0.66-0.21,0.71-0.4c0.42-1.5,0.77-3.02,1.18-4.7c-6.06,0-11.86,0-17.66,0c0.36-0.39,0.77-0.55,1.17-0.72
		c2.89-1.25,5.84-2.4,8.66-3.79c2.09-1.02,3.86-2.55,5.14-4.55c3.89-6.03,0.84-13.05-6.21-14.07c-1.99-0.29-4.1-0.32-6.09-0.01
		c-5.69,0.89-5.4,0.91-6.88,6.14c-0.03,0.1,0,0.22,0,0.48C173.01,195.53,173.48,195.36,173.96,195.2z M231.01,212
		c0.45-0.17,0.9-0.33,1.34-0.52c2.86-1.23,5.76-2.37,8.55-3.75c2.09-1.03,3.86-2.55,5.15-4.54c3.75-5.77,1.02-12.76-5.59-13.99
		c-2.12-0.4-4.41-0.43-6.54-0.12c-5.89,0.88-5.55,0.9-7.05,6.23c-0.03,0.1,0.01,0.22,0.02,0.4c0.54-0.19,1.04-0.36,1.54-0.53
		c2.5-0.87,5.08-1.31,7.72-1.13c3.77,0.26,5.54,2.6,4.71,6.29c-0.22,0.98-0.72,1.99-1.37,2.75c-1.04,1.22-2.21,2.4-3.52,3.3
		c-3.07,2.12-6.27,4.06-9.39,6.1c-0.35,0.23-0.82,0.64-0.81,0.96c0.02,1.28,0.2,2.57,0.33,3.89c7.06,0,13.91,0,20.77-0.02
		c0.24,0,0.64-0.22,0.69-0.41c0.42-1.5,0.77-3.01,1.18-4.69c-6.09,0-11.88,0-17.68,0C231.04,212.15,231.03,212.07,231.01,212z
		 M214.47,203.29c-1.32-1.25-2.5-2.38-3.81-3.62c-1.31,1.25-2.48,2.38-3.69,3.53c1.19,1.34,2.25,2.54,3.48,3.93
		C211.98,205.67,213.16,204.54,214.47,203.29z"/>
</g>
</svg>
