<?xml version="1.0" encoding="utf-8"?>
<!-- Generator: Adobe Illustrator 27.0.0, SVG Export Plug-In . SVG Version: 6.00 Build 0)  -->
<svg version="1.1" id="Layer_1" xmlns="http://www.w3.org/2000/svg" xmlns:xlink="http://www.w3.org/1999/xlink" x="0px" y="0px"
	 viewBox="0 0 406.18 340.96" style="enable-background:new 0 0 406.18 340.96;" xml:space="preserve">
<style type="text/css">
	.st0{fill:#FFFFFF;}
</style>
<path class="st0" d="M244.21,70.66h-81.49c0-22.5,18.24-40.74,40.74-40.74S244.21,48.15,244.21,70.66z M286.84,0
	c-5.35,0-9.69,4.34-9.69,9.69c0,0.69,0.08,1.36,0.21,2.01l-37.92,27.94l4.75,6.44l37.92-27.94c1.4,0.79,3.01,1.24,4.73,1.24
	c5.35,0,9.69-4.34,9.69-9.69S292.19,0,286.84,0z M109.65,9.69c0,5.35,4.34,9.69,9.69,9.69c1.72,0,3.33-0.45,4.73-1.24l37.92,27.94
	l4.75-6.44l-37.92-27.94c0.14-0.65,0.21-1.32,0.21-2.01c0-5.35-4.34-9.69-9.69-9.69S109.65,4.34,109.65,9.69z M244.43,203.37
	c-3.64,0.12-7.26,0.71-10.89,1.12c-7.5,0.85-11.63,5.22-11.85,12.8c-0.35,12.4-0.59,24.79-0.87,37.19c-0.01,0-0.02,0-0.03,0
	c0,2.03-0.05,4.05,0.01,6.07c0.12,3.93,2.24,7.02,5.65,7.79c1.81,0.41,3.76,0.43,5.62,0.3c2.86-0.2,5.69-0.73,8.54-1.03
	c6.98-0.74,11.24-4.95,11.6-11.97c0.38-7.36,0.5-14.74,0.68-22.11c0.17-7.18,0.39-14.36,0.38-21.54
	C253.26,206.4,249.97,203.18,244.43,203.37z M242.04,253.63c-0.07,2.31-0.87,3.31-2.99,3.68c-1.67,0.29-3.37,0.39-5.05,0.56
	c-1.77,0.17-2.52-0.82-2.61-2.42c-0.06-1.11-0.01-2.22-0.01-3.33c0.04,0,0.08,0,0.11,0c0.26-10.97,0.52-21.94,0.78-32.91
	c0.08-3.36,0.84-4.2,4.22-4.6c1.23-0.15,2.46-0.35,3.69-0.41c2.02-0.09,2.9,0.78,2.84,2.8C242.7,229.21,242.38,241.42,242.04,253.63
	z M114.59,145.73c-1.29-0.13-2.62-0.08-3.91,0.06c-2.66,0.28-5.3,0.71-7.96,1.02c-8.27,0.95-12.21,5.14-12.44,13.48
	c-0.34,12.01-0.59,24.02-0.88,36.41c0,1.9-0.09,4.19,0.02,6.47c0.22,4.89,3.47,8.15,8.36,7.91c4.61-0.22,9.24-0.74,13.77-1.58
	c4.77-0.89,8.1-3.93,8.88-8.78c0.65-4.09,0.54-8.31,0.64-12.48c0.01-0.33-0.96-1.01-1.44-0.98c-2.34,0.15-4.66,0.56-7,0.74
	c-1.52,0.12-2.05,0.87-2.03,2.28c0.02,1.83,0.03,3.66-0.04,5.49c-0.09,2.3-1.01,3.33-3.23,3.7c-1.22,0.2-2.46,0.31-3.69,0.47
	c-2.43,0.31-3.32-0.4-3.29-2.8c0.06-4.11,0.21-8.22,0.3-12.33c0.17-7.9,0.32-15.8,0.51-23.7c0.06-2.37,1-3.42,3.35-3.79
	c1.29-0.21,2.58-0.39,3.87-0.53c1.98-0.22,2.98,0.63,3,2.63c0.02,2.02-0.07,4.05-0.12,6.07c-0.03,1.07,0.27,1.83,1.55,1.66
	c2.39-0.3,4.79-0.62,7.18-0.91c1.24-0.15,1.84-0.8,1.84-2.07c0-3.53,0.18-7.06,0.04-10.58C121.7,149.18,118.82,146.16,114.59,145.73
	z M71.2,225.33c-10.43,1.83-20.86,3.67-31.63,5.56c1.99,2.15,3.74,4.05,5.66,6.13c-10.74,5.44-21.37,10.82-31.99,16.19
	c0.05,0.11,0.09,0.23,0.14,0.34c13.56-4.62,27.12-9.25,40.96-13.97c-1.94-1.82-3.63-3.41-5.51-5.17c7.63-2.98,15.06-5.87,22.49-8.77
	C71.28,225.54,71.24,225.43,71.2,225.33z M162.44,215.52c-0.38,17.95-0.79,35.9-1.19,53.85c-0.05,0-0.11,0-0.16,0
	c0,1.96,0.08,3.92-0.03,5.87c-0.09,1.61,0.51,2.07,2.06,1.87c6.4-0.84,12.82-1.51,19.21-2.42c6.35-0.91,10.27-5.34,10.56-11.71
	c0.16-3.58,0.24-7.17,0.33-10.76c0.27-10.44,0.49-20.88,0.79-31.32c0.19-6.63-3.63-10.95-9.59-10.36
	c-6.55,0.65-13.08,1.58-19.63,2.31C163.07,213.03,162.47,213.87,162.44,215.52z M173.19,222.62c2.35-0.31,4.53-0.66,6.72-0.87
	c2.6-0.25,3.36,0.44,3.32,3.02c-0.12,7.56-0.29,15.12-0.47,22.68c-0.1,4.43-0.24,8.86-0.38,13.29c-0.07,2.27-1,3.41-3.19,3.71
	c-2.25,0.32-4.52,0.53-7.05,0.82C172.49,250.96,172.84,236.85,173.19,222.62z M78.68,226.92c-0.04,0.98-0.14,1.95-0.17,2.93
	c-0.28,11.43-0.56,22.85-0.83,34.28c-0.17,7.18-0.29,14.37-0.47,21.55c-0.03,1.32,0.35,2.01,1.77,1.82c2.2-0.29,4.39-0.65,6.6-0.82
	c1.88-0.15,2.53-0.98,2.55-2.88c0.05-6.26,0.27-12.52,0.42-18.85c1.25-0.18,2.35-0.26,3.42-0.5c1.48-0.33,1.99,0.24,2.32,1.7
	c1.27,5.66,2.79,11.26,4.05,16.92c0.37,1.66,1.17,1.95,2.62,1.73c2.06-0.31,4.14-0.52,6.21-0.77c2.16-0.27,2.45-0.68,1.94-2.8
	c-1.42-5.89-2.82-11.79-4.29-17.67c-0.27-1.1-0.13-1.75,0.86-2.45c2.65-1.87,4.25-4.57,4.42-7.75c0.41-7.76,0.66-15.52,0.78-23.29
	c0.1-6.63-3.99-10.05-10.62-9.23c-5.96,0.74-11.92,1.44-17.88,2.12C78.82,223.38,78.82,223.35,78.68,226.92z M89.18,238.87
	c0.01-1.63,0.03-3.26,0.21-4.88c0.05-0.46,0.61-1.15,1.02-1.22c2.18-0.37,4.38-0.64,6.58-0.83c2.12-0.18,3.03,0.68,2.99,2.82
	c-0.09,5.02-0.24,10.03-0.38,15.05c-0.04,1.6-0.78,2.89-2.37,3.19c-2.66,0.5-5.38,0.74-8.07,1.09
	C89.18,248.76,89.16,243.82,89.18,238.87z M111.11,297.06c-0.36,1.52,0.09,2.11,1.66,1.85c1.41-0.23,2.84-0.41,4.26-0.59
	c5.43-0.7,4.32,0.31,5.66-5.31c1.79-7.54,3.46-15.11,5.25-22.65c0.16-0.69,0.78-1.72,1.3-1.8c4.24-0.63,8.51-1.08,12.92-1.59
	c0.6,3.57,1.21,7.02,1.76,10.48c0.18,1.15,0.47,2.05,1.93,1.84c2.32-0.33,4.64-0.71,6.98-0.88c1.86-0.14,2.3-1.01,1.97-2.69
	c-3.78-19.44-7.54-38.88-11.27-58.33c-0.25-1.31-0.74-1.79-2.08-1.6c-3.1,0.43-6.2,0.86-9.32,1.11c-1.73,0.14-2.4,0.91-2.79,2.57
	c-3.13,13.58-6.35,27.13-9.55,40.69C116.91,272.46,114.02,284.76,111.11,297.06z M135.89,232.27c0.15,0.01,0.31,0.01,0.46,0.02
	c1.34,8.41,2.68,16.83,4.05,25.41c-3.26,0.4-6.39,0.78-9.83,1.2C132.37,249.87,134.13,241.07,135.89,232.27z M225.02,116.7
	c0.05-2.04-0.53-2.48-2.6-2.22c-5.76,0.74-11.52,1.44-17.28,2.15c-9.19,1.13-18.39,2.25-27.58,3.37c-9.07,1.11-18.13,2.22-27.2,3.33
	c-8.61,1.05-17.22,2.1-25.83,3.16c-1.28,0.16-2.02,0.91-2.06,2.21c-0.07,2.29-0.09,4.57-0.12,6.86c-0.02,1.38,0.74,1.88,2,1.72
	c6.6-0.82,13.2-1.66,19.81-2.47c9-1.11,18-2.2,27-3.3c9.13-1.12,18.26-2.25,27.39-3.37c4.98-0.61,9.97-1.21,15.18-1.84
	c0,3.86,0.07,7.44-0.01,11.02c-0.36,16.58-0.82,33.16-1.14,49.74c-0.12,6.28,4.06,9.82,10.26,9.01c2.91-0.38,5.83-0.73,8.75-1.03
	c7.84-0.82,12.11-5.03,12.42-12.49c0.27-6.59,0.41-13.18,0.59-19.77c0.14-4.83,0.26-9.66,0.38-14.49
	c0.14-5.81,0.27-11.62,0.41-17.43c0.04-1.56-0.55-2.34-2.23-2.07c-1.29,0.21-2.59,0.27-3.89,0.44c-4.03,0.53-4.69,0.18-4.48,4.54
	c0.03,0.65-0.14,1.3-0.15,1.95c-0.3,13.97-0.61,27.94-0.89,41.92c-0.13,6.28-0.46,6.65-6.72,7.25c-2.89,0.27-3.67-0.44-3.59-3.35
	c0.26-9.99,0.53-19.97,0.77-29.96C224.48,139.94,224.75,128.32,225.02,116.7z M15.19,134.21c-0.09,0.12-0.17,0.23-0.26,0.35
	c15.59,12.96,31.17,25.93,46.97,39.07c-3.55,1.45-6.76,2.76-10.25,4.18c8.82,7.98,17.42,15.75,26.01,23.52
	c0.1-0.11,0.21-0.21,0.31-0.32c-5.96-7.19-11.92-14.38-18.01-21.73c4.13-1.27,7.86-2.42,11.99-3.69
	C52.82,161.63,34,147.92,15.19,134.21z M1.95,180.87c15.71,11.86,31.41,23.72,47.43,35.82c-0.58-5.38-1.1-10.32-1.68-15.67
	c8.31,4.45,16.21,8.68,24.1,12.91c0.08-0.12,0.17-0.24,0.25-0.35c-10.75-8.53-21.49-17.06-32.7-25.96
	c1.07,5.79,2.03,10.95,3.06,16.49c-13.63-8.01-26.93-15.82-40.23-23.63C2.11,180.6,2.03,180.73,1.95,180.87z M258.46,174.34
	c8.32-8.48,16.65-16.96,25.17-25.65c-3.61-1.22-6.91-2.34-10.49-3.55c15.28-14.33,30.38-28.49,45.48-42.66
	c-0.08-0.09-0.16-0.18-0.24-0.27c-18.29,15.08-36.57,30.15-55.15,45.47c4.23,1.04,8.04,1.97,12.18,2.99
	c-5.88,8.02-11.55,15.73-17.21,23.45C258.29,174.2,258.38,174.27,258.46,174.34z M402.48,112.82c0-7.43-3.04-14.18-7.93-19.07
	c-7.72-7.72-17.25-7.93-19.07-7.93c-53.3-4.28-110.94-6.91-172.39-6.92v0c-61.45,0-119.09,2.63-172.39,6.92
	c-1.82,0.01-11.35,0.22-19.07,7.93C6.73,98.65,3.7,105.4,3.7,112.82c-1.54,20.2-2.66,41.47-3.24,63.66l4.78-1.18l11.54,6.78
	c0.23-12.76,0.66-25.15,1.23-37.17l-0.24-0.2l-6.67-5.54l-0.97-8.2l0.26-0.35l8.34-1.26l0.11,0.08c0.13-2.24,0.27-4.48,0.41-6.68
	c0-6.31,2.22-12.05,5.8-16.21c5.64-6.56,12.61-6.74,13.93-6.74c38.95-3.64,81.06-5.87,125.96-5.88v0c44.9,0,87.01,2.24,125.96,5.88
	c1.29,0,7.9,0.19,13.45,6.21l10.22-8.43l8.31,0.65l0.24,0.27l-0.39,8.35l-12.45,11.67c0.22,1.37,0.35,2.78,0.35,4.22
	c0.65,9.89,1.19,20.07,1.63,30.53l8.44-5.66l8.19,1.45l0.28,0.38l-0.95,8.1l-15.36,13.1c0.31,11.17,0.48,22.62,0.48,34.37
	c0,3.19-0.02,6.35-0.04,9.5l5.8,2.52l3.22,7.63l-0.1,0.25l-7.21,3.66l-1.89-0.52c-0.36,20.12-1.19,39.34-2.35,57.57h41.68
	c10.28,0,18.69,8.41,18.69,18.69v0c0,10.28-8.41,18.69-18.69,18.69H179.59c-5.57,0-10.59-2.49-14.02-6.39c-0.21,0-0.42,0-0.63,0v0
	c-44.9,0-87.02-2.24-125.96-5.88c-1.33,0-8.3-0.18-13.93-6.74c-3.58-4.16-5.8-9.9-5.8-16.21c-0.62-9.53-1.16-19.32-1.58-29.38
	l-2.36,0.8l-7.49-3.4l-0.14-0.34l2.84-7.63l6.64-3.36c-0.4-12.78-0.62-25.93-0.62-39.46c0-1.88,0.02-3.73,0.03-5.6L0.22,187.08
	C0.08,194.5,0,202.01,0,209.64c-0.01,34.61,1.39,67.17,3.7,97.4c0,7.43,3.04,14.18,7.93,19.07c7.72,7.72,17.25,7.93,19.07,7.93
	c53.3,4.28,110.94,6.91,172.39,6.92v0c61.45,0,119.09-2.63,172.39-6.92c1.82-0.01,11.35-0.22,19.07-7.93
	c4.89-4.89,7.93-11.64,7.93-19.07c2.3-30.24,3.7-62.79,3.7-97.4C406.17,175.25,404.77,142.89,402.48,112.82z M382.96,131.39
	c0,11.2-9.08,20.28-20.28,20.28c-1.69,0-3.33-0.23-4.9-0.62l21.1-31.82C381.43,122.61,382.96,126.82,382.96,131.39z M346.36,171.45
	c1.01-1.13,2.47-2.54,4.44-3.86c1.93-1.29,3.75-2.09,5.17-2.6l20.7,41.17C366.56,194.59,356.46,183.02,346.36,171.45z
	 M371.63,204.95c-5.84,2.86-12.94,2.87-19.01-0.6c-9.72-5.56-13.1-17.95-7.54-27.67c0.25-0.43,0.52-0.83,0.79-1.23l13.1,15
	L371.63,204.95z M360.16,166.66c4.21-0.53,8.62,0.23,12.59,2.49c9.72,5.56,13.1,17.95,7.54,27.67c-0.84,1.47-1.85,2.78-2.97,3.95
	L360.16,166.66z M373.42,111.56c2.08,1.03,3.68,2.22,4.82,3.19l-25.46,38.41c5.03-14.51,10.06-29.03,15.09-43.54
	C369.35,109.94,371.3,110.5,373.42,111.56z M362.68,111.11c0.49,0,0.98,0.04,1.46,0.07L357.63,130l-6.3,18.19
	c-5.38-3.65-8.92-9.81-8.92-16.8C342.41,120.19,351.48,111.11,362.68,111.11z M334.77,274.94c-1.82,0-3.3-1.48-3.3-3.3
	c0-1.82,1.48-3.3,3.3-3.3c1.82,0,3.3,1.48,3.3,3.3C338.07,273.46,336.59,274.94,334.77,274.94z M334.77,265.3
	c-1.82,0-3.3-1.48-3.3-3.3c0-1.82,1.48-3.3,3.3-3.3c1.82,0,3.3,1.48,3.3,3.3C338.07,263.83,336.59,265.3,334.77,265.3z
	 M334.77,255.67c-1.82,0-3.3-1.48-3.3-3.3c0-1.82,1.48-3.3,3.3-3.3c1.82,0,3.3,1.48,3.3,3.3
	C338.07,254.19,336.59,255.67,334.77,255.67z M334.77,246.04c-1.82,0-3.3-1.48-3.3-3.3c0-1.82,1.48-3.3,3.3-3.3
	c1.82,0,3.3,1.48,3.3,3.3C338.07,244.56,336.59,246.04,334.77,246.04z M344.85,274.94c-1.82,0-3.3-1.48-3.3-3.3
	c0-1.82,1.48-3.3,3.3-3.3c1.82,0,3.3,1.48,3.3,3.3C348.15,273.46,346.67,274.94,344.85,274.94z M344.85,265.3
	c-1.82,0-3.3-1.48-3.3-3.3c0-1.82,1.48-3.3,3.3-3.3c1.82,0,3.3,1.48,3.3,3.3C348.15,263.83,346.67,265.3,344.85,265.3z
	 M344.85,255.67c-1.82,0-3.3-1.48-3.3-3.3c0-1.82,1.48-3.3,3.3-3.3c1.82,0,3.3,1.48,3.3,3.3
	C348.15,254.19,346.67,255.67,344.85,255.67z M344.85,246.04c-1.82,0-3.3-1.48-3.3-3.3c0-1.82,1.48-3.3,3.3-3.3
	c1.82,0,3.3,1.48,3.3,3.3C348.15,244.56,346.67,246.04,344.85,246.04z M354.93,274.94c-1.82,0-3.3-1.48-3.3-3.3
	c0-1.82,1.48-3.3,3.3-3.3c1.82,0,3.3,1.48,3.3,3.3C358.22,273.46,356.75,274.94,354.93,274.94z M354.93,265.3
	c-1.82,0-3.3-1.48-3.3-3.3c0-1.82,1.48-3.3,3.3-3.3c1.82,0,3.3,1.48,3.3,3.3C358.22,263.83,356.75,265.3,354.93,265.3z
	 M354.93,255.67c-1.82,0-3.3-1.48-3.3-3.3c0-1.82,1.48-3.3,3.3-3.3c1.82,0,3.3,1.48,3.3,3.3
	C358.22,254.19,356.75,255.67,354.93,255.67z M354.93,246.04c-1.82,0-3.3-1.48-3.3-3.3c0-1.82,1.48-3.3,3.3-3.3
	c1.82,0,3.3,1.48,3.3,3.3C358.22,244.56,356.75,246.04,354.93,246.04z M365,274.94c-1.82,0-3.3-1.48-3.3-3.3
	c0-1.82,1.48-3.3,3.3-3.3c1.82,0,3.3,1.48,3.3,3.3C368.3,273.46,366.83,274.94,365,274.94z M365,265.3c-1.82,0-3.3-1.48-3.3-3.3
	c0-1.82,1.48-3.3,3.3-3.3c1.82,0,3.3,1.48,3.3,3.3C368.3,263.83,366.83,265.3,365,265.3z M365,255.67c-1.82,0-3.3-1.48-3.3-3.3
	c0-1.82,1.48-3.3,3.3-3.3c1.82,0,3.3,1.48,3.3,3.3C368.3,254.19,366.83,255.67,365,255.67z M365,246.04c-1.82,0-3.3-1.48-3.3-3.3
	c0-1.82,1.48-3.3,3.3-3.3c1.82,0,3.3,1.48,3.3,3.3C368.3,244.56,366.83,246.04,365,246.04z M375.08,274.94c-1.82,0-3.3-1.48-3.3-3.3
	c0-1.82,1.48-3.3,3.3-3.3c1.82,0,3.3,1.48,3.3,3.3C378.38,273.46,376.9,274.94,375.08,274.94z M375.08,265.3
	c-1.82,0-3.3-1.48-3.3-3.3c0-1.82,1.48-3.3,3.3-3.3c1.82,0,3.3,1.48,3.3,3.3C378.38,263.83,376.9,265.3,375.08,265.3z
	 M375.08,255.67c-1.82,0-3.3-1.48-3.3-3.3c0-1.82,1.48-3.3,3.3-3.3c1.82,0,3.3,1.48,3.3,3.3
	C378.38,254.19,376.9,255.67,375.08,255.67z M375.08,246.04c-1.82,0-3.3-1.48-3.3-3.3c0-1.82,1.48-3.3,3.3-3.3
	c1.82,0,3.3,1.48,3.3,3.3C378.38,244.56,376.9,246.04,375.08,246.04z M385.16,274.94c-1.82,0-3.3-1.48-3.3-3.3
	c0-1.82,1.48-3.3,3.3-3.3c1.82,0,3.3,1.48,3.3,3.3C388.46,273.46,386.98,274.94,385.16,274.94z M385.16,265.3
	c-1.82,0-3.3-1.48-3.3-3.3c0-1.82,1.48-3.3,3.3-3.3c1.82,0,3.3,1.48,3.3,3.3C388.46,263.83,386.98,265.3,385.16,265.3z
	 M385.16,255.67c-1.82,0-3.3-1.48-3.3-3.3c0-1.82,1.48-3.3,3.3-3.3c1.82,0,3.3,1.48,3.3,3.3
	C388.46,254.19,386.98,255.67,385.16,255.67z M385.16,246.04c-1.82,0-3.3-1.48-3.3-3.3c0-1.82,1.48-3.3,3.3-3.3
	c1.82,0,3.3,1.48,3.3,3.3C388.46,244.56,386.98,246.04,385.16,246.04z M393.46,225.48h-57.65v-6.53h57.65V225.48z M256.64,197.92
	c-0.03,0.11-0.05,0.21-0.08,0.32c7.56,2.44,15.12,4.88,22.9,7.4c-1.82,1.95-3.38,3.63-5.12,5.5c14.33,3.95,28.3,7.8,42.27,11.66
	c0.03-0.09,0.06-0.17,0.1-0.26c-11.11-4.82-22.22-9.64-33.48-14.52c1.84-2.24,3.47-4.21,5.32-6.45
	C277.61,200.33,267.13,199.13,256.64,197.92z M211.55,207.17c-2.45,0.36-4.94,0.49-7.37,0.96c-0.61,0.12-1.36,1.13-1.47,1.83
	c-0.27,1.66-0.21,3.38-0.25,5.08c-0.21,9.66-0.4,19.33-0.62,28.99c-0.2,8.75-0.43,17.5-0.68,26.24c-0.04,1.29,0.12,2.23,1.78,2.01
	c2.33-0.32,4.66-0.62,6.99-0.87c1.51-0.16,2.11-0.9,2.13-2.44c0.06-4.7,0.25-9.4,0.36-14.1c0.29-12.93,0.57-25.86,0.85-38.79
	c0.05,0,0.1,0,0.15,0c0-2.35-0.05-4.7,0.02-7.05C213.49,207.63,213.11,206.95,211.55,207.17z M256.13,190.39
	c7.87-4.84,15.73-9.68,23.8-14.63c-0.25,5.28-0.49,10.25-0.75,15.75c15.32-13.07,30.23-25.79,45.14-38.51
	c-0.09-0.13-0.19-0.26-0.28-0.38c-12.76,8.56-25.53,17.11-38.67,25.93c0.72-5.73,1.37-10.93,2.09-16.66
	c-10.78,9.66-21.16,18.96-31.55,28.27C255.98,190.23,256.06,190.31,256.13,190.39z M139.32,142.24c-2,0.28-4.01,0.54-6.02,0.73
	c-1.8,0.18-2.64,1.03-2.66,2.91c-0.05,4.83-0.23,9.66-0.35,14.49c-0.12,4.7-0.23,9.4-0.34,14.1c-0.17,7.64-0.53,15.28-0.45,22.91
	c0.07,6.44,4.21,9.62,10.68,8.78c2.78-0.36,5.57-0.67,8.36-0.95c7.88-0.81,12.22-5.11,12.55-12.64c0.2-4.43,0.24-8.88,0.35-13.31
	c0.11-4.7,0.22-9.4,0.32-14.1c0.18-7.9,0.35-15.8,0.54-23.7c0.03-1.38-0.66-1.88-1.97-1.71c-2.14,0.27-4.27,0.57-6.41,0.77
	c-1.55,0.15-2.13,0.98-2.16,2.46c-0.21,8.75-0.47,17.49-0.68,26.24c-0.18,7.25-0.31,14.5-0.49,21.74c-0.05,2.15-1.01,3.27-3.1,3.64
	c-1.28,0.23-2.58,0.38-3.88,0.47c-2.42,0.18-3.25-0.56-3.23-2.97c0.03-2.61,0.21-5.22,0.26-7.83c0.27-12.01,0.52-24.02,0.78-36.04
	c0.04,0,0.07,0,0.11,0c0-1.37-0.02-2.75,0.01-4.12C141.58,142.54,140.8,142.04,139.32,142.24z M200.73,168.64
	c-1.97-10.3-3.97-20.59-5.91-30.9c-0.3-1.58-0.96-2.2-2.64-1.94c-2.9,0.46-5.81,0.85-8.74,1.04c-1.94,0.13-2.63,1.08-3.02,2.84
	c-3.28,14.55-6.64,29.07-9.98,43.61c-1.34,5.84-2.72,11.67-4.06,17.51c-0.43,1.89-0.08,2.25,1.82,2.01
	c2.26-0.29,4.52-0.62,6.79-0.85c1.37-0.14,2.03-0.77,2.27-2.18c0.54-3.21,1.31-6.38,1.88-9.58c0.2-1.15,0.63-1.69,1.84-1.81
	c4.02-0.41,8.03-0.93,12.27-1.43c0.18,0.91,0.35,1.67,0.48,2.43c0.5,2.82,1.01,5.64,1.46,8.48c0.18,1.13,0.7,1.59,1.85,1.42
	c2.39-0.35,4.78-0.69,7.17-0.94c1.6-0.17,2.08-0.78,1.74-2.45C204.16,186.82,202.47,177.72,200.73,168.64z M181.74,178.86
	c1.83-9.16,3.6-18.05,5.37-26.94c0.11-0.01,0.22-0.01,0.33-0.02c1.36,8.54,2.72,17.09,4.11,25.8
	C188.14,178.1,185.13,178.46,181.74,178.86z M198.99,314.51h-3.42c-0.18,0-0.27-0.09-0.27-0.27V299.9c0-0.11-0.05-0.16-0.16-0.16
	h-4.63c-0.18,0-0.27-0.09-0.27-0.27v-2.99c0-0.18,0.09-0.27,0.27-0.27h13.53c0.18,0,0.27,0.09,0.27,0.27v2.99
	c0,0.18-0.09,0.27-0.27,0.27h-4.63c-0.11,0-0.16,0.05-0.16,0.16v14.34C199.26,314.42,199.17,314.51,198.99,314.51z M207.87,314.24
	v-17.76c0-0.18,0.09-0.27,0.27-0.27h11.73c0.18,0,0.27,0.09,0.27,0.27v2.88c0,0.18-0.09,0.27-0.27,0.27h-7.88
	c-0.11,0-0.16,0.05-0.16,0.16v3.63c0,0.11,0.05,0.16,0.16,0.16h6.56c0.18,0,0.27,0.09,0.27,0.27v2.85c0,0.18-0.09,0.27-0.27,0.27
	h-6.56c-0.11,0-0.16,0.05-0.16,0.16v3.79c0,0.11,0.05,0.16,0.16,0.16h7.88c0.18,0,0.27,0.09,0.27,0.27v2.88
	c0,0.18-0.09,0.27-0.27,0.27h-11.73C207.96,314.51,207.87,314.42,207.87,314.24z M224.42,314.24v-17.76c0-0.18,0.09-0.27,0.27-0.27
	h3.42c0.18,0,0.27,0.09,0.27,0.27v14.34c0,0.11,0.05,0.16,0.16,0.16h8.07c0.18,0,0.27,0.09,0.27,0.27v2.99
	c0,0.18-0.09,0.27-0.27,0.27h-11.92C224.51,314.51,224.42,314.42,224.42,314.24z M240.56,314.24v-17.76c0-0.18,0.09-0.27,0.27-0.27
	h11.73c0.18,0,0.27,0.09,0.27,0.27v2.88c0,0.18-0.09,0.27-0.27,0.27h-7.88c-0.11,0-0.16,0.05-0.16,0.16v3.63
	c0,0.11,0.05,0.16,0.16,0.16h6.56c0.18,0,0.27,0.09,0.27,0.27v2.85c0,0.18-0.09,0.27-0.27,0.27h-6.56c-0.11,0-0.16,0.05-0.16,0.16
	v3.79c0,0.11,0.05,0.16,0.16,0.16h7.88c0.18,0,0.27,0.09,0.27,0.27v2.88c0,0.18-0.09,0.27-0.27,0.27h-11.73
	C240.65,314.51,240.56,314.42,240.56,314.24z M264.94,314.51h-3.12c-0.18,0-0.3-0.09-0.35-0.27l-5.81-17.73
	c-0.05-0.2,0.03-0.3,0.24-0.3h3.5c0.18,0,0.3,0.09,0.35,0.27l3.66,12h0.08l3.55-12c0.05-0.18,0.17-0.27,0.35-0.27h3.47
	c0.2,0,0.27,0.1,0.22,0.3l-5.81,17.73C265.21,314.42,265.1,314.51,264.94,314.51z M274.46,314.24v-17.76c0-0.18,0.09-0.27,0.27-0.27
	h3.42c0.18,0,0.27,0.09,0.27,0.27v17.76c0,0.18-0.09,0.27-0.27,0.27h-3.42C274.55,314.51,274.46,314.42,274.46,314.24z
	 M289.43,314.81c-1.38,0-2.72-0.24-4.01-0.71c-1.29-0.48-2.3-1.07-3.04-1.79c-0.14-0.14-0.15-0.3-0.03-0.46l2.04-2.34
	c0.11-0.14,0.24-0.15,0.4-0.03c1.58,1.26,3.18,1.88,4.79,1.88c0.93,0,1.66-0.2,2.19-0.59s0.79-0.92,0.79-1.59
	c0-0.57-0.21-1.02-0.63-1.35c-0.42-0.32-1.15-0.56-2.19-0.7l-0.97-0.13c-3.86-0.54-5.79-2.37-5.79-5.49c0-1.69,0.59-3.04,1.76-4.06
	s2.75-1.53,4.72-1.53c2.49,0,4.56,0.64,6.21,1.91c0.16,0.11,0.18,0.24,0.05,0.4l-1.64,2.45c-0.11,0.14-0.23,0.17-0.38,0.08
	c-1.44-0.93-2.85-1.4-4.25-1.4c-0.79,0-1.4,0.18-1.82,0.55c-0.42,0.37-0.63,0.85-0.63,1.44c0,0.54,0.22,0.97,0.66,1.3
	s1.17,0.57,2.19,0.71l0.97,0.13c3.84,0.52,5.76,2.37,5.76,5.54c0,1.72-0.62,3.11-1.87,4.17
	C293.49,314.28,291.72,314.81,289.43,314.81z M300.62,314.24v-17.76c0-0.18,0.09-0.27,0.27-0.27h3.42c0.18,0,0.27,0.09,0.27,0.27
	v17.76c0,0.18-0.09,0.27-0.27,0.27h-3.42C300.71,314.51,300.62,314.42,300.62,314.24z M320.33,313.68
	c-1.18,0.75-2.58,1.13-4.21,1.13c-1.63,0-3.04-0.38-4.21-1.13c-1.18-0.75-2-1.86-2.46-3.31c-0.34-1.08-0.51-2.75-0.51-5
	s0.17-3.93,0.51-5c0.47-1.45,1.29-2.56,2.46-3.31c1.17-0.75,2.58-1.13,4.21-1.13c1.63,0,3.04,0.38,4.21,1.13
	c1.17,0.75,2,1.86,2.46,3.31c0.34,1.08,0.51,2.75,0.51,5s-0.17,3.93-0.51,5C322.32,311.82,321.5,312.92,320.33,313.68z
	 M316.12,311.31c1.49,0,2.45-0.67,2.88-2.02c0.2-0.59,0.3-1.9,0.3-3.93c0-2.03-0.1-3.34-0.3-3.93c-0.43-1.34-1.39-2.02-2.88-2.02
	c-1.49,0-2.45,0.67-2.88,2.02c-0.2,0.59-0.3,1.9-0.3,3.93c0,2.03,0.1,3.34,0.3,3.93C313.67,310.64,314.63,311.31,316.12,311.31z
	 M316.92,294.22h-2.5c-0.09,0-0.14-0.03-0.16-0.08c-0.02-0.05,0-0.12,0.05-0.19l2.56-3.09c0.14-0.18,0.31-0.27,0.51-0.27h3.23
	c0.09,0,0.15,0.03,0.19,0.08c0.04,0.05,0.02,0.12-0.05,0.19l-3.31,3.12C317.27,294.14,317.1,294.22,316.92,294.22z M327.66,314.24
	v-17.76c0-0.18,0.09-0.27,0.27-0.27h3.23c0.2,0,0.35,0.09,0.46,0.27l6.46,11.52h0.13v-11.52c0-0.18,0.09-0.27,0.27-0.27h3.04
	c0.18,0,0.27,0.09,0.27,0.27v17.76c0,0.18-0.09,0.27-0.27,0.27h-3.2c-0.2,0-0.35-0.09-0.46-0.27l-6.48-11.49h-0.13v11.49
	c0,0.18-0.09,0.27-0.27,0.27h-3.04C327.75,314.51,327.66,314.42,327.66,314.24z"/>
</svg>
