<?xml version="1.0" encoding="utf-8"?>
<!-- Generator: Adobe Illustrator 27.0.0, SVG Export Plug-In . SVG Version: 6.00 Build 0)  -->
<svg version="1.1" id="Layer_1" xmlns="http://www.w3.org/2000/svg" xmlns:xlink="http://www.w3.org/1999/xlink" x="0px" y="0px"
	 viewBox="0 0 293 178" style="enable-background:new 0 0 293 178;" xml:space="preserve">
<style type="text/css">
	.st0{fill:#FFFFFF;}
</style>
<path class="st0" d="M192.5,21.8c-4.7,0.6-9.3,1.1-13.8,1.7c-8.3,1-16.6,2-24.9,3.1c-8.2,1-16.4,2-24.5,3c-6,0.7-12,1.5-18,2.2
	c-1.1,0.1-1.8-0.3-1.8-1.6c0-2.1,0-4.1,0.1-6.2c0-1.2,0.7-1.9,1.9-2c7.8-1,15.7-1.9,23.5-2.9c8.2-1,16.5-2,24.7-3
	c8.4-1,16.7-2,25.1-3c5.2-0.6,10.5-1.3,15.7-1.9c1.9-0.2,2.4,0.2,2.4,2c-0.2,10.5-0.5,21-0.7,31.5c-0.2,9-0.5,18.1-0.7,27.1
	c-0.1,2.6,0.6,3.3,3.3,3c5.7-0.5,6-0.9,6.1-6.6c0.3-12.6,0.5-25.3,0.8-37.9c0-0.6,0.2-1.2,0.1-1.8c-0.2-3.9,0.4-3.6,4.1-4.1
	c1.2-0.2,2.4-0.2,3.5-0.4c1.5-0.2,2.1,0.5,2,1.9c-0.1,5.3-0.2,10.5-0.4,15.8c-0.1,4.4-0.2,8.7-0.3,13.1c-0.2,6-0.3,11.9-0.5,17.9
	c-0.3,6.8-4.2,10.6-11.3,11.3c-2.7,0.3-5.3,0.6-7.9,0.9c-5.6,0.7-9.4-2.5-9.3-8.2c0.3-15,0.7-30,1-45
	C192.5,28.5,192.5,25.3,192.5,21.8z M81.8,146.8c1.3-0.3,1.8,0.2,2.1,1.5c1.2,5.1,2.5,10.2,3.7,15.3c0.3,1.5,1.1,1.8,2.4,1.6
	c1.9-0.3,3.8-0.5,5.6-0.7c2-0.2,2.2-0.6,1.8-2.5c-1.3-5.3-2.6-10.7-3.9-16c-0.2-1-0.1-1.6,0.8-2.2c2.4-1.7,3.9-4.1,4-7
	c0.4-7,0.6-14,0.7-21.1c0.1-6-3.6-9.1-9.7-8.3c-5.4,0.7-10.8,1.3-16.3,1.9c-3.2,0.4-3.2,0.3-3.4,3.6c0,0.9-0.1,1.8-0.1,2.6
	c-0.3,10.3-0.5,20.7-0.8,31c-0.1,6.5-0.3,13-0.4,19.5c0,1.2,0.3,1.8,1.6,1.6c2-0.3,4-0.6,6-0.7c1.7-0.1,2.3-0.9,2.3-2.6
	c0-5.7,0.2-11.3,0.4-17.1C79.9,147.1,80.9,147,81.8,146.8z M79.3,123.6c0-1.5,0-3,0.2-4.4c0-0.4,0.6-1,0.9-1.1c2-0.3,4-0.6,6-0.7
	c1.9-0.2,2.8,0.6,2.7,2.6c-0.1,4.5-0.2,9.1-0.3,13.6c0,1.4-0.7,2.6-2.2,2.9c-2.4,0.5-4.9,0.7-7.3,1
	C79.3,132.6,79.3,128.1,79.3,123.6z M129,158.5c0.2,1,0.4,1.9,1.8,1.7c2.1-0.3,4.2-0.6,6.3-0.8c1.7-0.1,2.1-0.9,1.8-2.4
	c-3.4-17.6-6.9-35.2-10.2-52.8c-0.2-1.2-0.7-1.6-1.9-1.4c-2.8,0.4-5.6,0.8-8.5,1c-1.6,0.1-2.2,0.8-2.5,2.3
	c-2.8,12.3-5.8,24.5-8.7,36.8c-2.6,11.1-5.3,22.3-7.9,33.4c-0.3,1.4,0.1,1.9,1.5,1.7c1.3-0.2,2.6-0.4,3.9-0.5
	c4.9-0.6,3.9,0.3,5.1-4.8c1.6-6.8,3.1-13.7,4.8-20.5c0.2-0.6,0.7-1.6,1.2-1.6c3.9-0.6,7.7-1,11.7-1.4
	C128,152.3,128.5,155.4,129,158.5z M116.9,141.7c1.6-8.2,3.2-16.1,4.8-24.1c0.1,0,0.3,0,0.4,0c1.2,7.6,2.4,15.2,3.7,23
	C122.9,141,120,141.4,116.9,141.7z M144.6,151.2c0,1.8,0.1,3.5,0,5.3c-0.1,1.5,0.5,1.9,1.9,1.7c5.8-0.8,11.7-1.4,17.5-2.2
	c5.8-0.8,9.3-4.8,9.6-10.6c0.1-3.2,0.2-6.5,0.3-9.7c0.2-9.4,0.4-18.9,0.7-28.3c0.2-6-3.3-9.9-8.7-9.4c-6,0.6-11.9,1.4-17.8,2.1
	c-1.6,0.2-2.1,0.9-2.1,2.4c-0.3,16.2-0.7,32.5-1.1,48.7C144.7,151.2,144.7,151.2,144.6,151.2z M155.6,108.9c2.1-0.3,4.1-0.6,6.1-0.8
	c2.4-0.2,3.1,0.4,3,2.7c-0.1,6.8-0.3,13.7-0.4,20.5c-0.1,4-0.2,8-0.3,12c-0.1,2.1-0.9,3.1-2.9,3.4c-2,0.3-4.1,0.5-6.4,0.7
	C155,134.6,155.3,121.8,155.6,108.9z M198.9,137.8c0,1.8,0,3.7,0,5.5c0.1,3.6,2,6.4,5.1,7c1.6,0.4,3.4,0.4,5.1,0.3
	c2.6-0.2,5.2-0.7,7.8-0.9c6.3-0.7,10.2-4.5,10.5-10.8c0.3-6.7,0.5-13.3,0.6-20c0.2-6.5,0.4-13,0.3-19.5c0-5.1-3-8-8-7.8
	c-3.3,0.1-6.6,0.6-9.9,1c-6.8,0.8-10.6,4.7-10.8,11.6C199.4,115.3,199.2,126.5,198.9,137.8C198.9,137.8,198.9,137.8,198.9,137.8z
	 M209.3,105.8c0.1-3,0.8-3.8,3.8-4.2c1.1-0.1,2.2-0.3,3.4-0.4c1.8-0.1,2.6,0.7,2.6,2.5c-0.3,11-0.6,22.1-0.9,33.1
	c-0.1,2.1-0.8,3-2.7,3.3c-1.5,0.3-3.1,0.4-4.6,0.5c-1.6,0.2-2.3-0.7-2.4-2.2c-0.1-1,0-2,0-3c0,0,0.1,0,0.1,0
	C208.9,125.7,209.1,115.8,209.3,105.8z M126.9,41.6c0-1.2,0-2.5,0-3.7c0-1.4-0.7-1.9-2-1.7c-1.8,0.3-3.6,0.5-5.5,0.7
	c-1.6,0.2-2.4,0.9-2.4,2.6c-0.1,4.4-0.2,8.7-0.3,13.1c-0.1,4.3-0.2,8.5-0.3,12.8c-0.2,6.9-0.5,13.8-0.4,20.7
	c0.1,5.8,3.8,8.7,9.7,7.9c2.5-0.3,5.1-0.6,7.6-0.9c7.2-0.7,11.1-4.6,11.4-11.4c0.2-4,0.2-8,0.3-12c0.1-4.3,0.2-8.5,0.3-12.8
	c0.2-7.1,0.3-14.3,0.5-21.4c0-1.2-0.6-1.7-1.8-1.6c-1.9,0.2-3.9,0.5-5.8,0.7c-1.4,0.1-1.9,0.9-2,2.2c-0.2,7.9-0.4,15.8-0.6,23.7
	c-0.2,6.6-0.3,13.1-0.4,19.7c-0.1,1.9-0.9,3-2.8,3.3c-1.2,0.2-2.3,0.3-3.5,0.4c-2.2,0.2-3-0.5-2.9-2.7c0-2.4,0.2-4.7,0.2-7.1
	c0.2-10.9,0.5-21.7,0.7-32.6C126.8,41.6,126.8,41.6,126.9,41.6z M174.3,78.9c0.4,2.6,0.9,5.1,1.3,7.7c0.2,1,0.6,1.4,1.7,1.3
	c2.2-0.3,4.3-0.6,6.5-0.9c1.5-0.1,1.9-0.7,1.6-2.2c-1.6-8.2-3.2-16.4-4.8-24.7c-1.8-9.3-3.6-18.6-5.4-28c-0.3-1.4-0.9-2-2.4-1.8
	c-2.6,0.4-5.3,0.8-7.9,0.9c-1.8,0.1-2.4,1-2.7,2.6c-3,13.2-6,26.3-9.1,39.5c-1.2,5.3-2.5,10.6-3.7,15.8c-0.4,1.7-0.1,2,1.7,1.8
	c2.1-0.3,4.1-0.6,6.2-0.8c1.2-0.1,1.8-0.7,2.1-2c0.5-2.9,1.2-5.8,1.7-8.7c0.2-1,0.6-1.5,1.7-1.6c3.7-0.4,7.3-0.8,11.2-1.3
	C174.1,77.5,174.2,78.2,174.3,78.9z M163.4,69.3c1.7-8.3,3.3-16.3,4.9-24.4c0.1,0,0.2,0,0.3,0c1.2,7.7,2.5,15.5,3.7,23.3
	C169.2,68.7,166.5,69,163.4,69.3z M79.5,91.3c0.2,4.4,3.2,7.4,7.6,7.2c4.2-0.2,8.4-0.7,12.5-1.4c4.3-0.8,7.4-3.6,8.1-7.9
	c0.6-3.7,0.5-7.5,0.6-11.3c0-0.3-0.9-0.9-1.3-0.9c-2.1,0.1-4.2,0.5-6.4,0.7c-1.4,0.1-1.9,0.8-1.8,2.1c0,1.7,0,3.3,0,5
	c-0.1,2.1-0.9,3-2.9,3.3c-1.1,0.2-2.2,0.3-3.4,0.4c-2.2,0.3-3-0.4-3-2.5c0-3.7,0.2-7.4,0.3-11.2c0.2-7.1,0.3-14.3,0.5-21.4
	c0.1-2.1,0.9-3.1,3-3.4c1.2-0.2,2.3-0.3,3.5-0.5c1.8-0.2,2.7,0.6,2.7,2.4c0,1.8-0.1,3.7-0.1,5.5c0,1,0.2,1.7,1.4,1.5
	c2.2-0.3,4.3-0.6,6.5-0.8c1.1-0.1,1.7-0.7,1.7-1.9c0-3.2,0.2-6.4,0-9.6c-0.2-4-2.8-6.7-6.6-7.1c-1.2-0.1-2.4-0.1-3.6,0.1
	c-2.4,0.3-4.8,0.6-7.2,0.9c-7.5,0.9-11.1,4.6-11.3,12.2c-0.3,10.9-0.5,21.7-0.8,32.9C79.5,87.2,79.4,89.3,79.5,91.3z M192.2,103
	c0-2.1,0-4.3,0-6.4c0-1.3-0.3-1.9-1.7-1.7c-2.2,0.3-4.5,0.4-6.7,0.9c-0.6,0.1-1.2,1-1.3,1.7c-0.2,1.5-0.2,3.1-0.2,4.6
	c-0.2,8.7-0.4,17.5-0.6,26.2c-0.2,7.9-0.4,15.8-0.6,23.7c0,1.2,0.1,2,1.6,1.8c2.1-0.3,4.2-0.6,6.4-0.8c1.4-0.1,1.9-0.8,1.9-2.2
	c0.1-4.3,0.2-8.5,0.3-12.8c0.3-11.7,0.5-23.4,0.8-35.1C192.1,103,192.2,103,192.2,103z M231,79.8c7.1-4.4,14.3-8.8,21.6-13.2
	c-0.2,4.8-0.4,9.3-0.7,14.2c13.9-11.8,27.5-23.3,41-34.8c-0.1-0.1-0.2-0.2-0.3-0.3c-11.6,7.7-23.2,15.5-35.1,23.5
	c0.7-5.2,1.2-9.9,1.9-15.1c-9.8,8.7-19.2,17.2-28.7,25.6C230.9,79.6,231,79.7,231,79.8z M63.7,100.7C54,93,44.2,85.3,34,77.3
	c1,5.2,1.8,9.9,2.8,14.9C24.4,84.9,12.3,77.9,0.2,70.8C0.1,70.9,0.1,71,0,71.2c14.3,10.7,28.6,21.5,43.1,32.4
	c-0.5-4.9-1-9.3-1.5-14.2c7.6,4,14.7,7.9,21.9,11.7C63.6,101,63.7,100.8,63.7,100.7z M232.9,65.1c0.1,0.1,0.1,0.1,0.2,0.2
	c7.6-7.7,15.1-15.3,22.9-23.2c-3.3-1.1-6.3-2.1-9.5-3.2c13.9-13,27.6-25.8,41.3-38.6c-0.1-0.1-0.1-0.2-0.2-0.2
	c-16.6,13.6-33.2,27.3-50.1,41.1c3.8,0.9,7.3,1.8,11.1,2.7C243.2,51.1,238.1,58.1,232.9,65.1z M12,28.9c-0.1,0.1-0.2,0.2-0.2,0.3
	C26,41,40.1,52.7,54.5,64.6c-3.2,1.3-6.1,2.5-9.3,3.8c8,7.2,15.8,14.2,23.6,21.3c0.1-0.1,0.2-0.2,0.3-0.3
	c-5.4-6.5-10.8-13-16.4-19.7c3.8-1.2,7.1-2.2,10.9-3.3C46.2,53.8,29.1,41.3,12,28.9z M286.1,108.9c-10.1-4.4-20.2-8.7-30.4-13.1
	c1.7-2,3.2-3.8,4.8-5.8c-9.9-1.1-19.5-2.2-29-3.3c0,0.1-0.1,0.2-0.1,0.3c6.9,2.2,13.7,4.4,20.8,6.7c-1.7,1.8-3.1,3.3-4.7,5
	c13,3.6,25.7,7.1,38.4,10.5C286,109,286.1,108.9,286.1,108.9z M10.4,136.9c12.3-4.2,24.7-8.4,37.2-12.6c-1.8-1.6-3.3-3.1-5-4.7
	c6.9-2.7,13.7-5.3,20.4-7.9c0-0.1-0.1-0.2-0.1-0.3c-9.5,1.7-19,3.3-28.8,5c1.8,1.9,3.4,3.7,5.1,5.5c-9.8,4.9-19.4,9.8-29.1,14.6
	C10.3,136.7,10.3,136.8,10.4,136.9z"/>
</svg>
