<?xml version="1.0" encoding="utf-8"?>
<!-- Generator: Adobe Illustrator 27.0.0, SVG Export Plug-In . SVG Version: 6.00 Build 0)  -->
<svg version="1.1" id="Layer_1" xmlns="http://www.w3.org/2000/svg" xmlns:xlink="http://www.w3.org/1999/xlink" x="0px" y="0px"
	 viewBox="0 0 612 587.24" style="enable-background:new 0 0 612 587.24;" xml:space="preserve">
<style type="text/css">
	.st0{fill:#AA214E;}
</style>
<path class="st0" d="M391.76,402.86c12.38,8.69,21.34,15.03,31.49,24.99c9.38,9.21,14.85,14.68,19.08,24.21
	c4.53,10.19,5.17,19.46,5.39,23.25c0.17,2.88,0.44,10.2-1.62,19.19c-2.05,6.38-6.24,15.18-14.88,21.34
	c-14.74,10.51-32.81,6.49-41.67,4.51c-9.75-2.17-17.16-6.01-21.79-8.84c0.06-0.62,0.12-1.23,0.18-1.85
	c0.37-3.82,0.7-7.61,0.97-11.36c0-36.83,0-73.66,0-110.5C374.58,391.3,382.51,396.37,391.76,402.86z M481.09,191.28
	c0-32.16,0-64.32,0-96.48c-2.01-2.15-4.89-5.04-8.62-8.15c-4.5-3.76-10.76-8.9-20.08-12.75c-7.3-3.01-13.29-3.93-17.84-4.6
	c-10.92-1.61-14.83-0.99-17.09-0.26c-3.82,1.25-6.39,3.18-7.84,4.29c-6.36,4.87-9.08,11.04-10.34,14
	c-4.23,9.92-3.2,18.86-2.57,23.84c0.51,4.07,1.52,11.46,6.4,18.76c1.32,1.97,2.7,3.54,5.46,6.69c4.05,4.61,7.96,8.47,11.38,11.59
	c10.18,9.29,22.39,17.84,25.42,19.94C454.5,174.51,466.49,182.49,481.09,191.28z M267.4,297.45c0.02,0,0.04,0,0.06,0
	c-0.02-0.2-0.04-0.4-0.06-0.6v-0.08h-14.82c-13.55-0.06-29-0.1-33.64-0.09c-2.45,0-6.12,0.03-11.03-0.45
	c-1.8-0.17-1.25-0.17-7.45-0.9c-5.26-0.62-6.3-0.7-8.38-1.12c-1.74-0.35-4.02-0.82-6.87-1.88c-4.66-1.72-7.16-2.65-9.45-5.51
	c-1.05-1.32-2.9-4.1-3.92-9.21c0,0,0,0,0,0c-0.01-54.08-0.03-108.16-0.04-162.24c-0.14-11.82,0.18-21.77,0.57-29.38
	c0.41-7.98,0.92-13.88,2.51-21.03c1.55-6.97,3.25-11.21,3.79-12.53c2.19-5.33,4.42-10.58,9.53-15.47c3.59-3.43,7.07-5.22,9.1-6.25
	c6.61-3.33,12.33-3.97,13.99-4.12c2.47-0.23,4.71-0.18,6.67-0.01c0-0.22,0-0.44,0-0.66h0V22.8H14.53v1.83c-0.01,0-0.01,0-0.02,0
	c0,0.65,0,1.3,0,1.95c1.95-0.17,4.2-0.22,6.67,0.01c1.65,0.15,7.38,0.79,13.99,4.12c2.03,1.02,5.51,2.81,9.1,6.25
	c5.1,4.88,7.33,10.14,9.53,15.47c0.54,1.32,2.24,5.56,3.79,12.53c1.59,7.16,2.1,13.06,2.51,21.03c0.39,7.61,0.71,17.56,0.57,29.38
	c-0.03,124.77-0.06,249.54-0.09,374.32c0.25,8.42-0.23,15.42-0.78,20.53c-0.68,6.3-1.18,10.75-3,16.58
	c-1.11,3.53-2.88,9.04-7.07,15.17c-2.33,3.42-5.32,7.69-10.82,11.32c-5.05,3.32-9.73,4.46-12.35,5.07
	c-5.26,1.23-9.79,1.22-12.88,0.99c0,0.3,0,0.61,0,0.91c0,0.37,0,0.74,0,1.11v2.02h205.14v-2.02c0-0.37,0-0.74,0-1.11
	c0-0.3,0-0.61,0-0.91c-3.09,0.23-7.62,0.24-12.88-0.99c-2.61-0.61-7.3-1.75-12.35-5.07c-5.51-3.62-8.49-7.9-10.82-11.32
	c-4.19-6.13-5.96-11.64-7.07-15.17c-1.83-5.83-2.33-10.28-3-16.58c-0.55-5.12-1.03-12.12-0.78-20.53
	c-0.01-56.4-0.03-112.8-0.04-169.21c1.02-5.08,2.86-7.85,3.91-9.17c2.28-2.87,4.79-3.79,9.45-5.51c2.85-1.05,5.13-1.52,6.87-1.88
	c2.08-0.42,3.12-0.5,8.38-1.12c6.2-0.73,5.65-0.73,7.45-0.9c4.91-0.48,8.58-0.45,11.03-0.45c6.54,0.01,34.57-0.08,48.46-0.18
	c0.02-0.2,0.04-0.4,0.06-0.6c-0.02,0-0.04,0-0.06,0V297.45z M596.55,396.38c-2.37-39.51-19.42-66.88-25.65-76.6
	c-16.39-25.61-35.68-39.83-58.93-56.97c-2.64-1.94-23.83-15.19-66.11-41.59c-13.64-8.52-29.05-18.13-47.75-33.62
	c-19.42-16.09-25.69-24.68-28.89-29.5c-4.26-6.42-13.84-21.24-16.31-42.79c-2-17.44,1.61-30.91,3.83-39.18
	c1.88-7.01,4-14.67,9.6-23.38c2.56-3.99,8.16-12.52,17.74-18.63c11.43-7.29,22.72-7.43,37.18-7.42c9.42,0.01,30.02,0.24,53.83,11.04
	c5.64,2.56,21.47,10.25,37.08,25.86c11.51,11.51,18.04,22.46,22.64,30.28c1.92,3.28,8.5,14.71,14.35,31.03
	c3.1,8.65,10.82,32.12,11.46,63.2c0.07,3.58,0.04,6.52,0,8.4c0.3,0,0.6,0,0.9,0c0-63.52,0-127.04,0-190.56c-0.17,0-0.34,0-0.5,0
	c0,3.67,0,7.35,0,11.02c-0.03,2.75-0.33,6.66-1.59,11.16c-0.59,2.1-1.42,5-3.35,8.37c-1.38,2.41-3.86,6.61-8.67,9.61
	c-1.01,0.63-3.85,2.28-9.3,3.21c-2.69,0.46-8.21,1.12-20.9-1.5c-6.87-1.42-11.9-2.98-20.92-5.79c-3.11-0.97-4.08-1.31-13.36-4.36
	c-9.18-3.02-17.41-5.7-18.6-6.09c-9.79-3.16-28.6-7.18-49.99-6.96c-22.96,0.23-40.01,5.24-50.12,8.3
	c-14.05,4.24-33.74,10.38-54.45,25.98c-25.75,19.39-38.28,42.25-41.62,48.67c-2.03,3.91-28.88,57.57-7.42,116.64
	c10.04,27.64,27.04,46.48,35.61,55.81c13.58,14.78,28.05,25.64,38.19,33.25c8.66,6.5,17.25,12.03,34.08,22.84
	c31.94,20.51,36.71,22.08,53.47,34.22c14.3,10.36,21.85,15.82,31.27,25.36c11.34,11.48,25.95,26.25,33.67,50.39
	c1.59,4.99,6.15,20.56,4.59,40.88c-1.53,19.9-8.11,33.82-9.85,37.34c-1.79,3.63-3.79,7.64-7.5,12.27
	c-8.9,11.14-19.71,15.98-24.19,17.93c-7.46,3.24-17.86,6.14-42.02,5.01c-25.88-1.2-42.45-1.97-63.2-11
	c-25.89-11.26-41.34-28-49.09-36.58c-15.21-16.83-23.08-32.94-27.64-42.44c-8.09-16.86-11.72-30.73-13.8-38.81
	c-2.84-11.05-3.67-17.94-4.04-22.53c-0.61-7.41-0.42-13.68-0.09-18.23c-0.38,0-0.77,0-1.15,0.01v0h-2.92v190.64h2.74
	c0.06,0,0.12,0,0.18,0c0.48,0,0.97,0,1.45,0c0-4.12,0-8.24,0-12.36c0.38-3.09,1.83-11.22,8.52-18.09c5.58-5.73,11.91-7.59,14.79-8.4
	c4.16-1.17,8.05-1.45,17.41-0.71c16.67,1.33,29.05,4.18,30.35,4.49c12.27,2.88,20.8,5.85,24.81,7.16
	c21.98,7.17,41.83,8.22,56.21,8.98c58.16,3.06,106.2-22.03,112.04-25.17c17.32-9.29,37.16-19.95,54.44-42.68
	C599.34,453.95,597.31,409.07,596.55,396.38z M564.44,5.96h-2.92v190.55h2.92V5.96z"/>
</svg>
