<?xml version="1.0" encoding="utf-8"?>
<!-- Generator: Adobe Illustrator 27.0.0, SVG Export Plug-In . SVG Version: 6.00 Build 0)  -->
<svg version="1.1" id="Layer_1" xmlns="http://www.w3.org/2000/svg" xmlns:xlink="http://www.w3.org/1999/xlink" x="0px" y="0px"
	 viewBox="0 0 364 86" style="enable-background:new 0 0 364 86;" xml:space="preserve">
<style type="text/css">
	.st0{fill:#FFFFFF;}
</style>
<path class="st0" d="M0,2.3h24.2c-1.3,0-2.3,0.3-3,0.9c-0.7,0.6-1.3,1.3-1.6,2.2c-0.3,0.9-0.5,1.9-0.6,2.9c-0.1,1.1-0.1,2.1-0.1,3.1
	v22.9c0.9,0.4,1.9,0.7,2.8,0.8c1,0.1,2,0.2,3,0.2c-1,0.1-2,0.1-3,0.2c-1,0.1-1.9,0.4-2.8,0.8v21.5c0,0.9,0.1,1.9,0.2,3
	c0.1,1.1,0.4,2,0.7,2.9c0.4,0.9,0.9,1.6,1.6,2.2c0.7,0.6,1.7,0.9,2.9,0.9H0c1.3,0,2.4-0.3,3.1-0.9c0.7-0.6,1.3-1.4,1.6-2.3
	c0.4-0.9,0.6-1.9,0.6-3c0.1-1.1,0.1-2.2,0.1-3.2V11.8c0-1,0-2-0.1-3.1C5.2,7.5,5,6.5,4.6,5.6C4.3,4.6,3.7,3.8,3,3.2
	C2.3,2.6,1.3,2.3,0,2.3z M42.3,34.3V10.2c0-0.9-0.1-1.9-0.2-2.8s-0.4-1.8-0.8-2.6c-0.4-0.8-0.9-1.4-1.6-1.8
	c-0.7-0.5-1.6-0.7-2.8-0.7h24.2c-1.3,0-2.3,0.3-3,0.9c-0.7,0.6-1.3,1.4-1.6,2.4c-0.4,1-0.6,2-0.6,3.1c-0.1,1.1-0.1,2.2-0.1,3.1v45.5
	c0,1,0,2,0.1,3.1c0.1,1.1,0.3,2.1,0.6,3.1c0.4,1,0.9,1.7,1.6,2.4c0.7,0.6,1.7,0.9,3,0.9H36.9c1.3,0,2.3-0.3,3-0.8s1.2-1.3,1.6-2.1
	c0.4-0.9,0.6-1.8,0.7-2.8c0.1-1,0.1-2.1,0.1-3V36.4c-0.9-0.3-1.8-0.5-2.8-0.7s-1.9-0.3-2.9-0.3c1,0,1.9-0.1,2.9-0.2
	C40.5,35,41.4,34.8,42.3,34.3L42.3,34.3z M61.1,66.9H36.9v-0.4c1.2,0,2.2-0.3,2.8-0.8c0.7-0.5,1.2-1.2,1.5-2
	c0.4-0.8,0.6-1.8,0.7-2.8c0.1-1,0.1-2.1,0.1-3V36.5c-0.9-0.3-1.7-0.5-2.6-0.6c-0.9-0.2-1.9-0.3-2.9-0.3v-0.4c1,0,2-0.1,2.9-0.2
	c0.9-0.1,1.8-0.4,2.6-0.8v-24c0-0.9-0.1-1.8-0.2-2.8c-0.1-0.9-0.4-1.8-0.8-2.5c-0.4-0.7-0.9-1.3-1.6-1.8c-0.7-0.4-1.6-0.7-2.7-0.7
	V2.1h24.2v0.4c-1.2,0-2.2,0.3-2.9,0.9C57.5,4,57,4.7,56.7,5.7c-0.4,0.9-0.6,1.9-0.6,3c-0.1,1.1-0.1,2.1-0.1,3.1v45.5
	c0,1,0,2,0.1,3.1c0.1,1.1,0.3,2.1,0.6,3c0.4,0.9,0.9,1.7,1.6,2.3c0.7,0.6,1.7,0.9,2.9,0.9L61.1,66.9L61.1,66.9z M39.3,66.5h19.6
	c-0.3-0.1-0.6-0.3-0.9-0.6c-0.8-0.6-1.3-1.5-1.7-2.4c-0.4-1-0.6-2-0.7-3.1c-0.1-1.1-0.1-2.1-0.1-3.1V11.8c0-1,0-2.1,0.1-3.1
	c0.1-1.1,0.3-2.2,0.7-3.1c0.4-1,0.9-1.8,1.7-2.4c0.3-0.2,0.6-0.4,0.9-0.6H39.3c0.2,0.1,0.4,0.2,0.6,0.3c0.7,0.5,1.3,1.1,1.7,1.9
	c0.4,0.8,0.7,1.7,0.8,2.6c0.1,1,0.2,1.9,0.2,2.8v24.2l-0.1,0.1c-0.9,0.4-1.8,0.7-2.8,0.8c-0.1,0-0.2,0-0.4,0c0.1,0,0.2,0,0.3,0.1
	c0.9,0.2,1.9,0.4,2.8,0.7l0.1,0v21.7c0,1,0,2-0.1,3.1c-0.1,1.1-0.3,2-0.7,2.9c-0.4,0.9-0.9,1.6-1.7,2.2
	C39.8,66.3,39.5,66.4,39.3,66.5L39.3,66.5z M24.2,66.9H0v-0.4c1.3,0,2.3-0.3,3-0.9c0.7-0.6,1.2-1.3,1.6-2.2c0.4-0.9,0.6-1.9,0.6-3
	c0.1-1.1,0.1-2.2,0.1-3.2V11.8c0-1,0-2-0.1-3.1C5,7.6,4.8,6.6,4.4,5.6C4.1,4.7,3.6,4,2.9,3.4C2.2,2.8,1.2,2.5,0,2.5V2.1h24.2v0.4
	c-1.2,0-2.2,0.3-2.9,0.8c-0.7,0.6-1.2,1.3-1.5,2.1c-0.3,0.9-0.5,1.8-0.6,2.9c-0.1,1.1-0.1,2.1-0.1,3.1v22.8c0.9,0.4,1.7,0.6,2.6,0.7
	c1,0.1,2,0.2,3,0.2v0.4c-1,0.1-2,0.1-3,0.2c-0.9,0.1-1.8,0.3-2.6,0.7v21.3c0,0.9,0.1,1.9,0.2,3c0.1,1.1,0.4,2,0.7,2.8
	s0.9,1.5,1.5,2.1c0.7,0.6,1.6,0.8,2.7,0.8V66.9L24.2,66.9z M2.3,66.5H22c-0.3-0.1-0.6-0.3-0.8-0.5c-0.7-0.6-1.3-1.4-1.7-2.2
	c-0.4-0.9-0.6-1.9-0.7-3c-0.1-1.1-0.2-2.1-0.2-3V36.2l0.1-0.1c0.9-0.4,1.9-0.7,2.9-0.8c0.1,0,0.2,0,0.2,0c-0.1,0-0.2,0-0.2,0
	c-1-0.1-2-0.4-2.9-0.8l-0.1-0.1v-23c0-1,0-2,0.1-3.1c0.1-1.1,0.3-2.1,0.6-3C19.7,4.4,20.3,3.6,21,3c0.3-0.2,0.5-0.4,0.8-0.5H2.3
	c0.3,0.1,0.6,0.3,0.9,0.6c0.8,0.6,1.3,1.5,1.7,2.4c0.4,1,0.6,2,0.7,3.1c0.1,1.1,0.1,2.2,0.1,3.1v45.5c0,1,0,2.1-0.1,3.2
	c-0.1,1.1-0.3,2.2-0.6,3.1c-0.4,1-0.9,1.8-1.7,2.4C3,66.2,2.7,66.4,2.3,66.5L2.3,66.5z M66.1,66.6c1.3,0,2.3-0.2,3-0.7
	c0.7-0.5,1.3-1.1,1.6-1.9c0.4-0.8,0.6-1.7,0.7-2.7c0.1-1,0.1-2,0.1-3V35.1c0-1,0-2.1-0.1-3.4c-0.1-1.3-0.3-2.5-0.6-3.7
	c-0.3-1.2-0.9-2.2-1.6-2.9c-0.8-0.8-1.8-1.2-3.2-1.2h19.8c-0.4,0.4-0.6,1.2-0.8,2.6c-0.2,1.4-0.3,2.8-0.4,4.4
	c-0.1,1.6-0.1,3.1-0.1,4.6v22.7c0,1,0,2.1,0.1,3.1s0.3,1.9,0.6,2.8c0.4,0.8,0.9,1.5,1.6,2c0.7,0.5,1.8,0.7,3.1,0.7L66.1,66.6
	L66.1,66.6z M90,66.9H66.1v-0.4c1.2,0,2.2-0.2,2.9-0.7c0.7-0.5,1.2-1.1,1.6-1.9c0.4-0.8,0.6-1.6,0.7-2.6c0.1-1,0.1-2,0.1-3V35.1
	c0-1,0-2.1-0.1-3.4c-0.1-1.3-0.3-2.5-0.6-3.6c-0.3-1.1-0.9-2.1-1.6-2.9c-0.7-0.8-1.7-1.1-3-1.1v-0.4h20.3L86.1,24
	c-0.2,0.2-0.5,0.8-0.8,2.5c-0.2,1.3-0.3,2.8-0.4,4.4c-0.1,1.6-0.1,3.1-0.1,4.5v22.7c0,1.1,0,2.1,0.1,3.1c0.1,1,0.3,1.9,0.6,2.7
	c0.4,0.8,0.9,1.4,1.6,1.9c0.7,0.5,1.7,0.7,3,0.7L90,66.9L90,66.9z M68.6,66.4h18.9c-0.2-0.1-0.5-0.2-0.7-0.4
	c-0.8-0.5-1.3-1.2-1.7-2.1c-0.4-0.9-0.6-1.8-0.7-2.8c-0.1-1-0.1-2-0.1-3.1V35.4c0-1.5,0-3,0.1-4.6c0.1-1.6,0.2-3,0.4-4.4
	c0.1-1.1,0.4-1.9,0.6-2.3H68.2c0.5,0.2,0.8,0.5,1.2,0.8c0.8,0.8,1.4,1.8,1.7,3c0.3,1.2,0.5,2.4,0.6,3.7c0.1,1.3,0.1,2.5,0.1,3.4
	v23.2c0,1.1,0,2.1-0.1,3.1c-0.1,1-0.3,1.9-0.7,2.7c-0.4,0.8-1,1.5-1.7,2C69.1,66.2,68.8,66.4,68.6,66.4L68.6,66.4z M93.1,24.9h4
	v-3.1c1.3,0,2.6-0.1,3.9-0.4c1.3-0.2,2.5-0.6,3.7-1.2c1.2-0.6,2.3-1.3,3.2-2.2c0.9-0.9,1.7-2,2.2-3.3v10.1h7.7v0.4H110V56
	c0,0.9,0,2,0.1,3.2c0.1,1.2,0.3,2.3,0.6,3.4c0.3,1,0.8,1.9,1.5,2.7c0.7,0.7,1.7,1.1,3,1.1c1.1,0,2.2-0.2,3.2-0.6
	c-0.9,0.4-1.7,0.7-2.6,0.9c-0.9,0.2-1.9,0.2-2.8,0.2c-2.3,0-4.3-0.2-6.3-0.6s-3.6-1.1-5.1-2.1c-1.4-1-2.6-2.4-3.3-4
	c-0.8-1.7-1.2-3.8-1.2-6.4V25.3h-4L93.1,24.9L93.1,24.9z M113,67c-2.3,0-4.4-0.2-6.3-0.6c-1.9-0.4-3.7-1.1-5.1-2.2
	c-1.5-1-2.6-2.4-3.4-4.1c-0.8-1.7-1.2-3.9-1.2-6.5V25.5h-4v-0.8h4v-3.1h0.2c1.3,0,2.5-0.1,3.8-0.4c1.3-0.2,2.5-0.6,3.7-1.2
	c1.2-0.5,2.2-1.3,3.1-2.1c0.9-0.9,1.6-1.9,2.2-3.2l0.4-0.9v10.9h7.7v0.8h-7.7v30.4c0,0.9,0,2,0.1,3.2c0.1,1.2,0.3,2.3,0.6,3.3
	c0.3,1,0.8,1.9,1.5,2.6c0.7,0.7,1.6,1,2.8,1c1.1,0,2.1-0.2,3.1-0.5l0.2,0.4c-0.9,0.4-1.8,0.7-2.7,0.9C114.9,66.9,113.9,67,113,67
	L113,67z M97.3,25.2v28.5c0,2.5,0.4,4.7,1.2,6.3c0.8,1.6,1.9,3,3.3,4c1.4,1,3.1,1.7,5,2.1c1.9,0.4,4,0.6,6.2,0.6
	c0.7,0,1.5,0,2.2-0.1c-1.3,0-2.3-0.4-3-1.2c-0.7-0.8-1.3-1.7-1.6-2.7c-0.3-1.1-0.5-2.2-0.6-3.4c-0.1-1.2-0.1-2.3-0.1-3.2V15.7
	c-0.5,1-1.1,1.8-1.9,2.5c-0.9,0.9-2,1.6-3.2,2.2c-1.2,0.6-2.5,1-3.8,1.2c-1.2,0.2-2.5,0.4-3.7,0.4L97.3,25.2L97.3,25.2z M122.9,69.1
	V46.2c0,2.2,0.4,4.5,1.1,6.8c0.8,2.3,1.8,4.4,3.2,6.4c1.4,1.9,3,3.6,4.9,4.9c1.9,1.3,4,2.1,6.3,2.4c-1.9-0.2-3.9-0.7-5.7-1.3
	c-1.9-0.6-3.8-0.9-5.8-0.9c-1.4,0-2.4,0.5-3.1,1.4C123.3,66.6,123,67.8,122.9,69.1L122.9,69.1z M141.6,2.4c-1.2,0.2-2.1,0.6-3,1.2
	c-0.8,0.6-1.5,1.4-2,2.4c-0.5,0.9-0.9,1.9-1.1,3c-0.2,1.1-0.4,2.1-0.4,3.2c0,2.5,0.7,4.6,2.1,6.4c1.4,1.8,3.2,3.4,5.4,5
	c2.2,1.5,4.5,3,7,4.5c2.5,1.5,4.9,3.1,7,4.9c2.2,1.8,4,3.9,5.4,6.3c1.4,2.4,2.1,5.2,2.1,8.5c0,3.1-0.5,5.7-1.5,7.9
	c-1,2.2-2.4,4-4.1,5.5c-1.7,1.5-3.8,2.7-6.1,3.6c-2.3,0.9-4.9,1.5-7.6,1.9h-0.3c2.5-0.4,4.3-1.5,5.4-3.3c1.1-1.8,1.7-3.9,1.7-6.3
	c0-2.8-0.7-5.2-2.1-7.2c-1.4-2-3.2-3.7-5.3-5.3c-2.1-1.6-4.4-3.1-6.8-4.5c-2.4-1.4-4.7-3.1-6.8-4.9c-2.1-1.8-3.9-3.9-5.3-6.3
	c-1.4-2.4-2.1-5.2-2.1-8.6c0-2.7,0.5-5.1,1.4-7.2c0.9-2.1,2.2-3.9,3.9-5.5c1.6-1.5,3.6-2.7,5.8-3.6C136.7,3.1,139,2.6,141.6,2.4
	L141.6,2.4z M156.9,5.2c0.7,0,1.3-0.2,1.7-0.5c0.4-0.3,0.8-0.8,1-1.2c0.2-0.5,0.4-1.1,0.5-1.7c0.1-0.6,0.1-1.2,0.1-1.8v22.9
	c0-2.2-0.3-4.5-0.9-6.8c-0.6-2.3-1.5-4.4-2.7-6.4c-1.2-1.9-2.7-3.6-4.6-4.9c-1.8-1.4-4-2.2-6.4-2.4c1,0.1,1.9,0.2,2.9,0.6
	c0.9,0.3,1.9,0.6,2.8,0.9c0.9,0.3,1.8,0.6,2.8,0.9C154.9,5.1,155.9,5.3,156.9,5.2L156.9,5.2z M123.2,69.1h-0.4V46.2h0.4
	c0,2.2,0.4,4.4,1.1,6.7c0.7,2.3,1.8,4.4,3.2,6.3c1.4,1.9,3,3.5,4.9,4.8c1.6,1.1,3.4,1.8,5.2,2.2c0.3,0.1,0.7,0.1,1,0.1l0,0.4
	c-0.4,0-0.7-0.1-1-0.1c-1.6-0.3-3.2-0.6-4.7-1.2c-1.9-0.6-3.8-0.9-5.8-0.9c-1.3,0-2.3,0.4-2.9,1.3C123.5,66.7,123.2,67.8,123.2,69.1
	L123.2,69.1z M123.2,50.3v16.4c0.2-0.4,0.4-0.8,0.6-1.1c0.7-1,1.8-1.5,3.2-1.5c2,0,4,0.3,5.9,0.9c0.3,0.1,0.5,0.2,0.8,0.2
	c-0.5-0.3-1-0.6-1.5-0.9c-1.9-1.3-3.6-3-5-4.9c-1.4-1.9-2.5-4.1-3.2-6.4C123.6,52.1,123.3,51.2,123.2,50.3L123.2,50.3z M144.7,66.8
	l0-0.4c2.4-0.4,4.2-1.4,5.3-3.2c1.1-1.8,1.7-3.9,1.7-6.2c0-2.8-0.7-5.1-2.1-7.1c-1.4-1.9-3.1-3.7-5.2-5.2c-2.1-1.6-4.4-3.1-6.8-4.5
	c-2.4-1.4-4.7-3.1-6.9-4.9c-2.1-1.8-3.9-3.9-5.3-6.3c-1.4-2.4-2.1-5.3-2.1-8.7c0-2.7,0.5-5.2,1.4-7.3c0.9-2.1,2.3-4,3.9-5.5
	c1.6-1.5,3.6-2.8,5.9-3.6c2.2-0.9,4.7-1.4,7.2-1.6l0,0.4c-1.1,0.2-2.1,0.6-2.9,1.2c-0.8,0.6-1.4,1.4-1.9,2.3
	c-0.5,0.9-0.8,1.9-1.1,2.9c-0.2,1.1-0.4,2.1-0.4,3.1c0,2.4,0.7,4.5,2.1,6.2c1.4,1.8,3.2,3.4,5.3,4.9c2.1,1.5,4.5,3,7,4.5
	c2.5,1.5,4.9,3.1,7.1,4.9c2.2,1.8,4,3.9,5.4,6.3c1.4,2.4,2.2,5.3,2.2,8.6c0,3.1-0.5,5.8-1.5,8c-1,2.2-2.4,4.1-4.2,5.6
	s-3.8,2.7-6.2,3.6c-2.4,0.9-4.9,1.5-7.7,1.9L144.7,66.8L144.7,66.8z M139.5,2.8c-1.7,0.3-3.4,0.7-5,1.3c-2.2,0.8-4.1,2-5.7,3.5
	c-1.6,1.5-2.9,3.3-3.8,5.4c-0.9,2.1-1.4,4.5-1.4,7.1c0,3.3,0.7,6.2,2.1,8.5c1.4,2.3,3.1,4.4,5.2,6.2c2.1,1.8,4.4,3.4,6.8,4.9
	c2.4,1.4,4.7,3,6.9,4.5c2.1,1.6,3.9,3.4,5.3,5.3c1.4,2,2.1,4.4,2.1,7.3c0,2.4-0.6,4.5-1.7,6.4c-0.7,1.1-1.6,2-2.8,2.6
	c1.8-0.4,3.4-0.8,5-1.4c2.3-0.9,4.3-2.1,6.1-3.6c1.7-1.5,3.1-3.3,4.1-5.5c1-2.1,1.5-4.8,1.5-7.8c0-3.3-0.7-6.1-2.1-8.4
	c-1.4-2.3-3.2-4.4-5.3-6.2c-2.1-1.8-4.5-3.4-7-4.9c-2.5-1.5-4.9-3-7-4.5c-2.2-1.5-4-3.2-5.4-5c-1.4-1.8-2.2-4-2.2-6.5
	c0-1.1,0.1-2.1,0.4-3.2c0.3-1.1,0.6-2.1,1.1-3c0.5-0.9,1.2-1.8,2-2.4C138.8,3.2,139.2,3,139.5,2.8L139.5,2.8z M160.4,22.9h-0.4
	c0-2.2-0.3-4.4-0.9-6.7c-0.6-2.3-1.5-4.4-2.7-6.3c-1.2-1.9-2.7-3.5-4.5-4.9c-1.8-1.3-3.9-2.1-6.3-2.4l0-0.4c1,0.1,2,0.3,2.9,0.6
	c0.9,0.3,1.9,0.6,2.8,0.9c0.9,0.3,1.8,0.6,2.8,0.9c0.9,0.3,1.9,0.4,2.8,0.4c0.7,0,1.2-0.2,1.6-0.5c0.4-0.3,0.7-0.7,0.9-1.2
	c0.2-0.5,0.4-1,0.4-1.6c0.1-0.6,0.1-1.2,0.1-1.8h0.4L160.4,22.9L160.4,22.9z M151.4,4.2c0.2,0.2,0.5,0.3,0.7,0.5
	c1.8,1.4,3.4,3,4.6,5c1.2,1.9,2.2,4.1,2.8,6.4c0.2,0.8,0.4,1.5,0.5,2.3V3.2c0,0.1-0.1,0.2-0.2,0.4c-0.3,0.5-0.6,1-1.1,1.3
	c-0.5,0.4-1.1,0.6-1.9,0.6c-1,0-2-0.1-2.9-0.4C153.1,4.8,152.2,4.5,151.4,4.2L151.4,4.2z M168.3,85.8c1.3,0,2.3-0.2,3-0.7
	c0.7-0.5,1.3-1.1,1.6-1.9s0.6-1.6,0.7-2.6c0.1-1,0.1-2,0.1-3V32.1c0-1,0-2-0.1-3c-0.1-1-0.3-1.9-0.7-2.7c-0.4-0.8-0.9-1.4-1.6-1.9
	c-0.7-0.5-1.7-0.7-3-0.7h19.8c-0.3,0.4-0.6,1.2-0.8,2.2c-0.2,1-0.3,2.2-0.4,3.4c-0.1,1.3-0.1,2.5-0.1,3.6v44.9c0,1,0.1,1.9,0.2,2.8
	c0.1,0.9,0.4,1.8,0.8,2.5c0.4,0.7,0.9,1.3,1.7,1.8c0.7,0.4,1.7,0.6,2.9,0.6L168.3,85.8L168.3,85.8z M194.1,24.4c1-0.2,2-0.3,3.1-0.3
	c3.1,0,5.9,0.5,8.4,1.6c2.5,1.1,4.6,2.6,6.3,4.5c1.7,1.9,3,4.2,3.9,6.8c0.9,2.6,1.4,5.4,1.4,8.4c0,3-0.5,5.9-1.4,8.5
	c-0.9,2.6-2.2,4.8-3.9,6.8c-1.7,1.9-3.8,3.4-6.3,4.5c-2.5,1.1-5.3,1.6-8.4,1.6l-1.7-0.1c2.2-0.1,3.9-0.9,5.1-2.6
	c1.2-1.7,2.1-3.6,2.6-5.8c0.5-2.2,0.9-4.6,1-7c0.1-2.4,0.1-4.4,0.1-5.9c0-1,0-2.4,0-3.9c0-1.6-0.1-3.2-0.3-4.8
	c-0.2-1.7-0.5-3.3-0.9-4.9c-0.4-1.6-1-3-1.7-4.2c-0.8-1.2-1.7-2.1-2.9-2.7C197.2,24.3,195.8,24.1,194.1,24.4L194.1,24.4z M192.2,86
	h-23.9v-0.4c1.2,0,2.2-0.2,2.9-0.7c0.7-0.5,1.2-1.1,1.6-1.8c0.4-0.7,0.6-1.6,0.7-2.5c0.1-1,0.1-2,0.1-3V32.1c0-1,0-2-0.1-3
	c-0.1-1-0.3-1.9-0.7-2.6c-0.4-0.7-0.9-1.3-1.6-1.8c-0.7-0.5-1.7-0.7-2.9-0.7v-0.4h20.2l-0.3,0.3c-0.3,0.4-0.6,1.1-0.8,2.1
	c-0.2,1-0.3,2.2-0.4,3.4c-0.1,1.2-0.1,2.5-0.1,3.6v44.9c0,1,0.1,1.9,0.2,2.8c0.1,0.9,0.4,1.7,0.7,2.4c0.4,0.7,0.9,1.3,1.6,1.7
	c0.7,0.4,1.6,0.6,2.8,0.6L192.2,86L192.2,86z M170.7,85.6h19c-0.2-0.1-0.4-0.2-0.5-0.3c-0.7-0.4-1.3-1.1-1.7-1.8
	c-0.4-0.8-0.7-1.6-0.8-2.6c-0.1-0.9-0.2-1.9-0.2-2.9V33.1c0-1.2,0-2.4,0.1-3.6c0.1-1.3,0.2-2.4,0.4-3.5c0.2-0.9,0.4-1.5,0.6-2h-16.9
	c0.2,0.1,0.5,0.2,0.7,0.4c0.8,0.5,1.3,1.2,1.7,2c0.4,0.8,0.6,1.7,0.7,2.7c0.1,1,0.1,2,0.1,3v45.4c0,1.1,0,2.1-0.1,3.1
	c-0.1,1-0.3,1.9-0.7,2.7c-0.4,0.8-1,1.5-1.7,2C171.2,85.4,171,85.5,170.7,85.6L170.7,85.6z M197.2,67l-1.7-0.1v-0.4
	c2.1-0.1,3.8-0.9,4.9-2.5c1.2-1.6,2-3.6,2.6-5.8c0.5-2.2,0.9-4.5,1-6.9c0.1-2.4,0.1-4.4,0.1-5.9c0-1,0-2.3,0-3.9
	c0-1.5-0.1-3.2-0.3-4.8c-0.2-1.6-0.5-3.3-0.9-4.9c-0.4-1.6-1-3-1.7-4.2c-0.7-1.2-1.7-2.1-2.8-2.6c-1.1-0.6-2.5-0.7-4.2-0.4l-0.1-0.4
	c1-0.2,2-0.3,3.1-0.3c3.1,0,6,0.5,8.5,1.6c2.5,1.1,4.6,2.6,6.4,4.6c1.7,2,3,4.3,4,6.9c0.9,2.6,1.4,5.5,1.4,8.5s-0.5,6-1.4,8.5
	c-0.9,2.6-2.3,4.9-4,6.8c-1.7,2-3.9,3.5-6.4,4.6C203.1,66.5,200.3,67,197.2,67L197.2,67z M197.6,24.3c0.3,0.1,0.5,0.2,0.8,0.3
	c1.2,0.6,2.2,1.6,3,2.8c0.8,1.2,1.4,2.6,1.8,4.3c0.4,1.6,0.7,3.3,0.9,5c0.2,1.7,0.3,3.3,0.3,4.8c0,1.6,0,2.9,0,3.9
	c0,1.5,0,3.5-0.1,5.9c-0.1,2.4-0.4,4.8-1,7c-0.5,2.3-1.4,4.2-2.6,5.9c-0.8,1.1-1.9,1.9-3.2,2.3c2.9,0,5.6-0.6,8-1.6
	c2.4-1.1,4.5-2.5,6.2-4.5c1.7-1.9,3-4.2,3.9-6.7c0.9-2.5,1.4-5.4,1.4-8.4s-0.5-5.8-1.4-8.3c-0.9-2.6-2.2-4.8-3.9-6.7
	c-1.7-1.9-3.8-3.4-6.2-4.5C203.1,24.9,200.5,24.4,197.6,24.3z M232.4,66.7c-1.2,0-2.4-0.1-3.6-0.4c-1.2-0.3-2.3-0.7-3.4-1.4
	c-1-0.6-1.9-1.5-2.5-2.4c-0.6-1-1-2.2-1-3.6c0-2.6,0.6-4.7,1.9-6.1c1.2-1.4,2.8-2.5,4.7-3.2c1.9-0.7,3.9-1.3,6.1-1.6
	c2.2-0.3,4.2-0.7,6.1-1.2c-2.9,1-4.8,2.6-5.7,4.6c-0.9,2-1.4,4.4-1.4,7.3c0,0.9,0.1,1.9,0.3,2.9c0.2,1,0.5,1.9,1,2.6
	c0.5,0.7,1.1,1.2,1.9,1.5c0.8,0.3,1.7,0.2,3-0.3C237.3,66.3,234.8,66.7,232.4,66.7z M234.8,24.9c-1.1,0.4-2.2,1-3.2,1.9
	c-1,0.9-1.5,2-1.5,3.3c0,0.6,0.1,1.1,0.4,1.5c0.3,0.5,0.6,0.9,0.9,1.3c0.3,0.4,0.6,0.9,0.9,1.3c0.3,0.5,0.4,1,0.4,1.5
	c0,0.9-0.4,1.7-1.1,2.4c-0.8,0.6-1.6,1-2.4,1c-1.2,0-2.2-0.4-3-1.3c-0.8-0.9-1.1-2-1.1-3.2c0-1.2,0.3-2.4,0.9-3.4s1.4-2,2.4-2.8
	c1-0.9,2-1.6,3.2-2.2C232.7,25.7,233.8,25.2,234.8,24.9L234.8,24.9z M241.2,24.1c4,0,7.2,0.5,9.6,1.4c2.5,1,4.4,2.3,5.7,4
	c1.4,1.7,2.3,3.7,2.8,5.9c0.5,2.3,0.7,4.7,0.8,7.3c0,2.6,0,5.3-0.2,8.2c-0.2,2.8-0.3,5.7-0.3,8.4c0,0.7,0,1.5,0.1,2.3
	c0.1,0.8,0.3,1.5,0.5,2.2c0.3,0.7,0.7,1.2,1.2,1.7c0.5,0.4,1.3,0.6,2.3,0.6s1.9-0.2,2.9-0.7c-1.3,0.9-2.7,1.4-4.4,1.4
	c-1.6,0-3.4-0.1-5.2-0.3c-1.9-0.2-3.6-0.7-5.1-1.4c-1.5-0.7-2.8-1.7-3.8-3c-1-1.3-1.5-3-1.5-5.2V33.4c0-1,0-2-0.1-3.2
	c-0.1-1.1-0.3-2.2-0.6-3.1c-0.4-0.9-0.9-1.7-1.6-2.3C243.5,24.3,242.5,24.1,241.2,24.1L241.2,24.1z M262.3,67
	c-1.6,0-3.4-0.1-5.3-0.3c-1.9-0.2-3.6-0.7-5.2-1.4c-1.6-0.7-2.9-1.8-3.9-3.1c-1-1.4-1.5-3.1-1.5-5.3V33.4c0-1,0-2-0.1-3.2
	c-0.1-1.1-0.3-2.1-0.6-3c-0.4-0.9-0.9-1.6-1.6-2.2c-0.5-0.4-1.3-0.7-2.1-0.7c-0.3,0-0.5,0-0.8,0v-0.4c0.3,0,0.6,0,0.8,0
	c3.6,0.1,6.5,0.5,8.8,1.4c2.5,1,4.4,2.3,5.8,4c1.4,1.7,2.3,3.7,2.8,6c0.5,2.3,0.7,4.7,0.8,7.4c0,2.6,0,5.4-0.2,8.2
	c-0.2,2.8-0.3,5.7-0.3,8.4c0,0.7,0,1.5,0.1,2.3c0.1,0.8,0.3,1.5,0.5,2.2c0.3,0.6,0.6,1.2,1.2,1.6c0.5,0.4,1.2,0.6,2.2,0.6
	c0.9,0,1.9-0.2,2.8-0.7l0.2,0.4C265.5,66.6,263.9,67,262.3,67L262.3,67z M243.9,24.4c0.2,0.1,0.3,0.2,0.5,0.3
	c0.8,0.6,1.3,1.4,1.7,2.3c0.4,0.9,0.6,2,0.6,3.1c0.1,1.2,0.1,2.2,0.1,3.2v23.5c0,2.1,0.5,3.8,1.5,5.1c1,1.3,2.2,2.3,3.7,3
	c1.5,0.7,3.2,1.2,5,1.4s3.6,0.3,5.2,0.3c0.7,0,1.3-0.1,1.9-0.2c-0.2,0-0.3,0-0.5,0c-1,0-1.8-0.2-2.4-0.7c-0.6-0.5-1-1-1.3-1.7
	c-0.3-0.7-0.5-1.5-0.6-2.3c-0.1-0.8-0.1-1.6-0.1-2.3c0-2.8,0.1-5.6,0.3-8.4c0.2-2.8,0.3-5.6,0.2-8.2c0-2.6-0.3-5-0.8-7.3
	c-0.5-2.2-1.4-4.2-2.7-5.9c-1.3-1.7-3.2-3-5.7-3.9C248.9,25,246.6,24.6,243.9,24.4L243.9,24.4z M232.4,66.9c-1.2,0-2.5-0.1-3.7-0.4
	c-1.2-0.3-2.4-0.8-3.4-1.4c-1.1-0.7-1.9-1.5-2.6-2.5c-0.7-1-1-2.3-1-3.7c0-2.7,0.6-4.8,1.9-6.2c1.3-1.4,2.9-2.5,4.8-3.3
	c1.9-0.7,4-1.3,6.1-1.6c2.2-0.3,4.2-0.7,6.1-1.2l0.1,0.4c-2.8,1-4.7,2.5-5.6,4.4c-0.9,2-1.4,4.4-1.4,7.2c0,0.9,0.1,1.9,0.3,2.9
	c0.2,1,0.5,1.8,1,2.5c0.5,0.7,1.1,1.2,1.8,1.4c0.5,0.2,1.1,0.2,1.8,0c0.3-0.1,0.7-0.2,1-0.3l0.1,0.4c-0.4,0.1-0.7,0.3-1,0.3
	C236.7,66.6,234.5,66.9,232.4,66.9L232.4,66.9z M238.6,47.6c-1.3,0.3-2.6,0.5-4,0.7c-2.2,0.3-4.2,0.8-6.1,1.6
	c-1.8,0.7-3.4,1.8-4.6,3.2c-1.2,1.4-1.8,3.4-1.8,5.9c0,1.4,0.3,2.5,0.9,3.5c0.6,1,1.4,1.8,2.4,2.4c1,0.6,2.1,1.1,3.3,1.4
	c2.7,0.6,5.4,0.5,8.1-0.1c-0.1,0-0.2,0-0.2-0.1c-0.8-0.3-1.5-0.8-2-1.6c-0.5-0.8-0.8-1.7-1-2.7c-0.2-1-0.3-2-0.3-2.9
	c0-2.9,0.5-5.4,1.4-7.4C235.6,49.8,236.8,48.6,238.6,47.6L238.6,47.6z M229.1,39.4c-1.3,0-2.3-0.5-3.1-1.4c-0.8-0.9-1.2-2-1.2-3.3
	c0-1.3,0.3-2.4,0.9-3.5c0.6-1.1,1.4-2,2.4-2.9c1-0.9,2.1-1.6,3.2-2.2c1.2-0.6,2.3-1,3.3-1.4l0.1,0.4c-1.1,0.4-2.1,1-3.1,1.9
	c-1,0.9-1.5,1.9-1.5,3.2c0,0.5,0.1,1,0.4,1.4c0.3,0.5,0.6,0.9,0.9,1.3c0.3,0.4,0.7,0.9,0.9,1.4c0.3,0.5,0.4,1,0.4,1.6
	c0,1-0.4,1.8-1.2,2.5C230.9,39.1,230,39.4,229.1,39.4L229.1,39.4z M232,26.3c-0.1,0.1-0.3,0.1-0.4,0.2c-1.1,0.6-2.2,1.3-3.2,2.1
	c-1,0.8-1.7,1.8-2.3,2.8c-0.6,1-0.9,2.1-0.9,3.3c0,1.2,0.4,2.2,1.1,3c0.7,0.9,1.6,1.3,2.8,1.3c0.8,0,1.6-0.3,2.3-0.9
	c0.7-0.6,1.1-1.3,1.1-2.2c0-0.5-0.1-1-0.4-1.4c-0.3-0.4-0.6-0.9-0.9-1.3c-0.3-0.4-0.6-0.9-0.9-1.4c-0.3-0.5-0.4-1-0.4-1.6
	c0-1.3,0.5-2.5,1.6-3.5C231.6,26.6,231.8,26.4,232,26.3L232,26.3z M271.7,66.6c1.3,0,2.4-0.4,3.2-1.1c0.8-0.7,1.3-1.6,1.6-2.6
	c0.3-1,0.5-2.1,0.6-3.3c0.1-1.2,0.1-2.3,0.1-3.3V32.5c0-1,0-2.1-0.1-3.1c-0.1-1-0.3-1.9-0.6-2.8c-0.4-0.8-0.9-1.5-1.6-2
	c-0.7-0.5-1.8-0.8-3.1-0.8h20.1c-0.4,0.2-0.7,0.9-0.9,1.9c-0.2,1-0.4,2.2-0.5,3.4c-0.1,1.3-0.2,2.4-0.2,3.6s0,2,0,2.4v21.3
	c0,1,0,2.1,0.1,3.3c0.1,1.2,0.3,2.3,0.6,3.3c0.3,1,0.9,1.9,1.6,2.6c0.7,0.7,1.8,1.1,3.2,1.1L271.7,66.6L271.7,66.6z M294.1,29.5
	c0.4-0.6,1-1.3,1.8-1.9c0.8-0.7,1.6-1.3,2.4-1.8c0.8-0.5,1.7-0.9,2.6-1.2c0.9-0.3,1.8-0.5,2.5-0.5c1.4,0,2.7,0.4,4,1.1
	c1.3,0.7,1.9,1.9,1.9,3.5c0,1.4-0.4,2.5-1.2,3.3c-0.8,0.8-1.9,1.2-3.3,1.2c-1.2,0-2.1-0.3-2.7-0.9c-0.6-0.6-1.1-1.3-1.5-2.1
	c-0.4-0.8-0.7-1.5-1.1-2.1c-0.4-0.6-0.8-0.9-1.5-0.9c-0.7,0-1.5,0.3-2.2,0.8C295.2,28.5,294.6,29,294.1,29.5L294.1,29.5z
	 M295.6,66.9h-23.9v-0.4c1.3,0,2.3-0.3,3-1c0.7-0.7,1.3-1.5,1.6-2.5c0.3-1,0.5-2.1,0.6-3.3c0.1-1.2,0.1-2.3,0.1-3.3V32.5
	c0-1,0-2-0.1-3.1c-0.1-1-0.3-1.9-0.6-2.7c-0.4-0.8-0.9-1.4-1.6-1.9c-0.7-0.5-1.7-0.7-3-0.7v-0.4h20.7l-0.6,0.4
	c-0.2,0.1-0.5,0.6-0.8,1.8c-0.2,1-0.4,2.1-0.5,3.4c-0.1,1.3-0.2,2.5-0.2,3.6c0,1,0,1.9,0,2.4v21.3c0,1,0,2.1,0.1,3.3
	c0.1,1.2,0.3,2.3,0.6,3.3c0.3,1,0.8,1.8,1.5,2.5c0.7,0.7,1.7,1,3.1,1L295.6,66.9L295.6,66.9z M273.9,66.4h19.4
	c-0.4-0.2-0.8-0.4-1.1-0.7c-0.7-0.7-1.3-1.6-1.6-2.7c-0.3-1-0.5-2.2-0.6-3.4c-0.1-1.2-0.1-2.3-0.1-3.3V35.2c0-0.5,0-1.4,0-2.4
	c0-1.1,0.1-2.3,0.2-3.6c0.1-1.3,0.3-2.4,0.5-3.4c0.2-0.7,0.4-1.3,0.6-1.6h-17.1c0.3,0.1,0.5,0.2,0.7,0.4c0.8,0.5,1.3,1.3,1.7,2.1
	c0.4,0.9,0.6,1.8,0.7,2.8c0.1,1,0.1,2.1,0.1,3.1v23.9c0,1,0,2-0.1,3.3c-0.1,1.2-0.3,2.3-0.6,3.4c-0.3,1-0.9,1.9-1.7,2.7
	C274.7,66,274.3,66.2,273.9,66.4L273.9,66.4z M304.9,33.3c-1.3,0-2.2-0.3-2.9-1c-0.6-0.6-1.1-1.3-1.5-2.1c-0.4-0.8-0.7-1.5-1.1-2.1
	c-0.3-0.6-0.7-0.8-1.3-0.8c-0.7,0-1.4,0.3-2.1,0.8c-0.7,0.5-1.3,1-1.8,1.5l-1.3,1.1l1-1.4c0.4-0.6,1-1.3,1.8-2
	c0.8-0.7,1.6-1.3,2.4-1.8c0.9-0.5,1.8-0.9,2.7-1.3c0.9-0.3,1.8-0.5,2.6-0.5c1.4,0,2.8,0.4,4.1,1.1c1.3,0.7,2,2,2,3.7
	c0,1.5-0.4,2.6-1.3,3.5C307.5,32.9,306.3,33.3,304.9,33.3L304.9,33.3z M298.1,26.9c0.7,0,1.2,0.3,1.6,1c0.4,0.6,0.7,1.3,1.1,2.1
	c0.4,0.7,0.8,1.4,1.4,2c0.6,0.6,1.4,0.9,2.6,0.9c1.3,0,2.4-0.4,3.2-1.1c0.8-0.8,1.2-1.8,1.2-3.2c0-1.6-0.6-2.7-1.8-3.4
	c-1.2-0.7-2.6-1-3.9-1c-0.8,0-1.6,0.2-2.5,0.5c-0.9,0.3-1.8,0.7-2.6,1.2c-0.8,0.5-1.6,1-2.3,1.6C296.8,27.2,297.5,26.9,298.1,26.9
	L298.1,26.9z M316.8,10.7c0-1,0-2-0.1-3c-0.1-1-0.3-1.9-0.7-2.7c-0.4-0.8-0.9-1.4-1.6-1.9s-1.7-0.7-3-0.7h19.9
	c-0.4,0.3-0.7,1-0.9,2.2c-0.2,1.2-0.4,2.4-0.5,3.8c-0.1,1.4-0.1,2.7-0.1,4v45.8c0,0.9,0.1,1.9,0.2,2.9c0.1,1,0.4,1.9,0.7,2.8
	c0.4,0.8,0.9,1.5,1.6,2c0.7,0.5,1.7,0.8,2.9,0.8h-23.8c1.3,0,2.4-0.3,3.1-0.9c0.7-0.6,1.3-1.4,1.6-2.4c0.4-1,0.6-2,0.6-3.1
	c0.1-1.1,0.1-2.2,0.1-3.2L316.8,10.7L316.8,10.7z M331.1,44.1c1.5-1.4,3-2.7,4.5-4c1.5-1.4,2.9-2.7,4.3-4.1c1.8,3.3,3.8,6.5,6.1,9.5
	c2.3,3,4.4,6.1,6.3,9.3c0.5,0.9,1.2,2.1,2.1,3.4c0.8,1.4,1.8,2.7,2.8,4c1,1.3,2.1,2.4,3.3,3.3c1.2,0.9,2.4,1.3,3.6,1.3h-18.7
	L331.1,44.1L331.1,44.1z M339.5,23.8h18.4c-1.1,0-2.3,0.2-3.5,0.6c-1.2,0.4-2.5,0.9-3.7,1.6c-1.2,0.6-2.4,1.3-3.5,2.1
	c-1.1,0.7-2,1.5-2.8,2.2v0.1c0.7-0.7,1-1.6,1-2.7c0-0.7-0.2-1.4-0.6-1.8c-0.4-0.5-0.9-0.9-1.5-1.2c-0.6-0.3-1.3-0.5-1.9-0.6
	C340.7,23.9,340.1,23.8,339.5,23.8z M364,66.9h-18.8l-0.1-0.1l-14.3-22.7l0.1-0.1c1.5-1.4,3.1-2.7,4.5-4c1.4-1.3,2.9-2.7,4.3-4.1
	l0.2-0.2l0.1,0.2c1.8,3.3,3.8,6.5,6.1,9.5c2.3,3,4.4,6.1,6.3,9.3c0.6,1,1.3,2.1,2.1,3.4c0.8,1.3,1.8,2.7,2.8,3.9
	c1,1.3,2.1,2.4,3.2,3.2c1.1,0.9,2.3,1.3,3.5,1.3V66.9z M345.4,66.4h16.5c-0.6-0.2-1.1-0.5-1.7-1c-1.2-0.9-2.3-2-3.3-3.3
	c-1-1.3-1.9-2.6-2.8-4c-0.8-1.3-1.5-2.4-2.1-3.4c-1.9-3.2-4.1-6.3-6.3-9.3c-2.2-2.9-4.2-6-6-9.3c-1.3,1.4-2.7,2.7-4.1,3.9
	c-1.4,1.3-2.8,2.6-4.3,3.9L345.4,66.4L345.4,66.4z M335.1,66.9h-23.8v-0.4c1.3,0,2.3-0.3,3-0.9c0.7-0.6,1.2-1.4,1.6-2.3
	c0.4-0.9,0.6-2,0.6-3.1c0.1-1.2,0.1-2.2,0.1-3.2V10.7c0-1,0-2-0.1-3c-0.1-1-0.3-1.9-0.7-2.6c-0.4-0.8-0.9-1.4-1.6-1.9
	c-0.7-0.5-1.7-0.7-2.9-0.7V2.1h20.4l-0.4,0.4c-0.2,0.2-0.6,0.7-0.8,2.1c-0.2,1.1-0.4,2.4-0.4,3.8c-0.1,1.4-0.1,2.7-0.1,4v45.8
	c0,0.9,0.1,1.9,0.2,2.9c0.1,1,0.4,1.9,0.7,2.7c0.4,0.8,0.9,1.5,1.5,1.9c0.7,0.5,1.6,0.7,2.7,0.7L335.1,66.9L335.1,66.9z M313.6,66.4
	h19.2c-0.3-0.1-0.5-0.2-0.7-0.4c-0.7-0.5-1.3-1.2-1.7-2.1c-0.4-0.8-0.6-1.8-0.7-2.8c-0.1-1-0.2-2-0.2-2.9V12.4c0-1.3,0-2.7,0.1-4.1
	c0.1-1.4,0.3-2.7,0.5-3.8c0.2-0.9,0.4-1.5,0.6-2h-17c0.2,0.1,0.5,0.2,0.7,0.4c0.8,0.5,1.3,1.2,1.7,2c0.4,0.8,0.6,1.8,0.7,2.8
	c0.1,1,0.1,2,0.1,3v46.4c0,1,0,2-0.1,3.2c-0.1,1.2-0.3,2.2-0.6,3.2c-0.4,1-0.9,1.8-1.7,2.4C314.3,66.1,314,66.3,313.6,66.4
	L313.6,66.4z M344.2,30.9v-0.7l0.1-0.1c0.1-0.1,0.2-0.2,0.3-0.3c0.4-0.6,0.6-1.3,0.6-2.1c0-0.7-0.2-1.3-0.5-1.7
	c-0.4-0.5-0.9-0.9-1.4-1.1c-0.6-0.3-1.2-0.5-1.9-0.6c-0.6-0.1-1.3-0.2-1.9-0.2v-0.4h18.4v0.4c-1.1,0-2.2,0.2-3.4,0.6
	c-1.2,0.4-2.5,0.9-3.7,1.6c-1.2,0.6-2.4,1.3-3.4,2.1c-0.9,0.6-1.7,1.3-2.4,1.9c-0.1,0.1-0.2,0.3-0.3,0.4L344.2,30.9L344.2,30.9z
	 M342.3,24.1c0.4,0.1,0.7,0.3,1.1,0.4c0.6,0.3,1.2,0.7,1.6,1.3c0.4,0.5,0.6,1.2,0.6,2c0,0.5-0.1,1-0.2,1.5c0.5-0.4,1.1-0.8,1.7-1.3
	c1.1-0.7,2.3-1.4,3.5-2.1c1.2-0.6,2.5-1.2,3.7-1.6c0.2-0.1,0.4-0.1,0.6-0.2H342.3L342.3,24.1z M77.8,14.9c3.8,0,6.9-3.1,6.9-7
	s-3.1-7-6.9-7c-3.8,0-6.9,3.1-6.9,7S74,14.9,77.8,14.9z"/>
</svg>
