<?xml version="1.0" encoding="utf-8"?>
<!-- Generator: Adobe Illustrator 27.0.0, SVG Export Plug-In . SVG Version: 6.00 Build 0)  -->
<svg version="1.1" id="Layer_1" xmlns="http://www.w3.org/2000/svg" xmlns:xlink="http://www.w3.org/1999/xlink" x="0px" y="0px"
	 viewBox="0 0 400 400" style="enable-background:new 0 0 400 400;" xml:space="preserve">
<style type="text/css">
	.st0{fill:url(#SVGID_1_);}
	.st1{fill:#FFFFFF;}
</style>
<linearGradient id="SVGID_1_" gradientUnits="userSpaceOnUse" x1="-1.347053e-08" y1="1.346780e-08" x2="400" y2="400">
	<stop  offset="0" style="stop-color:#00BCFF"/>
	<stop  offset="0.3876" style="stop-color:#00A8FF"/>
	<stop  offset="0.9994" style="stop-color:#0081FF"/>
</linearGradient>
<rect class="st0" width="400" height="400"/>
<path class="st1" d="M200.6,125.9c-38.7-0.1-70.3,31.1-70.5,69.7c-0.3,38.4,31.8,70.5,70.5,70.6c38.5,0.1,69.9-31.5,69.9-70.3
	C270.5,157,239.5,126,200.6,125.9z M237.1,222.3c-15,19.8-41.9,24.6-61.7,11c-20-13.8-25.8-40.6-13.2-60.8
	c11.8-19,38.1-27.4,55.8-17.4c-13.9,7.2-18,13.8-14.9,23.3c2.5,7.8,9.4,12.1,18.2,11.2c9.2-0.9,14.1-7.2,15-19.4
	C248.2,180,248.6,207.1,237.1,222.3z M315.6,136.6c-35.8-20.9-71.7-41.6-107.6-62.3c-9.3-5.4-18.3-11.3-28.9-13.7h-9.2
	c-0.7,0.2-1.4,0.5-2.1,0.6c-12.4,2.1-21.5,8.7-27.8,19.5c-23.2,40.3-46.6,80.6-69.7,121c-11.7,20.5-5.6,42.9,14.8,54.7
	c39.9,23.2,80,46.2,119.9,69.3c20.7,11.9,43.2,6,55.2-14.7c23.4-40.3,46.7-80.6,69.8-120.9C341.2,170.7,335.1,148,315.6,136.6z
	 M200.5,282.9c-47.9,0-87.1-39.3-87-87.2c0.1-47.3,39.7-86.7,87.1-86.7c47.5,0.1,86.7,39.4,86.8,87
	C287.5,243.3,247.9,282.9,200.5,282.9z"/>
</svg>
