<svg xmlns="http://www.w3.org/2000/svg" width="48" height="48" fill="none" viewBox="0 0 256 256"><path fill="url(#a)"
d="M0 0h256v256H0z"/><path fill="url(#b)" d="M187.998 67h-7.999v7.999h7.999V67Z"/><path fill="url(#c)" d="M160.01
123.02v-16.026l.004.005h15.993v15.997H192v5.071c0 5.861-.498 12.806-1.644 18.26-.642 3.048-1.615 6.077-2.756 8.986-1.169
2.976-2.516 5.827-3.982 8.382a62.78 62.78 0 0 1-6.695 9.547l-.136.158-.224.262c-.617.724-1.227 1.44-1.898 2.139a63.215
63.215 0 0 1-2.415 2.415c-10.237 9.859-23.575 16.017-37.521
17.431-1.678.172-5.047.35-6.729.35-1.687-.005-5.051-.178-6.729-.35-13.946-1.414-27.284-7.577-37.52-17.431a63.155 63.155
0 0 1-2.416-2.415c-.704-.729-1.339-1.477-1.98-2.233l-.002-.002-.276-.324a62.662 62.662 0 0
1-6.695-9.547c-1.466-2.559-2.813-5.406-3.983-8.382-1.14-2.909-2.113-5.938-2.755-8.986-1.146-5.459-1.644-12.399-1.644-18.26V68.002h31.99v55.018s0
4.218.053 5.598l.012.322v.002c.067 1.785.133 3.534.319 5.274.527 4.941 1.62 9.628 3.872 13.592.652 1.145 1.313 2.257
2.104 3.311 4.812 6.417 12.135 11.234 21.27 12.576 1.087.158 3.282.297 4.38.297 1.098 0 3.292-.139 4.38-.297 9.135-1.342
16.458-6.159 21.27-12.576.795-1.054 1.452-2.166 2.104-3.311 2.252-3.964 3.345-8.651
3.872-13.592.186-1.744.252-3.495.319-5.284l.012-.314c.053-1.38.053-5.598.053-5.598Z"/><path fill="url(#d)" d="M164.002
79h12v11.996H192v15.998h-15.998V91.001h-12v-12Z"/><defs><linearGradient id="b" x1="106.283" x2="193.978" y1="265.313"
y2="153.158" gradientUnits="userSpaceOnUse"><stop stop-color="#C2C4CE"/><stop offset=".397" stop-color="#D6D9E2"/><stop
offset="1" stop-color="#fff"/></linearGradient><linearGradient id="c" x1="106.283" x2="193.978" y1="265.313"
y2="153.158" gradientUnits="userSpaceOnUse"><stop stop-color="#C2C4CE"/><stop offset=".397" stop-color="#D6D9E2"/><stop
offset="1" stop-color="#fff"/></linearGradient><linearGradient id="d" x1="106.283" x2="193.978" y1="265.313"
y2="153.158" gradientUnits="userSpaceOnUse"><stop stop-color="#C2C4CE"/><stop offset=".397" stop-color="#D6D9E2"/><stop
offset="1" stop-color="#fff"/></linearGradient><radialGradient id="a" cx="0" cy="0" r="1" gradientTransform="matrix(0
256 -256 0 128 0)" gradientUnits="userSpaceOnUse"><stop stop-color="#006FFF"/><stop offset="1"
stop-color="#003C9E"/></radialGradient></defs></svg>
