<?xml version="1.0" encoding="utf-8"?>
<!-- Generator: Adobe Illustrator 27.0.0, SVG Export Plug-In . SVG Version: 6.00 Build 0)  -->
<svg version="1.1" id="Layer_1" xmlns="http://www.w3.org/2000/svg" xmlns:xlink="http://www.w3.org/1999/xlink" x="0px" y="0px"
	 viewBox="0 0 400 400" style="enable-background:new 0 0 400 400;" xml:space="preserve">
<style type="text/css">
	.st0{fill:url(#SVGID_1_);}
	.st1{fill:#FFFFFF;}
	.st2{fill:#D1D3D4;}
</style>
<radialGradient id="SVGID_1_" cx="268.7588" cy="111.9528" r="252.9732" fx="335.7936" fy="-2.1166" gradientUnits="userSpaceOnUse">
	<stop  offset="0" style="stop-color:#ED1C24"/>
	<stop  offset="0.1646" style="stop-color:#EB2025"/>
	<stop  offset="0.3182" style="stop-color:#E52B26"/>
	<stop  offset="0.4675" style="stop-color:#DA3E29"/>
	<stop  offset="0.6142" style="stop-color:#CB582E"/>
	<stop  offset="0.759" style="stop-color:#B87B33"/>
	<stop  offset="0.9003" style="stop-color:#A0A43A"/>
	<stop  offset="1" style="stop-color:#8DC63F"/>
</radialGradient>
<rect class="st0" width="400" height="400"/>
<g id="_x39_GyJ5D.tif">
	<g>
		<path class="st1" d="M123.6,65.7c1.5,0.1,3,0.2,4.5,0.3c11.3,0.8,22.2,3.3,32.4,8.6c13.7,7.2,23.3,18.1,29.3,32.2
			c3.1,7.1,5,14.5,6.1,22.2c0.5,3.2,0.8,6.4,1,9.6c0,0.3,0.1,0.7,0.1,1c0.5-2.3,0.9-4.6,1.5-6.9c1.8-7.1,4.4-13.9,8.4-20.1
			c6.9-10.8,16.7-17.6,29.2-20.1c4.1-0.8,8.2-1.1,12.4-0.8c0.9,0.1,0.8,0.6,0.8,1.1c0.5,13.3-3.6,24.9-13.2,34.3
			c-6.7,6.6-14.7,10.8-23.6,13.4c-4.8,1.4-9.7,2.2-14.6,2.6c-0.7,0.1-1-0.1-1.3-0.8c-1.9-3.7-4.5-6.9-7.1-10.1
			c-6.9-8.4-14.6-16.1-22.4-23.6c-7.8-7.6-15.9-14.9-24.1-22.2c-0.2-0.1-0.3-0.3-0.6-0.4c0,0.4,0.3,0.5,0.5,0.7
			c7,6.4,13.8,13,20.3,20c5.9,6.4,11.6,13,16.3,20.3c2.2,3.4,4.2,7,5.3,10.9c0.4,1.4,0.6,2.9,0.6,4.3c0,0.4-0.1,0.5-0.5,0.5
			c-9.4-1.1-18.4-3.9-26.7-8.5c-11.9-6.6-21-15.9-27.5-27.8c-4.6-8.4-7.5-17.3-9.1-26.7c-0.8-4.7-1.4-9.4-1.6-14.1
			C121.1,65.7,122.3,65.7,123.6,65.7z M141.3,85.1c0.2,0.5,0.6,0.8,1.2,1.1C142.2,85.6,141.7,85.4,141.3,85.1z M141.1,85
			c-0.2-0.4-0.5-0.8-1.1-0.9C140.3,84.5,140.7,84.8,141.1,85z"/>
		<path class="st1" d="M215.6,149.4c0,0.3,0.3,0.4,0.5,0.5c2.3,1.2,4.3,2.7,6.2,4.4c5.3,4.8,8.4,10.8,9.9,17.7
			c0.7,3.1,1,6.2,0.7,9.3c0,0,0,0,0.1,0c0,0,0,0,0,0c0,0.3-0.1,0.6-0.1,1c-0.5,5.2-1.9,10.1-4.8,14.5c-6.6,10.2-16.6,14.5-28.3,15.2
			c-3.3,0.2-6.5-0.5-9.7-1.3c-4.8-1.3-9.4-3.2-14-5.2c-4-1.7-7.9-3.5-12.1-4.9c-5.1-1.7-10.3-2.6-15.7-2.4c-1,0-2.1,0.1-3.1,0.3
			c-0.3,0-0.6,0.1-0.9,0.1c-2.4,0.2-4.7,0.7-7,1.4c-5.5,1.7-10.4,4.6-14.2,9c-2.7,3.1-4.7,6.7-6.1,10.6c-0.9,2.5-1.5,5.1-1.9,7.8
			c-0.2-1,0.3-2,0.2-3c0,0,0,0,0,0c0.3-0.2,0.1-0.5,0.2-0.7c0,0,0,0,0,0c0.3-0.2,0.1-0.5,0.2-0.8c0.3-2.1,1.1-4,1.9-5.9
			c2.1-5.1,5.1-9.6,9-13.5c15.3-15.3,30.6-30.6,45.9-45.9c5.9-6,13-9.7,21.3-11.1c7-1.2,13.9-0.4,20.5,2.2c0.1,0,0.1,0.1,0.2,0.1
			c0.1,0.1,0.2,0.1,0.3,0.1c0,0,0,0,0,0c0.1,0.1,0.2,0.2,0.3,0.1c0,0,0,0,0,0c0.1,0.2,0.2,0.2,0.3,0.1c0,0,0,0,0,0
			C215.4,149.4,215.5,149.5,215.6,149.4L215.6,149.4z"/>
		<path class="st2" d="M115.3,224.4c0.1,1-0.4,2-0.2,3c0.4-2.6,1-5.2,1.9-7.8c1.4-3.9,3.3-7.5,6.1-10.6c3.8-4.4,8.7-7.3,14.2-9
			c2.3-0.7,4.6-1.2,7-1.4c0.3,0,0.6-0.1,0.9-0.1c1,0,2.1,0.1,3.1-0.1c1.6,0,3.2,0.1,4.8,0.4c6.1,0.9,11.5,3.3,16.1,7.4
			c5.1,4.5,8.3,10.2,10,16.8c0.8,3.2,1.5,6.5,1.3,9.8c-0.1,4-1,7.9-2.2,11.7c-1.6,4.8-3.7,9.4-5.7,14c-3.2,7.3-5.9,14.6-6,22.7
			c0.1,5.4,0.7,10.7,2.8,15.7c0.6,1.5,1.3,2.9,2.2,4.3c0,0,0,0,0,0l0,0c0,0,0,0.1,0.1,0.1c0,0.1,0,0.1,0.1,0.2c0,0,0,0.1,0.1,0.1
			c0,0,0,0,0,0l0,0c1.6,2.7,3.7,5.1,6.1,7.2c1.8,1.6,3.8,2.9,5.9,4c0.1,0.1,0.4,0.1,0.3,0.4c-4.5-1.9-8.5-4.7-11.9-8.1
			c-15.5-15.5-31-31-46.5-46.5c-6.2-6.2-9.8-13.6-11-22.3c-0.5-3.9-0.4-7.9,0.3-11.8C115.2,224.5,115.3,224.5,115.3,224.4z"/>
		<path class="st2" d="M284.7,238.3c-0.1-1,0.4-2,0.2-3c-0.4,2.6-1,5.2-1.9,7.8c-1.4,3.9-3.3,7.5-6.1,10.6c-3.8,4.4-8.7,7.3-14.2,9
			c-2.3,0.7-4.6,1.2-7,1.4c-0.3,0-0.6,0.1-0.9,0.1c-1,0-2.1-0.1-3.1,0.1c-1.6,0-3.2-0.1-4.8-0.4c-6.1-0.9-11.5-3.3-16.1-7.4
			c-5.1-4.5-8.3-10.2-10-16.8c-0.8-3.2-1.5-6.5-1.3-9.8c0.1-4,1-7.9,2.2-11.7c1.6-4.8,3.7-9.4,5.7-14c3.2-7.3,5.9-14.6,6-22.7
			c-0.1-5.4-0.7-10.7-2.8-15.7c-0.6-1.5-1.3-2.9-2.2-4.3c0,0,0,0,0,0l0,0c0,0,0-0.1-0.1-0.1c0-0.1,0-0.1-0.1-0.2c0,0,0-0.1-0.1-0.1
			c0,0,0,0,0,0l0,0c-1.6-2.7-3.7-5.1-6.1-7.2c-1.8-1.6-3.8-2.9-5.9-4c-0.1-0.1-0.4-0.1-0.3-0.4c4.5,1.9,8.5,4.7,11.9,8.1
			c15.5,15.5,31,31,46.5,46.5c6.2,6.2,9.8,13.6,11,22.3c0.5,3.9,0.4,7.9-0.3,11.8C284.8,238.2,284.7,238.2,284.7,238.3z"/>
		<path class="st1" d="M184.2,313.2c0-0.3-0.3-0.4-0.5-0.5c-2.3-1.2-4.3-2.7-6.2-4.4c-5.3-4.8-8.4-10.8-10-17.8
			c-0.7-3.1-1-6.2-0.7-9.4c0,0,0,0-0.1,0c0,0,0,0,0,0c0-0.3,0.1-0.6,0.1-1c0.5-5.2,1.9-10.1,4.8-14.5c6.7-10.3,16.6-14.5,28.4-15.3
			c3.3-0.2,6.5,0.5,9.7,1.3c4.8,1.3,9.4,3.2,14,5.2c4,1.7,8,3.5,12.1,4.9c5.1,1.7,10.3,2.6,15.7,2.4c1,0,2.1-0.1,3.1-0.3
			c0.3,0,0.6-0.1,0.9-0.1c2.4-0.2,4.8-0.7,7-1.4c5.5-1.7,10.4-4.6,14.3-9c2.7-3.2,4.7-6.7,6.1-10.6c0.9-2.5,1.5-5.1,1.9-7.8
			c0.2,1-0.3,2-0.2,3c0,0,0,0,0,0c-0.3,0.2-0.1,0.5-0.2,0.7c0,0,0,0,0,0c-0.3,0.2-0.1,0.5-0.2,0.8c-0.3,2.1-1.1,4-1.9,5.9
			c-2.1,5.1-5.1,9.6-9,13.5c-15.3,15.3-30.7,30.6-46,46c-6,6-13,9.7-21.4,11.1c-7,1.2-13.9,0.4-20.5-2.2c-0.1,0-0.1-0.1-0.2-0.1
			c-0.1-0.1-0.2-0.1-0.3-0.1c0,0,0,0,0,0c-0.1-0.1-0.2-0.2-0.3-0.1c0,0,0,0,0,0c-0.1-0.2-0.2-0.2-0.3-0.1c0,0,0,0,0,0
			C184.5,313.1,184.4,313.1,184.2,313.2L184.2,313.2z"/>
	</g>
</g>
</svg>
