<?xml version="1.0" encoding="utf-8"?>
<!-- Generator: Adobe Illustrator 27.0.0, SVG Export Plug-In . SVG Version: 6.00 Build 0)  -->
<svg version="1.1" id="Layer_1" xmlns="http://www.w3.org/2000/svg" xmlns:xlink="http://www.w3.org/1999/xlink" x="0px" y="0px"
	 viewBox="0 0 400 400" style="enable-background:new 0 0 400 400;" xml:space="preserve">
<style type="text/css">
	.st0{fill:url(#SVGID_1_);}
	.st1{fill:#FEFEFE;}
</style>
<linearGradient id="SVGID_1_" gradientUnits="userSpaceOnUse" x1="0" y1="200" x2="400" y2="200">
	<stop  offset="0" style="stop-color:#58B2F8"/>
	<stop  offset="0.3518" style="stop-color:#449EE9"/>
	<stop  offset="1" style="stop-color:#1770C5"/>
</linearGradient>
<rect class="st0" width="400" height="400"/>
<path class="st1" d="M184.1,238.5c0,0.7-0.1,1.4-0.1,2.2c0,24,0,48,0,72.1c0,1.6-0.4,2-2,2c-5-0.1-9.9-0.1-14.9,0
	c-1.2,0-1.7-0.2-1.7-1.6c0.1-18.8,0-37.5,0.1-56.3c0-4,0.3-8,0.9-11.9c0.1-0.6,0.5-1.4-0.3-1.8c-0.8-0.4-1.3,0.3-1.8,0.9
	c-8.7,11.9-20.8,17-35.1,17.6c-4.7,0.2-9.3-0.1-13.9-1c-6.2-1.4-12.1-3.7-17.3-7.5c-7.1-5.2-12.1-11.9-15.6-19.9
	c-2.7-6.1-4.3-12.4-5.2-19c-2-14.2-1.5-28.4,2.2-42.3c2.9-10.8,8.2-20.2,16.8-27.4c6.1-5.1,13.3-8.2,21.3-9.3
	c7.5-1.1,14.9-1.1,22.3,0.7c10.2,2.4,18.3,7.9,24.7,16.1c0.5,0.6,0.8,1.6,1.7,1.4c1-0.2,0.8-1.4,0.9-2.1c0.8-4.5,1.5-9,2.1-13.5
	c0.1-0.9,0.5-1,1.3-1c4.1,0,8.1,0.1,12.2,0c1.2,0,1.4,0.5,1.4,1.5c0,4.3,0,8.6,0,12.9c0,28.4,0,56.7,0,85.1
	C184,237.1,184.1,237.8,184.1,238.5z M95.3,198.7c0.1,3.1,0.1,6.2,0.3,9.2c0.7,7.6,2.1,14.9,5.5,21.8c4,8,10.1,13.4,19,15.5
	c5.7,1.4,11.5,1.4,17.3,0.6c12.4-1.7,21-8.1,24.8-20.2c1.9-6.1,2.8-12.5,3.1-18.9c0.6-11.2,0.3-22.4-2.8-33.2
	c-2.5-9-7.4-16.1-16.1-20.1c-3.9-1.8-8-2.6-12.3-3c-6.2-0.6-12.3-0.3-18.1,2.3c-7.9,3.5-12.8,9.7-16,17.4
	C96.3,179.2,95.3,188.9,95.3,198.7z M317.6,163c2.5,6.2,4.3,12.5,5.2,19.2c1.1,8.2,1.3,16.3,0.7,24.6c-0.4,5.6-1.2,11.2-2.6,16.6
	c-2.4,9-6.3,17.1-12.7,24.1c-6.7,7.3-14.9,11.6-24.4,13.6c-5.7,1.2-11.7,1.4-17.4,0.7c-12.2-1.5-23-6.1-30.8-16.2
	c-0.2-0.2-0.4-0.5-0.6-0.7c-0.4-0.5-0.8-0.9-1.5-0.8c-0.7,0.1-0.7,0.8-0.8,1.3c-1.1,4.3-2.2,8.5-3.2,12.8c-0.3,1.2-0.7,1.7-2,1.6
	c-3.2-0.1-6.4-0.1-9.6,0c-1.7,0.1-2.2-0.3-2.2-2.2c0.1-11.2,0-22.5,0-33.7c0-0.7,0-1.3-0.1-2c0.3-0.8,0.2-1.7,0.2-2.5
	c0-43.9,0-87.8-0.1-131.8c0-1.8,0.4-2.3,2.3-2.3c4.9,0.1,9.8,0.1,14.7,0c1.2,0,1.7,0.2,1.7,1.5c-0.1,16.1,0,32.2-0.1,48.3
	c0,5.6-0.5,11.2-0.7,16.9c0,0.4-0.4,1,0.3,1.2c0.6,0.2,0.8-0.4,1.1-0.8c2.9-3.8,6.2-7.1,10.1-9.8c6.6-4.6,14-6.8,21.9-7.4
	c8.8-0.8,17.4,0.1,25.8,3.3c7.8,3,13.9,8.1,18.9,14.7C314.1,156.2,315.8,159.6,317.6,163z M234.6,203.7c0.3,8.6,1.4,17.1,4.7,25.1
	c2.6,6.3,7.1,11,13.2,14c6.6,3.2,13.6,3.7,20.8,3.4c11.7-0.6,20.2-6.1,25.4-16.7c3.6-7.3,4.8-15.1,5.5-23c0.6-6.5,0.4-12.9-0.1-19.4
	c-0.6-6.3-1.9-12.4-4.3-18.3c-3-7.5-8.1-13.1-15.7-16.1c-8.2-3.1-16.6-2.9-25-1.2c-10.1,2.1-17,8.1-20.5,17.7
	C234.5,180.5,234.2,192,234.6,203.7z"/>
</svg>
