<?xml version="1.0" encoding="utf-8"?>
<!-- Generator: Adobe Illustrator 27.0.0, SVG Export Plug-In . SVG Version: 6.00 Build 0)  -->
<svg version="1.1" id="Layer_1" xmlns="http://www.w3.org/2000/svg" xmlns:xlink="http://www.w3.org/1999/xlink" x="0px" y="0px"
	 viewBox="0 0 400 400" style="enable-background:new 0 0 400 400;" xml:space="preserve">
<style type="text/css">
	.st0{fill:#1C75BC;}
	.st1{fill:#FFFFFF;}
</style>
<rect class="st0" width="400" height="400"/>
<g id="_x35_YhFbn_00000048473670588196194800000008528906458348924053_">
	<g>
		<path class="st1" d="M195.6,250.5c1.3-4.1,2.6-7.8,3.8-11.5c5.5-16.6,11.1-33.1,16.6-49.7c0.7-2.2,1.5-4.4,2.2-6.7
			c0.3-0.9,0.6-1.4,1.7-1.4c11.7,0.4,23.5,0.8,35.2,1.3c0.3,0,0.6,0.1,1.2,0.3c-4.5,13.3-8.9,26.5-13.4,39.7c0.4,0.1,0.7,0.3,1,0.4
			c9.8,0.2,19.3-0.5,27.8-5.9c8.9-5.7,15-13.5,17.1-24c1.2-6.2,0.2-12-4.6-16.6c-3.4-3.2-7.6-4.4-12.2-4.4c-15.8,0-31.6,0-47.4,0
			c-0.8,0-1.6-0.1-2.7-0.1c0.5-1.7,1-3.1,1.5-4.5c1.8-5.3,3.6-10.6,5.3-16c0.4-1.1,0.9-1.5,2.1-1.5c18.2,0,36.5,0,54.7,0.1
			c7.6,0,14.9,1.7,21.4,5.9c10.2,6.6,14.9,16.3,15,28.3c0.1,13.4-5,25-12.8,35.4c-9.6,12.8-22,22-37.1,27.5
			c-6.8,2.5-13.8,3.8-21.1,3.8c-17.8,0-35.6,0-53.3,0C196.9,250.6,196.4,250.5,195.6,250.5z"/>
		<path class="st1" d="M146.1,192c-1.8,3.5-3.5,7.1-5.3,10.6c-7.6,15.3-15.1,30.6-22.6,45.9c-0.8,1.6-1.7,2.1-3.5,2.1
			c-11.4-0.1-22.8,0-34.2,0c-0.7,0-1.4,0-2.3,0c0.2-2.2,0.4-4.2,0.6-6.2c1.2-11.1,2.5-22.3,3.8-33.4c1.2-10.7,2.4-21.5,3.5-32.2
			c0.2-1.6,0.6-2.1,2.2-2c8.1,0.3,16.2,0.6,24.4,0.8c0.6,0,1.3,0.1,2.2,0.2c-1.6,11-3.2,21.8-4.8,32.6c0.1,0,0.2,0.1,0.3,0.1
			c1.8-3.3,3.5-6.7,5.3-10c3.7-7,7.5-14,11.2-21.1c0.5-1,1.1-1.3,2.2-1.3c12.5,0.5,25,0.9,37.5,1.3c1.4,0,1.9,0.5,2.1,1.9
			c0.8,8.3,1.7,16.6,2.6,24.9c0.2,2.3,0.5,4.5,1,6.9c0.8-2.4,1.6-4.8,2.4-7.3c2.6-8,5.1-16,7.6-24.1c0.3-1.1,0.7-1.9,2.1-1.8
			c8.6,0.4,17.3,0.7,25.9,1c0.3,0,0.6,0.1,1.1,0.2c-0.8,2.3-1.5,4.6-2.3,6.8c-7,20.3-14,40.5-20.9,60.8c-0.5,1.3-1.1,1.8-2.5,1.8
			c-10.5-0.1-20.9-0.1-31.4,0c-1.4,0-1.9-0.4-2-1.8c-1.3-13.6-2.7-27.2-4.1-40.8c-0.5-5.3-1-10.6-1.6-15.9
			C146.3,192.1,146.2,192,146.1,192z"/>
		<path class="st1" d="M104.1,149.4c4.4,0,8.8,0,13.1,0c1.5,0,1.8,0.5,1.6,1.9c-1,6.2-1.9,12.3-2.8,18.5c-0.2,1.4-0.7,2.1-2.3,2.1
			c-8.4-0.1-16.7-0.1-25.1,0c-1.5,0-1.9-0.4-1.7-1.9c0.8-6.3,1.5-12.5,2.1-18.8c0.1-1.4,0.6-1.8,2-1.7
			C95.4,149.4,99.8,149.4,104.1,149.4z"/>
		<path class="st1" d="M131,171.6c2.1-4,4-7.7,6-11.4c1.6-3,3.2-6,4.7-9c0.5-1.1,1.2-1.5,2.4-1.5c6.4,0.1,12.9,0.1,19.3,0
			c1.3,0,1.9,0.3,2,1.7c0.6,6.3,1.2,12.5,1.9,18.8c0.1,1.1-0.1,1.6-1.3,1.6c-11.2,0-22.4,0-33.7,0C132,171.8,131.7,171.7,131,171.6z
			"/>
		<path class="st1" d="M222,150c-1,2.9-1.9,5.7-2.9,8.5c-1.4,4-2.8,7.9-4.1,11.9c-0.3,0.9-0.7,1.5-1.8,1.5c-8.9,0-17.8,0-26.6,0
			c-0.3,0-0.6-0.1-1-0.2c0.2-0.7,0.3-1.3,0.4-1.9c1.9-6.1,3.9-12.2,5.8-18.3c0.3-1,0.6-1.7,2-1.7c8.9,0.1,17.9,0,26.8,0
			C221,149.8,221.4,149.9,222,150z"/>
	</g>
</g>
</svg>
