<?xml version="1.0" encoding="utf-8"?>
<!-- Generator: Adobe Illustrator 27.0.0, SVG Export Plug-In . SVG Version: 6.00 Build 0)  -->
<svg version="1.1" id="Layer_1" xmlns="http://www.w3.org/2000/svg" xmlns:xlink="http://www.w3.org/1999/xlink" x="0px" y="0px"
	 viewBox="0 0 400 400" style="enable-background:new 0 0 400 400;" xml:space="preserve">
<style type="text/css">
	.st0{fill:url(#SVGID_1_);}
	.st1{fill:#FDFDFD;}
</style>
<linearGradient id="SVGID_1_" gradientUnits="userSpaceOnUse" x1="-1.347053e-08" y1="1.346780e-08" x2="400" y2="400">
	<stop  offset="6.281407e-04" style="stop-color:#572176"/>
	<stop  offset="0.6598" style="stop-color:#4E1D62"/>
	<stop  offset="1" style="stop-color:#491A56"/>
</linearGradient>
<rect class="st0" width="400" height="400"/>
<path class="st1" d="M239.4,114.3c0.1-4.8,1.7-8.7,4.5-11.9c3.4-4,8.1-5.4,13.2-5.5c4.3,0,8.6-0.2,12.9,0.1
	c9.5,0.6,16.6,8,16.6,17.8c0,14.5,0,29,0,43.4c0,2.1,0.6,3.7,2.1,5.2c5.6,5.5,11.1,11,16.6,16.6c1.2,1.3,2.5,2.1,4.3,2.4
	c5.1,0.8,7.9,5.5,7.9,9.2c0.1,4.9-2.9,9.3-7.6,10.2c-6,1.2-11.6-1.8-12.3-9c-0.1-0.9-0.6-1.4-1.1-1.9c-5.7-5.7-11.4-11.5-17.2-17.1
	c-3.2-3.1-5.3-6.7-6.3-11c-0.3-1.3-0.1-2.7-0.1-4.1c0-14.5,0-29,0-43.4c0-3.3-1.3-4.6-4.6-4.7c-3.5,0-7,0-10.6,0
	c-3.3,0-4.6,1.4-4.6,4.7c0,9.8,0,19.6,0,29.3c0,0.6,0,1.3,0,1.8c-0.7,0.4-0.9-0.1-1.2-0.3c-4.1-4.1-8.4-8.1-12.6-12.2
	c-12.5-12.5-25.3-24.6-37.9-37c-2.1-2.1-4.1-2.1-6.3-0.1c-1.6,1.5-3.1,3.1-4.7,4.7c-30.8,30.8-61.6,61.6-92.4,92.5
	c-2.5,2.5-2.5,4.2,0,6.8c2.5,2.5,5,4.9,7.5,7.5c2.2,2.3,4.1,3.3,7.4,0c7.2-7.2,14.1-14.6,21.5-21.5c9-8.5,17.3-17.7,26.4-26
	c8.7-8,16.8-16.7,25.2-25c8.1-8,19.5-7.4,27,0.1c24.1,24.3,48.3,48.4,72.4,72.5c2.7,2.7,4.6,5.8,5.3,9.7c1.1,5.9-0.3,11-4.3,15.3
	c-3.2,3.4-6.5,6.6-9.8,9.8c-6.4,6.2-17.2,6.3-23.8,0.1c-2.3-2.2-4.5-4.5-6.9-6.6c-5.2-4.5-9.8-9.7-14.8-14.4
	c-4.6-4.2-8.7-8.8-13.3-12.9c-5.9-5.3-11.2-11.2-17-16.6c-2-1.9-3.9-1.9-5.8,0c-16.4,16.4-32.8,32.9-49.2,49.3
	c-2.2,2.2-2.2,4.1,0,6.3c2.7,2.8,5.5,5.6,8.3,8.3c2.1,2.1,4,2.1,6.1,0.1c5.7-5.6,11.4-11.1,16.9-16.8c2.8-3,5.8-5.8,8.6-8.8
	c6.6-6.9,17.1-7.3,23.7-2.1c3.8,3,7.1,6.6,10.6,10.1c4.9,4.8,9.7,9.7,14.6,14.5c1.4,1.4,2.9,2.6,4.2,4.1c6,6.9,6.2,16.6-0.2,23.2
	c-8,8.3-16.3,16.4-24.4,24.5c-1.5,1.5-2.6,2.9-3,5.2c-0.8,4.9-5.6,8.1-10.6,7.6c-5.1-0.5-8.9-4.6-9-9.7c-0.1-5.1,3.5-9.4,8.5-10.1
	c1.3-0.2,2.3-0.6,3.2-1.5c8-8.1,16.1-16.2,24.2-24.2c2.6-2.6,2.6-4.3,0-6.9c-8.4-8.3-16.9-16.7-25.4-25c-2.2-2.2-4.2-2.1-6.4,0.1
	c-8.6,8.5-17.2,16.9-25.7,25.4c-7.3,7.3-17.7,7.5-25.2,0.4c-3.4-3.2-6.7-6.6-9.9-10c-3.1-3.3-4.7-7.3-4.5-11.8
	c0.2-4.6,1.7-8.8,5.2-12.1c5.8-5.6,11.6-11.2,17.1-17.2c10.8-11.6,22.1-22.7,33.4-33.7c6.1-5.9,16.7-6.2,24,0.8
	c7.2,6.9,14.2,14,21.4,20.9c8.9,8.6,17.9,17.1,26.6,25.9c1.2,1.2,2.5,2.4,3.9,3.6c1.6,1.4,3.2,1.3,4.8-0.1c3.1-2.7,6-5.7,9-8.7
	c2.1-2.1,2.1-4,0-6.1c-24.8-24.1-49.1-48.8-73.6-73.2c-2.1-2.1-3.5-2-5.6,0.1c-11.2,11-22.3,22.1-33.6,33.1
	c-9.1,8.8-17.9,17.9-27,26.6c-5,4.7-9.7,9.6-14.6,14.4c-3.4,3.2-7.5,4.9-12,5.1c-4.7,0.2-8.9-1.6-12.4-4.9c-3.4-3.2-6.6-6.5-9.8-9.8
	c-5.9-6-6.4-16.9-1.1-23.1c1.1-1.3,2.2-2.5,3.4-3.7c29.6-29.6,59.1-59.2,88.7-88.7c2.8-2.7,5.6-5.5,8.4-8.1c6.6-6,17.2-5.7,23.6,0.5
	c9.3,9,18.6,17.9,27.9,26.8C238.5,113.6,238.8,113.8,239.4,114.3z"/>
</svg>
