<?xml version="1.0" encoding="utf-8"?>
<!-- Generator: Adobe Illustrator 27.0.0, SVG Export Plug-In . SVG Version: 6.00 Build 0)  -->
<svg version="1.1" id="Layer_1" xmlns="http://www.w3.org/2000/svg" xmlns:xlink="http://www.w3.org/1999/xlink" x="0px" y="0px"
	 viewBox="0 0 400 400" style="enable-background:new 0 0 400 400;" xml:space="preserve">
<style type="text/css">
	.st0{fill:#00CED8;}
	.st1{fill:#FFFFFF;}
</style>
<rect class="st0" width="400" height="400"/>
<g id="Y0vUbq_00000152242173436838402250000004735429720308820616_">
	<g>
		<path class="st1" d="M202.1,263.5c0-4.3,0.1-8.6,0-12.9c-0.1-3.8,1.7-5.3,5.4-5.2c3.1,0.1,6.3-0.1,9.4,0
			c17.6,0.5,28.7-15.2,26.6-31.2c-2-15.1-12.8-24.2-27.4-23.6c-15,0.6-26.8,12.3-27.5,27.3c-0.2,3.3-0.1,6.5-0.1,9.8
			c0,2.7-1,4.2-4,4.2c-9.6,0-19.2,0-28.7,0c-2.6,0-3.8-1.1-3.9-3.7c-1.3-27.2,7.2-50,31.6-64.8c36.6-22.2,89.9-4.2,96.2,45.8
			c3.9,30.8-15.5,64.3-50.5,71.8c-7.4,1.6-14.9,1.6-22.3,1.6c-3.7,0-4.9-1.8-4.9-5.1C202.2,272.8,202.1,268.1,202.1,263.5z"/>
		<path class="st1" d="M189.6,285.5c0,11.2,0,22.4,0,33.6c0,7-0.1,7-6.9,7c-7,0-13.9,0-20.9,0c-8,0-10.9-2.9-11-11
			c-0.1-8.4,0-16.9,0-25.3c0-5.9-0.3-6.2-6.1-6.2c-8.5,0-17.1,0.1-25.6,0c-7.6-0.1-11.2-3.6-11.2-11.1c-0.1-7.7,0.1-15.5-0.1-23.2
			c-0.1-3.6,1.4-4.9,5-4.9c24,0.1,48,0.1,72.1,0c3.6,0,4.9,1.5,4.9,5C189.6,261.4,189.6,273.4,189.6,285.5z"/>
		<path class="st1" d="M210,65.5c27,0.6,50.3,9.5,68.7,29.6c4.1,4.5,4.1,8.7-0.2,13.1c-0.1,0.1-0.2,0.2-0.4,0.4
			c-6.4,6.2-6.4,6.2-12.5-0.2c-29.4-31-78.4-32.1-109-2.5c-2,1.9-4,3.8-5.8,5.9c-2.1,2.4-4,2.3-6,0c-1.3-1.4-2.7-2.7-4.1-4
			c-6.3-6.2-6.4-6.3-0.5-12.6c15.6-16.8,34.9-26.3,57.9-28.8c2.1-0.2,4.1-0.7,6.2-0.8C206.2,65.4,208.1,65.5,210,65.5z"/>
		<path class="st1" d="M209,106.8c18.2,0.4,33.7,6.6,46.6,19.3c2.7,2.7,2.9,4.6-0.1,7.1c-2.5,2.1-4.9,4.4-7,6.9
			c-2.3,2.7-4,2.2-6.3-0.1c-6.8-7-15-11.7-24.7-13.6c-15.2-2.9-28.1,2.1-39.3,11.9c-4.6,4.1-4.5,4.2-9-0.2c-1.2-1.2-2.5-2.4-3.7-3.6
			c-5.1-5-5.1-5.7,0.2-10.5C178,112.7,192.6,107.2,209,106.8z"/>
	</g>
</g>
</svg>
