<?xml version="1.0" encoding="utf-8"?>
<!-- Generator: Adobe Illustrator 27.0.0, SVG Export Plug-In . SVG Version: 6.00 Build 0)  -->
<svg version="1.1" id="Layer_1" xmlns="http://www.w3.org/2000/svg" xmlns:xlink="http://www.w3.org/1999/xlink" x="0px" y="0px"
	 viewBox="0 0 400 400" style="enable-background:new 0 0 400 400;" xml:space="preserve">
<style type="text/css">
	.st0{fill:url(#SVGID_1_);}
	.st1{fill:#FDFDFD;}
</style>
<linearGradient id="SVGID_1_" gradientUnits="userSpaceOnUse" x1="-1.347053e-08" y1="1.346780e-08" x2="400" y2="400">
	<stop  offset="6.281407e-04" style="stop-color:#7946C3"/>
	<stop  offset="1" style="stop-color:#6934B5"/>
</linearGradient>
<rect class="st0" width="400" height="400"/>
<path class="st1" d="M285.8,129.9c3.8,9.8,1.4,20.2,2.5,30.9c7.4,0,14.8,0,20.7,0c4,1.5,5.7,3.3,7.2,5.5c1.1,2.8,1,5.7,0.2,8.6
	c-1.3,2.4-3.2,3.9-6.2,5.7c-6.6,0-14,0-21.8,0c0,9.6,0,18.8,0,28.3c6.7,1.2,13.7,0.1,20.8,0.7c3.7,1.6,7.5,3.6,8.1,8.5
	c-0.1,1.5-0.2,2.9-0.4,4.4c-1.9,5.2-5.8,7.1-11,7.1c-5.7,0-11.3,0-17.7,0c0,10.8,0,21.2,0,31.5c-1.3,1.4-1.2,3.1-1.1,4.8
	c-4.5,14-15.3,22-30,22.1c-5.7,0-11.4,0-17.5,0c-1.5,7.8,0.2,15.5-1,22.8c-1.2,2.3-2.7,3.9-4.8,5.4c-2.6,1.1-5.6,1-8.5,0.2
	c-2.3-1.2-3.9-3.1-5.4-5.6c-1.1-7,0.1-14.5-0.7-22.3c-12.7,0-25.3,0-38.5,0c0,7.3,0,14.7,0,20.7c-1.6,3.8-3.3,5.5-5.5,7
	c-2.8,1.2-5.7,0.9-8.3,0.4c-2.6-1.4-4.3-3.2-5.9-6.5c0-6.4,0-13.8,0-22c-6.1,0-11.8-0.2-17.4,0c-18,0.9-32.6-14-31.7-31.9
	c0.4-8.6,0.1-17.3,0.1-26.6c-6.2,0-11.9,0.1-17.6,0c-6.9-0.2-10.9-3.5-11.3-9.3c-0.1-1.7,0.2-3.5,0.4-5.2c1.9-2.6,4.8-3.8,7.4-5.6
	c6.9,0,13.8,0,21.2,0c0-5.5,0.1-10.2,0-14.9c-0.1-4.6,0.4-9.3-0.2-13.7c-8.5-0.9-16.3,0.7-23.9-1.1c-1.4-1.7-3.5-2.8-4.4-5.2
	c-0.6-2.5-0.7-5.2,0.1-7.9c1.2-2.2,3-3.9,6.1-5.6c5.5,0,11.9,0,18.3,0c1.3,0,3.1,0.7,3.7-1.4c0.1-8,0.3-15.9,0.4-23.9
	c3.6-12.1,11.5-19.9,23.6-23.6c8-0.1,15.9-0.3,23.9-0.4c2.1-0.6,1.4-2.3,1.4-3.7c0.1-6.2,0-12.4,0-17.9c1.2-3.2,3.1-4.8,5-6.3
	c3-1.2,5.9-0.8,8.2-0.5c3.4,1.3,4.4,4.1,6.1,6.1c0.8,7.4-0.5,14.8,0.7,22.2c12.6,0,24.7,0,36.9,0c2.1-0.6,1.4-2.3,1.4-3.6
	c0.1-6.2,0-12.4,0-17.8c1.3-3.3,3.1-5,5.2-6.5c2.8-1.1,5.7-1,8.2-0.4c3.2,1.2,4.2,3.9,5.9,6c0,7.4,0,14.7,0,22.8
	c9.1,0,17.3,0,25.5,0C274,114.9,281.4,120.6,285.8,129.9z M132.4,137.1c0,42.3,0,84.4,0,125.9c2.8,4,6.1,4.9,10.1,4.9
	c38.7-0.1,77.3,0,116-0.1c1.5,0,3-0.3,4.2-0.4c2.2-1.3,3.9-2.8,4.7-5.2c0-41.7,0-83.6,0-124.9c-2.5-4-5.7-5.3-9.8-5.3
	c-38.4,0.1-76.8,0.1-115.3,0C138.4,132,135.1,133.1,132.4,137.1z M167,238.5c-2.3-1.2-4.1-2.9-5.4-5.2c-0.8-2-0.7-4.3-0.7-6.5
	c0-17.7,0-35.4,0-53.1c0-9.5,3.1-12.7,12.4-12.7c17.7-0.1,35.4,0.3,53.1-0.1c7.9-0.2,12.8,4.1,12.6,12.7
	c-0.4,17.7-0.1,35.4-0.1,53.1c0,2-0.2,4-0.2,5.7c-2.3,4.4-5.5,6.5-10.3,6.5c-19.7-0.1-39.4-0.1-59.1-0.1
	C168.5,238.9,167.7,238.7,167,238.5z M218.9,219.2c0-13.2,0-25.7,0-38.3c-13,0-25.5,0-38,0c0,13,0,25.5,0,38.3
	C193.7,219.2,206,219.2,218.9,219.2z"/>
</svg>
